SeanSans-CondensedThin.ufo
<glyph name="exclam" format="1">
  <advance width="238"/>
  <unicode hex="0021"/>
  <outline>
    <contour>
      <point x="132" y="229" type="line"/>
      <point x="135" y="722" type="line"/>
      <point x="102" y="722" type="line"/>
      <point x="106" y="229" type="line"/>
    </contour>
    <contour>
      <point x="138" y="13" type="curve"/>
      <point x="138" y="24"/>
      <point x="130" y="30"/>
      <point x="119" y="30" type="curve"/>
      <point x="108" y="30"/>
      <point x="102" y="23"/>
      <point x="102" y="13" type="curve"/>
      <point x="138" y="13"/>
      <point x="102" y="13"/>
      <point x="138" y="13" type="curve"/>
      <point x="138" y="1"/>
      <point x="130" y="-5"/>
      <point x="119" y="-5" type="curve"/>
      <point x="108" y="-5"/>
      <point x="102" y="1"/>
      <point x="102" y="13" type="curve"/>
      <point x="138" y="13"/>
      <point x="102" y="13"/>
    </contour>
  </outline>
</glyph>
<glyph name="quotedbl" format="1">
  <advance width="317"/>
  <unicode hex="0022"/>
  <outline>
    <contour>
      <point x="106" y="611" type="line"/>
      <point x="109" y="799" type="line"/>
      <point x="78" y="799" type="line"/>
      <point x="81" y="611" type="line"/>
    </contour>
    <contour>
      <point x="237" y="611" type="line"/>
      <point x="240" y="799" type="line"/>
      <point x="209" y="799" type="line"/>
      <point x="212" y="611" type="line"/>
    </contour>
  </outline>
</glyph>
<glyph name="numbersign" format="1">
  <advance width="503"/>
  <unicode hex="0023"/>
  <outline>
    <contour>
      <point x="47" y="247" type="curve"/>
      <point x="398" y="247" type="curve"/>
      <point x="404" y="270" type="curve"/>
      <point x="52" y="270" type="curve"/>
    </contour>
    <contour>
      <point x="98" y="491" type="curve"/>
      <point x="449" y="491" type="curve"/>
      <point x="455" y="513" type="curve"/>
      <point x="103" y="513" type="curve"/>
    </contour>
    <contour>
      <point x="280" y="39" type="curve"/>
      <point x="432" y="722" type="curve"/>
      <point x="407" y="722" type="curve"/>
      <point x="255" y="39" type="curve"/>
    </contour>
    <contour>
      <point x="103" y="46" type="curve"/>
      <point x="253" y="722" type="curve"/>
      <point x="227" y="722" type="curve"/>
      <point x="79" y="46" type="curve"/>
    </contour>
  </outline>
</glyph>
<glyph name="dollar" format="1">
  <advance width="417"/>
  <unicode hex="0024"/>
  <outline>
    <contour>
      <point x="207" y="-43" type="curve"/>
      <point x="207" y="-9"/>
      <point x="207" y="25"/>
      <point x="207" y="59" type="curve"/>
      <point x="182" y="59"/>
      <point x="207" y="59"/>
      <point x="182" y="59" type="curve"/>
      <point x="182" y="25"/>
      <point x="182" y="-9"/>
      <point x="182" y="-43" type="curve"/>
      <point x="207" y="-43"/>
      <point x="182" y="-43"/>
    </contour>
    <contour>
      <point x="215" y="671" type="curve"/>
      <point x="215" y="705"/>
      <point x="215" y="739"/>
      <point x="215" y="773" type="curve"/>
      <point x="190" y="773"/>
      <point x="215" y="773"/>
      <point x="190" y="773" type="curve"/>
      <point x="190" y="739"/>
      <point x="190" y="705"/>
      <point x="190" y="671" type="curve"/>
      <point x="215" y="671"/>
      <point x="190" y="671"/>
    </contour>
    <contour>
      <point x="55" y="99" type="curve"/>
      <point x="91" y="73"/>
      <point x="137" y="48"/>
      <point x="193" y="48" type="curve"/>
      <point x="292" y="48"/>
      <point x="357" y="112"/>
      <point x="357" y="198" type="curve"/>
      <point x="357" y="281"/>
      <point x="292" y="336"/>
      <point x="212" y="385" type="curve"/>
      <point x="142" y="428"/>
      <point x="96" y="470"/>
      <point x="96" y="543" type="curve"/>
      <point x="96" y="608"/>
      <point x="136" y="661"/>
      <point x="206" y="661" type="curve"/>
      <point x="257" y="661"/>
      <point x="291" y="642"/>
      <point x="331" y="612" type="curve"/>
      <point x="344" y="631"/>
      <point x="331" y="612"/>
      <point x="344" y="631" type="curve"/>
      <point x="301" y="664"/>
      <point x="262" y="683"/>
      <point x="207" y="683" type="curve"/>
      <point x="121" y="683"/>
      <point x="70" y="622"/>
      <point x="70" y="543" type="curve"/>
      <point x="70" y="462"/>
      <point x="120" y="412"/>
      <point x="197" y="365" type="curve"/>
      <point x="271" y="322"/>
      <point x="332" y="273"/>
      <point x="332" y="197" type="curve"/>
      <point x="332" y="124"/>
      <point x="278" y="70"/>
      <point x="195" y="70" type="curve"/>
      <point x="144" y="70"/>
      <point x="102" y="96"/>
      <point x="69" y="119" type="curve"/>
      <point x="55" y="99"/>
      <point x="69" y="119"/>
    </contour>
  </outline>
</glyph>
<glyph name="percent" format="1">
  <advance width="693"/>
  <unicode hex="0025"/>
  <outline>
    <contour>
      <point x="215" y="-92" type="line"/>
      <point x="514" y="757" type="line"/>
      <point x="485" y="757" type="line"/>
      <point x="187" y="-92" type="line"/>
    </contour>
    <contour>
      <point x="67" y="556" type="curve"/>
      <point x="67" y="657"/>
      <point x="81" y="742"/>
      <point x="167" y="742" type="curve"/>
      <point x="254" y="743"/>
      <point x="268" y="658"/>
      <point x="268" y="557" type="curve"/>
      <point x="268" y="457"/>
      <point x="256" y="370"/>
      <point x="170" y="370" type="curve"/>
      <point x="82" y="370"/>
      <point x="67" y="455"/>
      <point x="67" y="556" type="curve"/>
      <point x="57" y="556"/>
      <point x="52" y="556"/>
      <point x="43" y="556" type="curve"/>
      <point x="43" y="442"/>
      <point x="68" y="348"/>
      <point x="168" y="348" type="curve"/>
      <point x="269" y="348"/>
      <point x="293" y="443"/>
      <point x="293" y="558" type="curve"/>
      <point x="293" y="672"/>
      <point x="268" y="764"/>
      <point x="169" y="764" type="curve"/>
      <point x="68" y="764"/>
      <point x="43" y="671"/>
      <point x="43" y="556" type="curve"/>
      <point x="52" y="556"/>
      <point x="57" y="556"/>
    </contour>
    <contour>
      <point x="425" y="110" type="curve"/>
      <point x="425" y="210"/>
      <point x="439" y="295"/>
      <point x="526" y="295" type="curve"/>
      <point x="612" y="296"/>
      <point x="626" y="211"/>
      <point x="626" y="111" type="curve"/>
      <point x="626" y="10"/>
      <point x="614" y="-77"/>
      <point x="528" y="-77" type="curve"/>
      <point x="440" y="-77"/>
      <point x="425" y="8"/>
      <point x="425" y="110" type="curve"/>
      <point x="416" y="110"/>
      <point x="410" y="110"/>
      <point x="401" y="110" type="curve"/>
      <point x="401" y="-4"/>
      <point x="426" y="-98"/>
      <point x="527" y="-98" type="curve"/>
      <point x="627" y="-98"/>
      <point x="651" y="-3"/>
      <point x="651" y="112" type="curve"/>
      <point x="651" y="225"/>
      <point x="626" y="318"/>
      <point x="527" y="318" type="curve"/>
      <point x="426" y="318"/>
      <point x="401" y="224"/>
      <point x="401" y="110" type="curve"/>
      <point x="410" y="110"/>
      <point x="416" y="110"/>
    </contour>
  </outline>
</glyph>
<glyph name="ampersand" format="1">
  <advance width="493"/>
  <unicode hex="0026"/>
  <outline>
    <contour>
      <point x="481" y="5" type="line"/>
      <point x="402" y="120"/>
      <point x="327" y="234"/>
      <point x="247" y="349" type="curve"/>
      <point x="200" y="423"/>
      <point x="146" y="487"/>
      <point x="146" y="577" type="curve"/>
      <point x="146" y="644"/>
      <point x="169" y="703"/>
      <point x="225" y="703" type="curve"/>
      <point x="284" y="703"/>
      <point x="310" y="647"/>
      <point x="310" y="579" type="curve"/>
      <point x="310" y="495"/>
      <point x="262" y="442"/>
      <point x="196" y="389" type="curve"/>
      <point x="124" y="328"/>
      <point x="72" y="270"/>
      <point x="72" y="177" type="curve"/>
      <point x="72" y="75"/>
      <point x="124" y="-5"/>
      <point x="219" y="-5" type="curve"/>
      <point x="377" y="-5"/>
      <point x="419" y="150"/>
      <point x="455" y="318" type="curve"/>
      <point x="433" y="323"/>
      <point x="455" y="318"/>
      <point x="433" y="323" type="curve"/>
      <point x="399" y="167"/>
      <point x="357" y="19"/>
      <point x="220" y="19" type="curve"/>
      <point x="140" y="19"/>
      <point x="99" y="89"/>
      <point x="99" y="177" type="curve"/>
      <point x="99" y="262"/>
      <point x="146" y="315"/>
      <point x="211" y="369" type="curve"/>
      <point x="282" y="429"/>
      <point x="336" y="488"/>
      <point x="336" y="580" type="curve"/>
      <point x="336" y="662"/>
      <point x="300" y="727"/>
      <point x="226" y="727" type="curve"/>
      <point x="152" y="727"/>
      <point x="119" y="659"/>
      <point x="119" y="577" type="curve"/>
      <point x="119" y="482"/>
      <point x="175" y="414"/>
      <point x="228" y="336" type="curve"/>
      <point x="306" y="221"/>
      <point x="382" y="106"/>
      <point x="461" y="-8" type="curve"/>
    </contour>
  </outline>
</glyph>
<glyph name="parenleft" format="1">
  <advance width="257"/>
  <unicode hex="0028"/>
  <outline>
    <contour>
      <point x="254" y="-237" type="curve"/>
      <point x="123" y="-54"/>
      <point x="89" y="104"/>
      <point x="89" y="326" type="curve"/>
      <point x="89" y="548"/>
      <point x="125" y="705"/>
      <point x="253" y="890" type="curve"/>
      <point x="236" y="903"/>
      <point x="253" y="890"/>
      <point x="236" y="903" type="curve"/>
      <point x="103" y="717"/>
      <point x="63" y="555"/>
      <point x="63" y="326" type="curve"/>
      <point x="63" y="97"/>
      <point x="104" y="-64"/>
      <point x="236" y="-251" type="curve"/>
      <point x="254" y="-237"/>
      <point x="236" y="-251"/>
    </contour>
  </outline>
</glyph>
<glyph name="parenright" format="1">
  <advance width="266"/>
  <unicode hex="0029"/>
  <outline>
    <contour>
      <point x="20" y="-267" type="curve"/>
      <point x="154" y="-72"/>
      <point x="204" y="90"/>
      <point x="204" y="327" type="curve"/>
      <point x="204" y="557"/>
      <point x="161" y="718"/>
      <point x="23" y="903" type="curve"/>
      <point x="5" y="890"/>
      <point x="23" y="903"/>
      <point x="5" y="890" type="curve"/>
      <point x="138" y="706"/>
      <point x="177" y="549"/>
      <point x="177" y="326" type="curve"/>
      <point x="177" y="97"/>
      <point x="129" y="-61"/>
      <point x="1" y="-252" type="curve"/>
      <point x="20" y="-267"/>
      <point x="1" y="-252"/>
    </contour>
  </outline>
</glyph>
<glyph name="asterisk" format="1">
  <advance width="676"/>
  <unicode hex="002A"/>
  <outline>
    <contour>
      <point x="350" y="604" type="line"/>
      <point x="353" y="793" type="line"/>
      <point x="322" y="793" type="line"/>
      <point x="325" y="604" type="line"/>
    </contour>
    <contour>
      <point x="414" y="540" type="line"/>
      <point x="594" y="596" type="line"/>
      <point x="585" y="624" type="line"/>
      <point x="407" y="563" type="line"/>
    </contour>
    <contour>
      <point x="373" y="460" type="line"/>
      <point x="481" y="305" type="line"/>
      <point x="506" y="323" type="line"/>
      <point x="392" y="474" type="line"/>
    </contour>
    <contour>
      <point x="283" y="474" type="line"/>
      <point x="170" y="323" type="line"/>
      <point x="194" y="305" type="line"/>
      <point x="302" y="460" type="line"/>
    </contour>
    <contour>
      <point x="269" y="563" type="line"/>
      <point x="90" y="624" type="line"/>
      <point x="81" y="596" type="line"/>
      <point x="261" y="540" type="line"/>
    </contour>
  </outline>
</glyph>
<glyph name="plus" format="1">
  <advance width="578"/>
  <unicode hex="002B"/>
  <outline>
    <contour>
      <point x="48" y="297" type="curve"/>
      <point x="530" y="297" type="line"/>
      <point x="530" y="322"/>
      <point x="530" y="297"/>
      <point x="530" y="322" type="curve"/>
      <point x="48" y="322" type="line"/>
      <point x="48" y="297"/>
      <point x="48" y="322"/>
    </contour>
    <contour>
      <point x="302" y="18" type="curve"/>
      <point x="302" y="588" type="line"/>
      <point x="276" y="588"/>
      <point x="302" y="588"/>
      <point x="276" y="588" type="curve"/>
      <point x="276" y="18" type="line"/>
      <point x="302" y="18"/>
      <point x="276" y="18"/>
    </contour>
  </outline>
</glyph>
<glyph name="comma" format="1">
  <advance width="121"/>
  <unicode hex="002C"/>
  <outline>
    <contour>
      <point x="33" y="-102" type="line"/>
      <point x="58" y="-78"/>
      <point x="77" y="-51"/>
      <point x="77" y="-3" type="curve"/>
      <point x="77" y="17"/>
      <point x="74" y="35"/>
      <point x="55" y="35" type="curve"/>
      <point x="42" y="35"/>
      <point x="35" y="28"/>
      <point x="35" y="16" type="curve"/>
      <point x="35" y="6"/>
      <point x="39" y="0"/>
      <point x="50" y="-5" type="curve"/>
      <point x="50" y="-26"/>
      <point x="40" y="-62"/>
      <point x="17" y="-85" type="curve"/>
    </contour>
  </outline>
</glyph>
<glyph name="period" format="1">
  <advance width="185"/>
  <unicode hex="002E"/>
  <outline>
    <contour>
      <point x="111" y="13" type="curve"/>
      <point x="111" y="24"/>
      <point x="104" y="30"/>
      <point x="92" y="30" type="curve"/>
      <point x="81" y="30"/>
      <point x="75" y="23"/>
      <point x="75" y="13" type="curve"/>
      <point x="111" y="13"/>
      <point x="75" y="13"/>
      <point x="111" y="13" type="curve"/>
      <point x="111" y="1"/>
      <point x="104" y="-5"/>
      <point x="92" y="-5" type="curve"/>
      <point x="81" y="-5"/>
      <point x="75" y="1"/>
      <point x="75" y="13" type="curve"/>
      <point x="111" y="13"/>
      <point x="75" y="13"/>
    </contour>
  </outline>
</glyph>
<glyph name="slash" format="1">
  <advance width="384"/>
  <unicode hex="002F"/>
  <outline>
    <contour>
      <point x="56" y="-66" type="curve"/>
      <point x="155" y="236"/>
      <point x="254" y="540"/>
      <point x="354" y="842" type="curve"/>
      <point x="329" y="842"/>
      <point x="354" y="842"/>
      <point x="329" y="842" type="curve"/>
      <point x="229" y="540"/>
      <point x="130" y="236"/>
      <point x="30" y="-66" type="curve"/>
      <point x="56" y="-66"/>
      <point x="30" y="-66"/>
    </contour>
  </outline>
</glyph>
<glyph name="zero" format="1">
  <advance width="540"/>
  <unicode hex="0030"/>
  <outline>
    <contour>
      <point x="101" y="360" type="curve"/>
      <point x="101" y="546"/>
      <point x="120" y="703"/>
      <point x="269" y="703" type="curve"/>
      <point x="421" y="703"/>
      <point x="439" y="547"/>
      <point x="439" y="363" type="curve"/>
      <point x="439" y="178"/>
      <point x="417" y="19"/>
      <point x="272" y="19" type="curve"/>
      <point x="129" y="19"/>
      <point x="101" y="175"/>
      <point x="101" y="360" type="curve"/>
      <point x="77" y="360"/>
      <point x="99" y="360"/>
      <point x="75" y="360" type="curve"/>
      <point x="75" y="160"/>
      <point x="102" y="-5"/>
      <point x="271" y="-5" type="curve"/>
      <point x="440" y="-5"/>
      <point x="465" y="162"/>
      <point x="465" y="363" type="curve"/>
      <point x="465" y="562"/>
      <point x="439" y="727"/>
      <point x="272" y="727" type="curve"/>
      <point x="102" y="727"/>
      <point x="75" y="561"/>
      <point x="75" y="360" type="curve"/>
      <point x="99" y="360"/>
      <point x="77" y="360"/>
    </contour>
  </outline>
</glyph>
<glyph name="one" format="1">
  <advance width="296"/>
  <unicode hex="0031"/>
  <outline>
    <contour>
      <point x="45" y="540" type="curve"/>
      <point x="192" y="713"/>
      <point x="45" y="540"/>
      <point x="192" y="713" type="curve"/>
      <point x="169" y="722"/>
      <point x="192" y="713"/>
      <point x="169" y="722" type="curve"/>
      <point x="28" y="556"/>
      <point x="169" y="722"/>
      <point x="28" y="556" type="curve"/>
      <point x="45" y="540"/>
      <point x="28" y="556"/>
    </contour>
    <contour>
      <point x="194" y="0" type="curve"/>
      <point x="194" y="241"/>
      <point x="194" y="481"/>
      <point x="194" y="722" type="curve"/>
      <point x="169" y="722"/>
      <point x="194" y="722"/>
      <point x="169" y="722" type="curve"/>
      <point x="169" y="481"/>
      <point x="169" y="241"/>
      <point x="169" y="0" type="curve"/>
      <point x="194" y="0"/>
      <point x="169" y="0"/>
    </contour>
  </outline>
</glyph>
<glyph name="two" format="1">
  <advance width="409"/>
  <unicode hex="0032"/>
  <outline>
    <contour>
      <point x="46" y="0" type="curve"/>
      <point x="160" y="0"/>
      <point x="244" y="0"/>
      <point x="347" y="0" type="curve"/>
      <point x="347" y="23"/>
      <point x="347" y="0"/>
      <point x="347" y="23" type="curve"/>
      <point x="240" y="23"/>
      <point x="153" y="23"/>
      <point x="46" y="23" type="curve"/>
      <point x="46" y="0"/>
      <point x="46" y="23"/>
    </contour>
    <contour>
      <point x="80" y="563" type="curve"/>
      <point x="108" y="636"/>
      <point x="133" y="703"/>
      <point x="208" y="703" type="curve"/>
      <point x="294" y="703"/>
      <point x="321" y="626"/>
      <point x="321" y="526" type="curve"/>
      <point x="321" y="406"/>
      <point x="243" y="292"/>
      <point x="205" y="237" type="curve"/>
      <point x="152" y="166"/>
      <point x="99" y="94"/>
      <point x="46" y="23" type="curve"/>
      <point x="57" y="0"/>
      <point x="46" y="23"/>
      <point x="57" y="0" type="curve"/>
      <point x="112" y="73"/>
      <point x="167" y="146"/>
      <point x="221" y="220" type="curve"/>
      <point x="264" y="279"/>
      <point x="347" y="399"/>
      <point x="347" y="527" type="curve"/>
      <point x="347" y="642"/>
      <point x="311" y="727"/>
      <point x="209" y="727" type="curve"/>
      <point x="125" y="727"/>
      <point x="86" y="657"/>
      <point x="57" y="573" type="curve"/>
      <point x="80" y="563"/>
      <point x="57" y="573"/>
    </contour>
  </outline>
</glyph>
<glyph name="three" format="1">
  <advance width="424"/>
  <unicode hex="0033"/>
  <outline>
    <contour>
      <point x="60" y="56" type="curve"/>
      <point x="100" y="20"/>
      <point x="134" y="-5"/>
      <point x="188" y="-5" type="curve"/>
      <point x="300" y="-5"/>
      <point x="353" y="73"/>
      <point x="353" y="195" type="curve"/>
      <point x="353" y="319"/>
      <point x="260" y="391"/>
      <point x="129" y="391" type="curve"/>
      <point x="129" y="383"/>
      <point x="129" y="379"/>
      <point x="129" y="371" type="curve"/>
      <point x="246" y="371"/>
      <point x="327" y="305"/>
      <point x="327" y="194" type="curve"/>
      <point x="327" y="89"/>
      <point x="274" y="19"/>
      <point x="189" y="19" type="curve"/>
      <point x="141" y="19"/>
      <point x="111" y="41"/>
      <point x="73" y="73" type="curve"/>
      <point x="60" y="56"/>
      <point x="73" y="73"/>
    </contour>
    <contour>
      <point x="82" y="627" type="curve"/>
      <point x="100" y="660"/>
      <point x="137" y="703"/>
      <point x="188" y="703" type="curve"/>
      <point x="269" y="703"/>
      <point x="304" y="640"/>
      <point x="304" y="550" type="curve"/>
      <point x="304" y="452"/>
      <point x="231" y="394"/>
      <point x="129" y="394" type="curve"/>
      <point x="129" y="386"/>
      <point x="129" y="382"/>
      <point x="129" y="375" type="curve"/>
      <point x="246" y="375"/>
      <point x="330" y="439"/>
      <point x="330" y="551" type="curve"/>
      <point x="330" y="654"/>
      <point x="285" y="727"/>
      <point x="190" y="727" type="curve"/>
      <point x="130" y="727"/>
      <point x="86" y="680"/>
      <point x="65" y="639" type="curve"/>
      <point x="82" y="627"/>
      <point x="65" y="639"/>
    </contour>
  </outline>
</glyph>
<glyph name="four" format="1">
  <advance width="446"/>
  <unicode hex="0034"/>
  <outline>
    <contour>
      <point x="49" y="277" type="line"/>
      <point x="281" y="722" type="line"/>
      <point x="256" y="722" type="line"/>
      <point x="29" y="288" type="line"/>
    </contour>
    <contour>
      <point x="404" y="288" type="line"/>
      <point x="29" y="288" type="line"/>
      <point x="29" y="265" type="line"/>
      <point x="404" y="265" type="line"/>
    </contour>
    <contour>
      <point x="281" y="0" type="line"/>
      <point x="281" y="722" type="line"/>
      <point x="256" y="722" type="line"/>
      <point x="256" y="0" type="line"/>
    </contour>
  </outline>
</glyph>
<glyph name="five" format="1">
  <advance width="409"/>
  <unicode hex="0035"/>
  <outline>
    <contour>
      <point x="93" y="722" type="curve"/>
      <point x="93" y="619"/>
      <point x="93" y="516"/>
      <point x="93" y="406" type="curve"/>
      <point x="117" y="395"/>
      <point x="93" y="406"/>
      <point x="117" y="395" type="curve"/>
      <point x="117" y="497"/>
      <point x="117" y="598"/>
      <point x="117" y="699" type="curve"/>
      <point x="93" y="722"/>
      <point x="117" y="699"/>
    </contour>
    <contour>
      <point x="117" y="395" type="curve"/>
      <point x="132" y="407"/>
      <point x="165" y="422"/>
      <point x="191" y="422" type="curve"/>
      <point x="286" y="422"/>
      <point x="318" y="330"/>
      <point x="318" y="224" type="curve"/>
      <point x="318" y="117"/>
      <point x="279" y="19"/>
      <point x="184" y="19" type="curve"/>
      <point x="139" y="19"/>
      <point x="112" y="35"/>
      <point x="72" y="63" type="curve"/>
      <point x="58" y="44"/>
      <point x="72" y="63"/>
      <point x="58" y="44" type="curve"/>
      <point x="96" y="13"/>
      <point x="134" y="-5"/>
      <point x="183" y="-5" type="curve"/>
      <point x="294" y="-5"/>
      <point x="344" y="101"/>
      <point x="344" y="224" type="curve"/>
      <point x="344" y="343"/>
      <point x="302" y="446"/>
      <point x="194" y="446" type="curve"/>
      <point x="156" y="446"/>
      <point x="114" y="430"/>
      <point x="93" y="406" type="curve"/>
      <point x="117" y="395"/>
      <point x="93" y="406"/>
    </contour>
    <contour>
      <point x="326" y="722" type="curve"/>
      <point x="245" y="722"/>
      <point x="174" y="722"/>
      <point x="93" y="722" type="curve"/>
      <point x="117" y="699"/>
      <point x="93" y="722"/>
      <point x="117" y="699" type="curve"/>
      <point x="190" y="699"/>
      <point x="253" y="699"/>
      <point x="326" y="699" type="curve"/>
      <point x="326" y="722"/>
      <point x="326" y="699"/>
    </contour>
  </outline>
</glyph>
<glyph name="six" format="1">
  <advance width="454"/>
  <unicode hex="0036"/>
  <outline>
    <contour>
      <point x="94" y="230" type="curve"/>
      <point x="106" y="301"/>
      <point x="152" y="385"/>
      <point x="236" y="385" type="curve"/>
      <point x="328" y="385"/>
      <point x="361" y="307"/>
      <point x="361" y="202" type="curve"/>
      <point x="361" y="112"/>
      <point x="328" y="19"/>
      <point x="240" y="19" type="curve"/>
      <point x="133" y="19"/>
      <point x="98" y="119"/>
      <point x="98" y="242" type="curve"/>
      <point x="98" y="464"/>
      <point x="198" y="633"/>
      <point x="393" y="713" type="curve"/>
      <point x="383" y="734"/>
      <point x="393" y="713"/>
      <point x="383" y="734" type="curve"/>
      <point x="180" y="654"/>
      <point x="72" y="480"/>
      <point x="72" y="241" type="curve"/>
      <point x="72" y="103"/>
      <point x="116" y="-5"/>
      <point x="239" y="-5" type="curve"/>
      <point x="345" y="-5"/>
      <point x="387" y="86"/>
      <point x="387" y="203" type="curve"/>
      <point x="387" y="320"/>
      <point x="344" y="409"/>
      <point x="239" y="409" type="curve"/>
      <point x="143" y="409"/>
      <point x="92" y="330"/>
      <point x="75" y="241" type="curve"/>
      <point x="92" y="230"/>
      <point x="77" y="241"/>
    </contour>
  </outline>
</glyph>
<glyph name="eight" format="1">
  <advance width="446"/>
  <unicode hex="0038"/>
  <outline>
    <contour>
      <point x="89" y="565" type="curve"/>
      <point x="89" y="471"/>
      <point x="138" y="424"/>
      <point x="215" y="369" type="curve"/>
      <point x="294" y="313"/>
      <point x="344" y="260"/>
      <point x="344" y="168" type="curve"/>
      <point x="344" y="81"/>
      <point x="305" y="19"/>
      <point x="221" y="19" type="curve"/>
      <point x="138" y="19"/>
      <point x="101" y="81"/>
      <point x="101" y="168" type="curve"/>
      <point x="101" y="262"/>
      <point x="152" y="312"/>
      <point x="232" y="369" type="curve"/>
      <point x="306" y="424"/>
      <point x="356" y="471"/>
      <point x="356" y="563" type="curve"/>
      <point x="356" y="661"/>
      <point x="316" y="727"/>
      <point x="221" y="727" type="curve"/>
      <point x="130" y="727"/>
      <point x="89" y="660"/>
      <point x="89" y="565" type="curve"/>
      <point x="114" y="565"/>
      <point x="89" y="565"/>
      <point x="114" y="565" type="curve"/>
      <point x="114" y="643"/>
      <point x="146" y="703"/>
      <point x="220" y="703" type="curve"/>
      <point x="299" y="703"/>
      <point x="331" y="645"/>
      <point x="331" y="563" type="curve"/>
      <point x="331" y="482"/>
      <point x="285" y="436"/>
      <point x="215" y="387" type="curve"/>
      <point x="130" y="325"/>
      <point x="75" y="273"/>
      <point x="75" y="168" type="curve"/>
      <point x="75" y="65"/>
      <point x="121" y="-5"/>
      <point x="220" y="-5" type="curve"/>
      <point x="320" y="-5"/>
      <point x="370" y="63"/>
      <point x="370" y="168" type="curve"/>
      <point x="370" y="272"/>
      <point x="316" y="326"/>
      <point x="232" y="387" type="curve"/>
      <point x="162" y="438"/>
      <point x="114" y="482"/>
      <point x="114" y="565" type="curve"/>
      <point x="89" y="565"/>
      <point x="114" y="565"/>
    </contour>
  </outline>
</glyph>
<glyph name="nine" format="1">
  <advance width="451"/>
  <unicode hex="0039"/>
  <outline>
    <contour>
      <point x="359" y="489" type="curve"/>
      <point x="338" y="420"/>
      <point x="302" y="337"/>
      <point x="215" y="337" type="curve"/>
      <point x="124" y="337"/>
      <point x="92" y="416"/>
      <point x="92" y="520" type="curve"/>
      <point x="92" y="620"/>
      <point x="124" y="703"/>
      <point x="211" y="703" type="curve"/>
      <point x="319" y="703"/>
      <point x="354" y="601"/>
      <point x="354" y="480" type="curve"/>
      <point x="354" y="258"/>
      <point x="269" y="100"/>
      <point x="64" y="9" type="curve"/>
      <point x="75" y="-15"/>
      <point x="64" y="9"/>
      <point x="75" y="-15" type="curve"/>
      <point x="288" y="79"/>
      <point x="380" y="242"/>
      <point x="380" y="481" type="curve"/>
      <point x="380" y="619"/>
      <point x="338" y="727"/>
      <point x="212" y="727" type="curve"/>
      <point x="106" y="727"/>
      <point x="66" y="636"/>
      <point x="66" y="519" type="curve"/>
      <point x="66" y="402"/>
      <point x="107" y="313"/>
      <point x="213" y="313" type="curve"/>
      <point x="308" y="313"/>
      <point x="347" y="385"/>
      <point x="375" y="481" type="curve"/>
      <point x="359" y="489"/>
      <point x="375" y="481"/>
    </contour>
  </outline>
</glyph>
<glyph name="colon" format="1">
  <advance width="206"/>
  <unicode hex="003A"/>
  <outline>
    <contour>
      <point x="117" y="422" type="curve"/>
      <point x="117" y="434"/>
      <point x="110" y="440"/>
      <point x="98" y="440" type="curve"/>
      <point x="87" y="440"/>
      <point x="81" y="433"/>
      <point x="81" y="422" type="curve"/>
      <point x="117" y="422"/>
      <point x="81" y="422"/>
      <point x="117" y="422" type="curve"/>
      <point x="117" y="411"/>
      <point x="110" y="405"/>
      <point x="98" y="405" type="curve"/>
      <point x="87" y="405"/>
      <point x="81" y="411"/>
      <point x="81" y="422" type="curve"/>
      <point x="117" y="422"/>
      <point x="81" y="422"/>
    </contour>
    <contour>
      <point x="117" y="14" type="curve"/>
      <point x="117" y="25"/>
      <point x="110" y="31"/>
      <point x="98" y="31" type="curve"/>
      <point x="87" y="31"/>
      <point x="81" y="24"/>
      <point x="81" y="14" type="curve"/>
      <point x="117" y="14"/>
      <point x="81" y="14"/>
      <point x="117" y="14" type="curve"/>
      <point x="117" y="2"/>
      <point x="110" y="-4"/>
      <point x="98" y="-4" type="curve"/>
      <point x="87" y="-4"/>
      <point x="81" y="2"/>
      <point x="81" y="14" type="curve"/>
      <point x="117" y="14"/>
      <point x="81" y="14"/>
    </contour>
  </outline>
</glyph>
<glyph name="semicolon" format="1">
  <advance width="148"/>
  <unicode hex="003B"/>
  <outline>
    <contour>
      <point x="51" y="-103" type="line"/>
      <point x="75" y="-79"/>
      <point x="95" y="-52"/>
      <point x="95" y="-4" type="curve"/>
      <point x="95" y="16"/>
      <point x="92" y="34"/>
      <point x="73" y="34" type="curve"/>
      <point x="60" y="34"/>
      <point x="53" y="27"/>
      <point x="53" y="15" type="curve"/>
      <point x="53" y="5"/>
      <point x="57" y="-1"/>
      <point x="68" y="-6" type="curve"/>
      <point x="68" y="-27"/>
      <point x="58" y="-63"/>
      <point x="35" y="-86" type="curve"/>
    </contour>
    <contour>
      <point x="93" y="427" type="curve"/>
      <point x="93" y="439"/>
      <point x="86" y="445"/>
      <point x="74" y="445" type="curve"/>
      <point x="63" y="445"/>
      <point x="57" y="438"/>
      <point x="57" y="427" type="curve"/>
      <point x="93" y="427"/>
      <point x="57" y="427"/>
      <point x="93" y="427" type="curve"/>
      <point x="93" y="416"/>
      <point x="86" y="410"/>
      <point x="74" y="410" type="curve"/>
      <point x="63" y="410"/>
      <point x="57" y="416"/>
      <point x="57" y="427" type="curve"/>
      <point x="93" y="427"/>
      <point x="57" y="427"/>
    </contour>
  </outline>
</glyph>
<glyph name="equal" format="1">
  <advance width="549"/>
  <unicode hex="003D"/>
  <outline>
    <contour>
      <point x="67" y="206" type="curve"/>
      <point x="213" y="206"/>
      <point x="360" y="206"/>
      <point x="507" y="206" type="curve"/>
      <point x="507" y="229"/>
      <point x="507" y="206"/>
      <point x="507" y="229" type="curve"/>
      <point x="360" y="229"/>
      <point x="213" y="229"/>
      <point x="67" y="229" type="curve"/>
      <point x="67" y="206"/>
      <point x="67" y="229"/>
    </contour>
    <contour>
      <point x="67" y="428" type="curve"/>
      <point x="213" y="428"/>
      <point x="360" y="428"/>
      <point x="507" y="428" type="curve"/>
      <point x="507" y="451"/>
      <point x="507" y="428"/>
      <point x="507" y="451" type="curve"/>
      <point x="360" y="451"/>
      <point x="213" y="451"/>
      <point x="67" y="451" type="curve"/>
      <point x="67" y="428"/>
      <point x="67" y="451"/>
    </contour>
  </outline>
</glyph>
<glyph name="greater" format="1">
  <advance width="531"/>
  <unicode hex="003E"/>
  <outline>
    <contour>
      <point x="64" y="24" type="curve"/>
      <point x="206" y="114"/>
      <point x="348" y="204"/>
      <point x="490" y="294" type="curve"/>
      <point x="490" y="318"/>
      <point x="490" y="294"/>
      <point x="490" y="318" type="curve"/>
      <point x="348" y="228"/>
      <point x="206" y="138"/>
      <point x="64" y="48" type="curve"/>
      <point x="64" y="24"/>
      <point x="64" y="48"/>
    </contour>
    <contour>
      <point x="57" y="558" type="curve"/>
      <point x="201" y="470"/>
      <point x="346" y="382"/>
      <point x="490" y="294" type="curve"/>
      <point x="490" y="318"/>
      <point x="490" y="294"/>
      <point x="490" y="318" type="curve"/>
      <point x="346" y="406"/>
      <point x="201" y="494"/>
      <point x="57" y="582" type="curve"/>
      <point x="57" y="558"/>
      <point x="57" y="582"/>
    </contour>
  </outline>
</glyph>
<glyph name="question" format="1">
  <advance width="393"/>
  <unicode hex="003F"/>
  <outline>
    <contour>
      <point x="166" y="334" type="curve"/>
      <point x="166" y="297"/>
      <point x="166" y="258"/>
      <point x="166" y="221" type="curve"/>
      <point x="191" y="221"/>
      <point x="166" y="221"/>
      <point x="191" y="221" type="curve"/>
      <point x="191" y="258"/>
      <point x="191" y="297"/>
      <point x="191" y="334" type="curve"/>
      <point x="166" y="334"/>
      <point x="191" y="334"/>
    </contour>
    <contour>
      <point x="77" y="621" type="line"/>
      <point x="96" y="657"/>
      <point x="128" y="686"/>
      <point x="179" y="686" type="curve"/>
      <point x="266" y="686"/>
      <point x="302" y="612"/>
      <point x="302" y="519" type="curve"/>
      <point x="302" y="418"/>
      <point x="263" y="334"/>
      <point x="171" y="334" type="curve"/>
      <point x="171" y="311"/>
      <point x="171" y="334"/>
      <point x="171" y="311" type="curve"/>
      <point x="278" y="311"/>
      <point x="328" y="404"/>
      <point x="328" y="519" type="curve"/>
      <point x="328" y="624"/>
      <point x="280" y="710"/>
      <point x="181" y="710" type="curve"/>
      <point x="116" y="710"/>
      <point x="82" y="676"/>
      <point x="59" y="633" type="curve"/>
    </contour>
    <contour>
      <point x="196" y="13" type="curve"/>
      <point x="196" y="24"/>
      <point x="189" y="30"/>
      <point x="178" y="30" type="curve"/>
      <point x="166" y="30"/>
      <point x="160" y="23"/>
      <point x="160" y="13" type="curve"/>
      <point x="196" y="13"/>
      <point x="160" y="13"/>
      <point x="196" y="13" type="curve"/>
      <point x="196" y="1"/>
      <point x="189" y="-5"/>
      <point x="178" y="-5" type="curve"/>
      <point x="166" y="-5"/>
      <point x="160" y="1"/>
      <point x="160" y="13" type="curve"/>
      <point x="196" y="13"/>
      <point x="160" y="13"/>
    </contour>
  </outline>
</glyph>
<glyph name="at" format="1">
  <advance width="629"/>
  <unicode hex="0040"/>
  <outline>
    <contour>
      <point x="430" y="-103" type="curve"/>
      <point x="395" y="-131"/>
      <point x="366" y="-140"/>
      <point x="322" y="-140" type="curve"/>
      <point x="153" y="-140"/>
      <point x="95" y="2"/>
      <point x="95" y="189" type="curve"/>
      <point x="95" y="373"/>
      <point x="155" y="514"/>
      <point x="319" y="514" type="curve"/>
      <point x="474" y="514"/>
      <point x="528" y="379"/>
      <point x="528" y="208" type="curve"/>
      <point x="528" y="122"/>
      <point x="527" y="44"/>
      <point x="477" y="44" type="curve"/>
      <point x="417" y="44"/>
      <point x="417" y="116"/>
      <point x="417" y="194" type="curve"/>
      <point x="417" y="290"/>
      <point x="395" y="367"/>
      <point x="310" y="367" type="curve"/>
      <point x="223" y="367"/>
      <point x="195" y="292"/>
      <point x="195" y="195" type="curve"/>
      <point x="195" y="92"/>
      <point x="217" y="11"/>
      <point x="307" y="11" type="curve"/>
      <point x="391" y="11"/>
      <point x="405" y="90"/>
      <point x="413" y="184" type="curve"/>
      <point x="398" y="186"/>
      <point x="413" y="184"/>
      <point x="398" y="186" type="curve"/>
      <point x="385" y="111"/>
      <point x="373" y="34"/>
      <point x="311" y="34" type="curve"/>
      <point x="232" y="34"/>
      <point x="219" y="107"/>
      <point x="219" y="196" type="curve"/>
      <point x="219" y="280"/>
      <point x="236" y="345"/>
      <point x="307" y="345" type="curve"/>
      <point x="380" y="345"/>
      <point x="394" y="277"/>
      <point x="394" y="193" type="curve"/>
      <point x="394" y="102"/>
      <point x="395" y="23"/>
      <point x="475" y="23" type="curve"/>
      <point x="557" y="23"/>
      <point x="554" y="109"/>
      <point x="554" y="209" type="curve"/>
      <point x="554" y="397"/>
      <point x="495" y="538"/>
      <point x="321" y="538" type="curve"/>
      <point x="138" y="538"/>
      <point x="69" y="389"/>
      <point x="69" y="188" type="curve"/>
      <point x="69" y="-13"/>
      <point x="137" y="-163"/>
      <point x="319" y="-163" type="curve"/>
      <point x="370" y="-163"/>
      <point x="403" y="-154"/>
      <point x="442" y="-124" type="curve"/>
      <point x="430" y="-103"/>
      <point x="442" y="-124"/>
    </contour>
  </outline>
</glyph>
<glyph name="B" format="1">
  <advance width="498"/>
  <unicode hex="0042"/>
  <outline>
    <contour>
      <point x="133" y="699" type="curve"/>
      <point x="177" y="699"/>
      <point x="206" y="699"/>
      <point x="250" y="699" type="curve"/>
      <point x="333" y="699"/>
      <point x="375" y="641"/>
      <point x="375" y="555" type="curve"/>
      <point x="375" y="474"/>
      <point x="334" y="421"/>
      <point x="257" y="421" type="curve"/>
      <point x="210" y="421"/>
      <point x="180" y="421"/>
      <point x="133" y="421" type="curve"/>
      <point x="133" y="413"/>
      <point x="133" y="407"/>
      <point x="133" y="398" type="curve"/>
      <point x="175" y="398"/>
      <point x="206" y="398"/>
      <point x="248" y="398" type="curve"/>
      <point x="345" y="398"/>
      <point x="400" y="457"/>
      <point x="400" y="555" type="curve"/>
      <point x="400" y="656"/>
      <point x="348" y="722"/>
      <point x="250" y="722" type="curve"/>
      <point x="206" y="722"/>
      <point x="177" y="722"/>
      <point x="133" y="722" type="curve"/>
      <point x="133" y="714"/>
      <point x="133" y="707"/>
    </contour>
    <contour>
      <point x="155" y="0" type="curve"/>
      <point x="155" y="241"/>
      <point x="155" y="481"/>
      <point x="155" y="722" type="curve"/>
      <point x="127" y="722"/>
      <point x="155" y="722"/>
      <point x="127" y="722" type="curve"/>
      <point x="127" y="481"/>
      <point x="128" y="241"/>
      <point x="127" y="0" type="curve"/>
      <point x="155" y="0"/>
      <point x="127" y="0"/>
    </contour>
    <contour>
      <point x="133" y="398" type="curve"/>
      <point x="180" y="398"/>
      <point x="210" y="398"/>
      <point x="257" y="398" type="curve"/>
      <point x="362" y="398"/>
      <point x="408" y="318"/>
      <point x="408" y="204" type="curve"/>
      <point x="408" y="96"/>
      <point x="355" y="23"/>
      <point x="251" y="23" type="curve"/>
      <point x="206" y="23"/>
      <point x="178" y="23"/>
      <point x="133" y="23" type="curve"/>
      <point x="133" y="15"/>
      <point x="133" y="8"/>
      <point x="133" y="0" type="curve"/>
      <point x="178" y="0"/>
      <point x="206" y="0"/>
      <point x="251" y="0" type="curve"/>
      <point x="370" y="0"/>
      <point x="433" y="81"/>
      <point x="433" y="204" type="curve"/>
      <point x="433" y="334"/>
      <point x="373" y="421"/>
      <point x="249" y="421" type="curve"/>
      <point x="207" y="421"/>
      <point x="175" y="421"/>
      <point x="133" y="421" type="curve"/>
      <point x="133" y="413"/>
      <point x="133" y="407"/>
    </contour>
  </outline>
</glyph>
<glyph name="D" format="1">
  <advance width="579"/>
  <unicode hex="0044"/>
  <outline>
    <contour>
      <point x="127" y="722" type="curve"/>
      <point x="127" y="481"/>
      <point x="127" y="241"/>
      <point x="127" y="0" type="curve"/>
      <point x="153" y="0"/>
      <point x="127" y="0"/>
      <point x="153" y="0" type="curve"/>
      <point x="153" y="241"/>
      <point x="153" y="481"/>
      <point x="153" y="722" type="curve"/>
      <point x="127" y="722"/>
      <point x="153" y="722"/>
    </contour>
    <contour>
      <point x="141" y="0" type="curve"/>
      <point x="186" y="0"/>
      <point x="214" y="0"/>
      <point x="259" y="0" type="curve"/>
      <point x="442" y="0"/>
      <point x="506" y="153"/>
      <point x="506" y="356" type="curve"/>
      <point x="506" y="565"/>
      <point x="438" y="722"/>
      <point x="250" y="722" type="curve"/>
      <point x="209" y="722"/>
      <point x="182" y="722"/>
      <point x="141" y="722" type="curve"/>
      <point x="141" y="713"/>
      <point x="141" y="708"/>
      <point x="141" y="699" type="curve"/>
      <point x="182" y="699"/>
      <point x="208" y="699"/>
      <point x="249" y="699" type="curve"/>
      <point x="423" y="699"/>
      <point x="481" y="551"/>
      <point x="481" y="355" type="curve"/>
      <point x="481" y="167"/>
      <point x="428" y="23"/>
      <point x="261" y="23" type="curve"/>
      <point x="216" y="23"/>
      <point x="186" y="23"/>
      <point x="141" y="23" type="curve"/>
      <point x="141" y="14"/>
      <point x="141" y="9"/>
    </contour>
    <contour>
      <point x="235" y="824" type="move" name="top"/>
    </contour>
  </outline>
</glyph>
<glyph name="E" format="1">
  <advance width="466"/>
  <unicode hex="0045"/>
  <outline>
    <contour>
      <point x="143" y="363" type="curve"/>
      <point x="220" y="363"/>
      <point x="296" y="363"/>
      <point x="373" y="363" type="curve"/>
      <point x="373" y="385"/>
      <point x="373" y="363"/>
      <point x="373" y="385" type="curve"/>
      <point x="296" y="385"/>
      <point x="220" y="385"/>
      <point x="143" y="385" type="curve"/>
      <point x="143" y="363"/>
      <point x="143" y="385"/>
    </contour>
    <contour>
      <point x="133" y="699" type="curve"/>
      <point x="228" y="699"/>
      <point x="322" y="699"/>
      <point x="417" y="699" type="curve"/>
      <point x="417" y="722"/>
      <point x="417" y="699"/>
      <point x="417" y="722" type="curve"/>
      <point x="322" y="722"/>
      <point x="228" y="722"/>
      <point x="133" y="722" type="curve"/>
      <point x="133" y="699"/>
      <point x="133" y="722"/>
    </contour>
    <contour>
      <point x="153" y="0" type="curve"/>
      <point x="153" y="722" type="line"/>
      <point x="127" y="722"/>
      <point x="153" y="722"/>
      <point x="127" y="722" type="curve"/>
      <point x="127" y="481"/>
      <point x="127" y="241"/>
      <point x="127" y="0" type="curve"/>
      <point x="153" y="0"/>
      <point x="127" y="0"/>
    </contour>
    <contour>
      <point x="133" y="0" type="curve"/>
      <point x="236" y="0"/>
      <point x="338" y="0"/>
      <point x="441" y="0" type="curve"/>
      <point x="441" y="23"/>
      <point x="441" y="0"/>
      <point x="441" y="23" type="curve"/>
      <point x="338" y="23"/>
      <point x="236" y="23"/>
      <point x="133" y="23" type="curve"/>
      <point x="133" y="0"/>
      <point x="133" y="23"/>
    </contour>
    <contour>
      <point x="241" y="825" type="move" name="top"/>
    </contour>
    <contour>
      <point x="441" y="0" type="move" name="bottom"/>
    </contour>
  </outline>
</glyph>
<glyph name="F" format="1">
  <advance width="440"/>
  <unicode hex="0046"/>
  <outline>
    <contour>
      <point x="143" y="363" type="curve"/>
      <point x="218" y="363"/>
      <point x="293" y="363"/>
      <point x="368" y="363" type="curve"/>
      <point x="368" y="385"/>
      <point x="368" y="363"/>
      <point x="368" y="385" type="curve"/>
      <point x="293" y="385"/>
      <point x="218" y="385"/>
      <point x="143" y="385" type="curve"/>
      <point x="143" y="363"/>
      <point x="143" y="385"/>
    </contour>
    <contour>
      <point x="153" y="0" type="curve"/>
      <point x="153" y="722" type="line"/>
      <point x="127" y="722"/>
      <point x="153" y="722"/>
      <point x="127" y="722" type="curve"/>
      <point x="127" y="481"/>
      <point x="127" y="241"/>
      <point x="127" y="0" type="curve"/>
      <point x="153" y="0"/>
      <point x="127" y="0"/>
    </contour>
    <contour>
      <point x="132" y="699" type="curve"/>
      <point x="228" y="699"/>
      <point x="323" y="699"/>
      <point x="419" y="699" type="curve"/>
      <point x="419" y="722"/>
      <point x="419" y="699"/>
      <point x="419" y="722" type="curve"/>
      <point x="323" y="722"/>
      <point x="228" y="722"/>
      <point x="132" y="722" type="curve"/>
      <point x="132" y="699"/>
      <point x="132" y="722"/>
    </contour>
  </outline>
</glyph>
<glyph name="G" format="1">
  <advance width="590"/>
  <unicode hex="0047"/>
  <outline>
    <contour>
      <point x="507" y="320" type="curve"/>
      <point x="455" y="320"/>
      <point x="403" y="320"/>
      <point x="352" y="320" type="curve"/>
      <point x="352" y="297"/>
      <point x="352" y="320"/>
      <point x="352" y="297" type="curve"/>
      <point x="403" y="297"/>
      <point x="455" y="297"/>
      <point x="507" y="297" type="curve"/>
      <point x="507" y="320"/>
      <point x="507" y="297"/>
    </contour>
    <contour>
      <point x="515" y="77" type="curve"/>
      <point x="515" y="158"/>
      <point x="515" y="238"/>
      <point x="515" y="320" type="curve"/>
      <point x="492" y="320"/>
      <point x="515" y="320"/>
      <point x="492" y="320" type="curve"/>
      <point x="492" y="238"/>
      <point x="492" y="158"/>
      <point x="492" y="77" type="curve"/>
      <point x="515" y="77"/>
      <point x="492" y="77"/>
    </contour>
    <contour>
      <point x="503" y="642" type="curve"/>
      <point x="445" y="696"/>
      <point x="386" y="727"/>
      <point x="306" y="727" type="curve"/>
      <point x="127" y="727"/>
      <point x="72" y="570"/>
      <point x="72" y="365" type="curve"/>
      <point x="72" y="154"/>
      <point x="130" y="-5"/>
      <point x="314" y="-5" type="curve"/>
      <point x="399" y="-5"/>
      <point x="450" y="24"/>
      <point x="515" y="77" type="curve"/>
      <point x="499" y="98"/>
      <point x="515" y="77"/>
      <point x="499" y="98" type="curve"/>
      <point x="455" y="56"/>
      <point x="391" y="20"/>
      <point x="314" y="20" type="curve"/>
      <point x="144" y="20"/>
      <point x="98" y="172"/>
      <point x="98" y="367" type="curve"/>
      <point x="98" y="554"/>
      <point x="144" y="702"/>
      <point x="306" y="702" type="curve"/>
      <point x="380" y="702"/>
      <point x="435" y="673"/>
      <point x="490" y="623" type="curve"/>
      <point x="503" y="642"/>
      <point x="490" y="623"/>
    </contour>
    <contour>
      <point x="304" y="825" type="move" name="top"/>
    </contour>
    <contour>
      <point x="315" y="-79" type="move" name="bottom"/>
    </contour>
  </outline>
</glyph>
<glyph name="H" format="1">
  <advance width="633"/>
  <unicode hex="0048"/>
  <outline>
    <contour>
      <point x="153" y="0" type="curve"/>
      <point x="153" y="722" type="line"/>
      <point x="127" y="722"/>
      <point x="153" y="722"/>
      <point x="127" y="722" type="curve"/>
      <point x="127" y="481"/>
      <point x="127" y="241"/>
      <point x="127" y="0" type="curve"/>
      <point x="153" y="0"/>
      <point x="127" y="0"/>
    </contour>
    <contour>
      <point x="492" y="374" type="curve"/>
      <point x="374" y="374"/>
      <point x="257" y="374"/>
      <point x="140" y="374" type="curve"/>
      <point x="140" y="352"/>
      <point x="140" y="374"/>
      <point x="140" y="352" type="curve"/>
      <point x="257" y="352"/>
      <point x="374" y="352"/>
      <point x="492" y="352" type="curve"/>
      <point x="492" y="374"/>
      <point x="492" y="352"/>
    </contour>
    <contour>
      <point x="506" y="1" type="curve"/>
      <point x="506" y="241"/>
      <point x="506" y="481"/>
      <point x="506" y="721" type="curve"/>
      <point x="481" y="721"/>
      <point x="506" y="721"/>
      <point x="481" y="721" type="curve"/>
      <point x="481" y="1" type="line"/>
      <point x="506" y="1"/>
      <point x="481" y="1"/>
    </contour>
  </outline>
</glyph>
<glyph name="I" format="1">
  <advance width="280"/>
  <unicode hex="0049"/>
  <outline>
    <contour>
      <point x="153" y="0" type="curve"/>
      <point x="153" y="241"/>
      <point x="153" y="481"/>
      <point x="153" y="722" type="curve"/>
      <point x="127" y="722"/>
      <point x="153" y="722"/>
      <point x="127" y="722" type="curve"/>
      <point x="127" y="481"/>
      <point x="127" y="241"/>
      <point x="127" y="0" type="curve"/>
      <point x="153" y="0"/>
      <point x="127" y="0"/>
    </contour>
    <contour>
      <point x="141" y="825" type="move" name="top"/>
    </contour>
    <contour>
      <point x="152" y="0" type="move" name="bottom"/>
    </contour>
  </outline>
</glyph>
<glyph name="J" format="1">
  <advance width="354"/>
  <unicode hex="004A"/>
  <outline>
    <contour>
      <point x="16" y="38" type="curve"/>
      <point x="41" y="14"/>
      <point x="68" y="-5"/>
      <point x="107" y="-5" type="curve"/>
      <point x="213" y="-5"/>
      <point x="236" y="83"/>
      <point x="236" y="214" type="curve"/>
      <point x="236" y="406"/>
      <point x="236" y="530"/>
      <point x="236" y="722" type="curve"/>
      <point x="225" y="722"/>
      <point x="221" y="722"/>
      <point x="211" y="722" type="curve"/>
      <point x="211" y="530"/>
      <point x="211" y="406"/>
      <point x="211" y="214" type="curve"/>
      <point x="211" y="107"/>
      <point x="200" y="18"/>
      <point x="107" y="18" type="curve"/>
      <point x="73" y="18"/>
      <point x="50" y="37"/>
      <point x="29" y="56" type="curve"/>
      <point x="24" y="49"/>
      <point x="21" y="45"/>
    </contour>
  </outline>
</glyph>
<glyph name="K" format="1">
  <advance width="442"/>
  <unicode hex="004B"/>
  <outline>
    <contour>
      <point x="389" y="722" type="curve"/>
      <point x="138" y="380" type="line"/>
      <point x="173" y="380"/>
      <point x="134" y="380"/>
      <point x="169" y="380" type="curve"/>
      <point x="424" y="722" type="line"/>
      <point x="385" y="722"/>
      <point x="428" y="722"/>
    </contour>
    <contour>
      <point x="153" y="0" type="curve"/>
      <point x="153" y="722" type="line"/>
      <point x="127" y="722"/>
      <point x="153" y="722"/>
      <point x="127" y="722" type="curve"/>
      <point x="127" y="481"/>
      <point x="127" y="241"/>
      <point x="127" y="0" type="curve"/>
      <point x="153" y="0"/>
      <point x="127" y="0"/>
    </contour>
    <contour>
      <point x="439" y="0" type="curve"/>
      <point x="169" y="380" type="line"/>
      <point x="134" y="380"/>
      <point x="173" y="380"/>
      <point x="138" y="380" type="curve"/>
      <point x="405" y="0" type="line"/>
      <point x="442" y="0"/>
      <point x="402" y="0"/>
    </contour>
    <contour>
      <point x="294" y="-79" type="move" name="bottom"/>
    </contour>
  </outline>
</glyph>
<glyph name="L" format="1">
  <advance width="445"/>
  <unicode hex="004C"/>
  <outline>
    <contour>
      <point x="153" y="0" type="curve"/>
      <point x="153" y="241"/>
      <point x="153" y="481"/>
      <point x="153" y="722" type="curve"/>
      <point x="127" y="722"/>
      <point x="153" y="722"/>
      <point x="127" y="722" type="curve"/>
      <point x="127" y="481"/>
      <point x="127" y="241"/>
      <point x="127" y="0" type="curve"/>
      <point x="153" y="0"/>
      <point x="127" y="0"/>
    </contour>
    <contour>
      <point x="139" y="0" type="curve"/>
      <point x="238" y="0"/>
      <point x="336" y="0"/>
      <point x="435" y="0" type="curve"/>
      <point x="435" y="23"/>
      <point x="435" y="0"/>
      <point x="435" y="23" type="curve"/>
      <point x="336" y="23"/>
      <point x="238" y="23"/>
      <point x="139" y="23" type="curve"/>
      <point x="139" y="0"/>
      <point x="139" y="23"/>
    </contour>
    <contour>
      <point x="141" y="825" type="move" name="top"/>
    </contour>
    <contour>
      <point x="250" y="-79" type="move" name="bottom"/>
    </contour>
  </outline>
</glyph>
<glyph name="M" format="1">
  <advance width="688"/>
  <unicode hex="004D"/>
  <outline>
    <contour>
      <point x="599" y="0" type="curve"/>
      <point x="584" y="241"/>
      <point x="570" y="481"/>
      <point x="555" y="722" type="curve"/>
      <point x="532" y="722"/>
      <point x="555" y="722"/>
      <point x="532" y="722" type="curve"/>
      <point x="546" y="481"/>
      <point x="560" y="241"/>
      <point x="574" y="0" type="curve"/>
      <point x="599" y="0"/>
      <point x="574" y="0"/>
    </contour>
    <contour>
      <point x="117" y="0" type="curve"/>
      <point x="130" y="241"/>
      <point x="143" y="481"/>
      <point x="156" y="722" type="curve"/>
      <point x="133" y="722"/>
      <point x="156" y="722"/>
      <point x="133" y="722" type="curve"/>
      <point x="119" y="481"/>
      <point x="105" y="241"/>
      <point x="91" y="0" type="curve"/>
      <point x="117" y="0"/>
      <point x="91" y="0"/>
    </contour>
    <contour>
      <point x="355" y="0" type="curve"/>
      <point x="289" y="241"/>
      <point x="223" y="481"/>
      <point x="158" y="722" type="curve"/>
      <point x="134" y="722"/>
      <point x="158" y="722"/>
      <point x="134" y="722" type="curve"/>
      <point x="200" y="481"/>
      <point x="265" y="241"/>
      <point x="330" y="0" type="curve"/>
      <point x="355" y="0"/>
      <point x="330" y="0"/>
    </contour>
    <contour>
      <point x="362" y="0" type="curve"/>
      <point x="426" y="241"/>
      <point x="490" y="481"/>
      <point x="554" y="722" type="curve"/>
      <point x="531" y="722"/>
      <point x="554" y="722"/>
      <point x="531" y="722" type="curve"/>
      <point x="466" y="481"/>
      <point x="401" y="241"/>
      <point x="336" y="0" type="curve"/>
      <point x="362" y="0"/>
      <point x="336" y="0"/>
    </contour>
  </outline>
</glyph>
<glyph name="P" format="1">
  <advance width="465"/>
  <unicode hex="0050"/>
  <outline>
    <contour>
      <point x="138" y="325" type="curve"/>
      <point x="170" y="300"/>
      <point x="206" y="280"/>
      <point x="249" y="280" type="curve"/>
      <point x="357" y="282"/>
      <point x="407" y="369"/>
      <point x="407" y="494" type="curve"/>
      <point x="407" y="621"/>
      <point x="350" y="722"/>
      <point x="233" y="722" type="curve"/>
      <point x="203" y="722"/>
      <point x="173" y="722"/>
      <point x="143" y="722" type="curve"/>
      <point x="143" y="699"/>
      <point x="143" y="722"/>
      <point x="143" y="699" type="curve"/>
      <point x="172" y="699"/>
      <point x="201" y="699"/>
      <point x="230" y="699" type="curve"/>
      <point x="335" y="699"/>
      <point x="382" y="607"/>
      <point x="382" y="493" type="curve"/>
      <point x="382" y="388"/>
      <point x="343" y="304"/>
      <point x="250" y="304" type="curve"/>
      <point x="207" y="304"/>
      <point x="180" y="320"/>
      <point x="146" y="346" type="curve"/>
      <point x="138" y="326"/>
      <point x="146" y="345"/>
    </contour>
    <contour>
      <point x="153" y="0" type="curve"/>
      <point x="153" y="241"/>
      <point x="153" y="481"/>
      <point x="153" y="722" type="curve"/>
      <point x="127" y="722"/>
      <point x="153" y="722"/>
      <point x="127" y="722" type="curve"/>
      <point x="127" y="481"/>
      <point x="127" y="241"/>
      <point x="127" y="0" type="curve"/>
      <point x="153" y="0"/>
      <point x="127" y="0"/>
    </contour>
  </outline>
</glyph>
<glyph name="Q" format="1">
  <advance width="642"/>
  <unicode hex="0051"/>
  <outline>
    <contour>
      <point x="283" y="4" type="curve"/>
      <point x="342" y="-151"/>
      <point x="418" y="-240"/>
      <point x="572" y="-240" type="curve"/>
      <point x="572" y="-216"/>
      <point x="572" y="-240"/>
      <point x="572" y="-216" type="curve"/>
      <point x="430" y="-216"/>
      <point x="361" y="-130"/>
      <point x="305" y="16" type="curve"/>
      <point x="283" y="4"/>
      <point x="305" y="16"/>
    </contour>
    <contour>
      <point x="97" y="360" type="curve"/>
      <point x="97" y="543"/>
      <point x="129" y="703"/>
      <point x="286" y="703" type="curve"/>
      <point x="443" y="703"/>
      <point x="478" y="545"/>
      <point x="478" y="363" type="curve"/>
      <point x="478" y="180"/>
      <point x="447" y="20"/>
      <point x="289" y="20" type="curve"/>
      <point x="131" y="20"/>
      <point x="97" y="177"/>
      <point x="97" y="360" type="curve"/>
      <point x="72" y="360"/>
      <point x="97" y="360"/>
      <point x="72" y="360" type="curve"/>
      <point x="72" y="162"/>
      <point x="116" y="-5"/>
      <point x="288" y="-5" type="curve"/>
      <point x="462" y="-5"/>
      <point x="503" y="165"/>
      <point x="503" y="364" type="curve"/>
      <point x="503" y="561"/>
      <point x="460" y="727"/>
      <point x="288" y="727" type="curve"/>
      <point x="116" y="727"/>
      <point x="72" y="558"/>
      <point x="72" y="360" type="curve"/>
      <point x="97" y="360"/>
      <point x="72" y="360"/>
    </contour>
  </outline>
</glyph>
<glyph name="R" format="1">
  <advance width="481"/>
  <unicode hex="0052"/>
  <outline>
    <contour>
      <point x="269" y="354" type="curve"/>
      <point x="329" y="236"/>
      <point x="390" y="118"/>
      <point x="449" y="0" type="curve"/>
      <point x="479" y="0"/>
      <point x="447" y="0"/>
      <point x="477" y="0" type="curve"/>
      <point x="418" y="118"/>
      <point x="358" y="236"/>
      <point x="298" y="354" type="curve"/>
      <point x="267" y="354"/>
      <point x="300" y="354"/>
    </contour>
    <contour>
      <point x="153" y="0" type="curve"/>
      <point x="153" y="241"/>
      <point x="153" y="481"/>
      <point x="153" y="722" type="curve"/>
      <point x="127" y="722"/>
      <point x="153" y="722"/>
      <point x="127" y="722" type="curve"/>
      <point x="127" y="481"/>
      <point x="127" y="241"/>
      <point x="127" y="0" type="curve"/>
      <point x="153" y="0"/>
      <point x="127" y="0"/>
    </contour>
    <contour>
      <point x="142" y="340" type="curve"/>
      <point x="181" y="340"/>
      <point x="220" y="340"/>
      <point x="260" y="340" type="curve"/>
      <point x="368" y="340"/>
      <point x="419" y="420"/>
      <point x="419" y="537" type="curve"/>
      <point x="419" y="650"/>
      <point x="365" y="722"/>
      <point x="257" y="722" type="curve"/>
      <point x="215" y="722"/>
      <point x="183" y="722"/>
      <point x="142" y="722" type="curve"/>
      <point x="142" y="699"/>
      <point x="142" y="722"/>
      <point x="142" y="699" type="curve"/>
      <point x="182" y="699"/>
      <point x="212" y="699"/>
      <point x="253" y="699" type="curve"/>
      <point x="348" y="699"/>
      <point x="393" y="634"/>
      <point x="393" y="535" type="curve"/>
      <point x="393" y="434"/>
      <point x="355" y="362"/>
      <point x="263" y="362" type="curve"/>
      <point x="223" y="362"/>
      <point x="182" y="362"/>
      <point x="142" y="362" type="curve"/>
      <point x="142" y="340"/>
      <point x="142" y="362"/>
    </contour>
    <contour>
      <point x="230" y="825" type="move" name="top"/>
    </contour>
    <contour>
      <point x="286" y="-79" type="move" name="bottom"/>
    </contour>
  </outline>
</glyph>
<glyph name="T" format="1">
  <advance width="454"/>
  <unicode hex="0054"/>
  <outline>
    <contour>
      <point x="240" y="0" type="curve"/>
      <point x="240" y="237"/>
      <point x="240" y="473"/>
      <point x="240" y="710" type="curve"/>
      <point x="215" y="710"/>
      <point x="240" y="710"/>
      <point x="215" y="710" type="curve"/>
      <point x="215" y="473"/>
      <point x="215" y="237"/>
      <point x="215" y="0" type="curve"/>
      <point x="240" y="0"/>
      <point x="215" y="0"/>
    </contour>
    <contour>
      <point x="10" y="697" type="curve"/>
      <point x="155" y="697"/>
      <point x="300" y="697"/>
      <point x="444" y="697" type="curve"/>
      <point x="444" y="722"/>
      <point x="444" y="697"/>
      <point x="444" y="722" type="curve"/>
      <point x="300" y="722"/>
      <point x="155" y="722"/>
      <point x="10" y="722" type="curve"/>
      <point x="10" y="697"/>
      <point x="10" y="722"/>
    </contour>
    <contour>
      <point x="227" y="825" type="move" name="top"/>
    </contour>
    <contour>
      <point x="228" y="-79" type="move" name="bottom"/>
    </contour>
  </outline>
</glyph>
<glyph name="V" format="1">
  <advance width="457"/>
  <unicode hex="0056"/>
  <outline>
    <contour>
      <point x="412" y="722" type="curve"/>
      <point x="347" y="481"/>
      <point x="282" y="241"/>
      <point x="217" y="0" type="curve"/>
      <point x="245" y="0"/>
      <point x="217" y="0"/>
      <point x="245" y="0" type="curve"/>
      <point x="310" y="241"/>
      <point x="374" y="481"/>
      <point x="439" y="722" type="curve"/>
      <point x="412" y="722"/>
      <point x="439" y="722"/>
    </contour>
    <contour>
      <point x="15" y="722" type="curve"/>
      <point x="81" y="481"/>
      <point x="147" y="241"/>
      <point x="213" y="0" type="curve"/>
      <point x="241" y="0"/>
      <point x="213" y="0"/>
      <point x="241" y="0" type="curve"/>
      <point x="175" y="241"/>
      <point x="109" y="481"/>
      <point x="44" y="722" type="curve"/>
      <point x="15" y="722"/>
      <point x="44" y="722"/>
    </contour>
  </outline>
</glyph>
<glyph name="W" format="1">
  <advance width="620"/>
  <unicode hex="0057"/>
  <outline>
    <contour>
      <point x="185" y="0" type="curve"/>
      <point x="232" y="241"/>
      <point x="278" y="481"/>
      <point x="325" y="722" type="curve"/>
      <point x="301" y="722"/>
      <point x="326" y="722"/>
      <point x="302" y="722" type="curve"/>
      <point x="257" y="481"/>
      <point x="210" y="241"/>
      <point x="165" y="0" type="curve"/>
      <point x="184" y="0"/>
      <point x="166" y="0"/>
    </contour>
    <contour>
      <point x="308" y="722" type="curve"/>
      <point x="351" y="481"/>
      <point x="392" y="241"/>
      <point x="435" y="0" type="curve"/>
      <point x="454" y="0"/>
      <point x="436" y="0"/>
      <point x="455" y="0" type="curve"/>
      <point x="414" y="241"/>
      <point x="372" y="481"/>
      <point x="331" y="722" type="curve"/>
      <point x="307" y="722"/>
      <point x="332" y="722"/>
    </contour>
    <contour>
      <point x="33" y="722" type="curve"/>
      <point x="76" y="481"/>
      <point x="119" y="241"/>
      <point x="162" y="0" type="curve"/>
      <point x="181" y="0"/>
      <point x="163" y="0"/>
      <point x="182" y="0" type="curve"/>
      <point x="141" y="241"/>
      <point x="100" y="481"/>
      <point x="59" y="722" type="curve"/>
      <point x="33" y="722"/>
      <point x="59" y="722"/>
    </contour>
    <contour>
      <point x="566" y="722" type="curve"/>
      <point x="523" y="481"/>
      <point x="480" y="241"/>
      <point x="438" y="0" type="curve"/>
      <point x="457" y="0"/>
      <point x="439" y="0"/>
      <point x="458" y="0" type="curve"/>
      <point x="503" y="241"/>
      <point x="547" y="481"/>
      <point x="592" y="722" type="curve"/>
      <point x="566" y="722"/>
      <point x="592" y="722"/>
    </contour>
  </outline>
</glyph>
<glyph name="X" format="1">
  <advance width="414"/>
  <unicode hex="0058"/>
  <outline>
    <contour>
      <point x="356" y="722" type="curve"/>
      <point x="239" y="481"/>
      <point x="123" y="241"/>
      <point x="6" y="0" type="curve"/>
      <point x="38" y="0"/>
      <point x="6" y="0"/>
      <point x="38" y="0" type="curve"/>
      <point x="154" y="241"/>
      <point x="269" y="481"/>
      <point x="385" y="722" type="curve"/>
      <point x="356" y="722"/>
      <point x="385" y="722"/>
    </contour>
    <contour>
      <point x="30" y="722" type="curve"/>
      <point x="144" y="481"/>
      <point x="259" y="241"/>
      <point x="374" y="0" type="curve"/>
      <point x="405" y="0"/>
      <point x="374" y="0"/>
      <point x="405" y="0" type="curve"/>
      <point x="290" y="241"/>
      <point x="174" y="481"/>
      <point x="59" y="722" type="curve"/>
      <point x="30" y="722"/>
      <point x="59" y="722"/>
    </contour>
  </outline>
</glyph>
<glyph name="Y" format="1">
  <advance width="404"/>
  <unicode hex="0059"/>
  <outline>
    <contour>
      <point x="26" y="722" type="curve"/>
      <point x="81" y="594"/>
      <point x="136" y="465"/>
      <point x="191" y="337" type="curve"/>
      <point x="218" y="337"/>
      <point x="191" y="337"/>
      <point x="218" y="337" type="curve"/>
      <point x="163" y="465"/>
      <point x="108" y="594"/>
      <point x="54" y="722" type="curve"/>
      <point x="26" y="722"/>
      <point x="54" y="722"/>
    </contour>
    <contour>
      <point x="364" y="722" type="curve"/>
      <point x="307" y="594"/>
      <point x="249" y="465"/>
      <point x="191" y="337" type="curve"/>
      <point x="218" y="337"/>
      <point x="191" y="337"/>
      <point x="218" y="337" type="curve"/>
      <point x="276" y="465"/>
      <point x="334" y="594"/>
      <point x="392" y="722" type="curve"/>
      <point x="364" y="722"/>
      <point x="392" y="722"/>
    </contour>
    <contour>
      <point x="218" y="0" type="curve"/>
      <point x="218" y="115"/>
      <point x="218" y="231"/>
      <point x="218" y="346" type="curve"/>
      <point x="191" y="346"/>
      <point x="218" y="346"/>
      <point x="191" y="346" type="curve"/>
      <point x="191" y="231"/>
      <point x="191" y="115"/>
      <point x="191" y="0" type="curve"/>
      <point x="218" y="0"/>
      <point x="191" y="0"/>
    </contour>
    <contour>
      <point x="207" y="825" type="move" name="top"/>
    </contour>
  </outline>
</glyph>
<glyph name="bracketleft" format="1">
  <advance width="237"/>
  <unicode hex="005B"/>
  <outline>
    <contour>
      <point x="210" y="771" type="curve"/>
      <point x="175" y="771"/>
      <point x="139" y="771"/>
      <point x="103" y="771" type="curve"/>
      <point x="101" y="771"/>
      <point x="98" y="771"/>
      <point x="96" y="771" type="curve"/>
      <point x="96" y="769"/>
      <point x="96" y="767"/>
      <point x="96" y="764" type="curve"/>
      <point x="96" y="470"/>
      <point x="96" y="175"/>
      <point x="96" y="-119" type="curve"/>
      <point x="96" y="-121"/>
      <point x="96" y="-123"/>
      <point x="96" y="-124" type="curve"/>
      <point x="98" y="-124"/>
      <point x="101" y="-124"/>
      <point x="102" y="-124" type="curve"/>
      <point x="138" y="-124"/>
      <point x="174" y="-124"/>
      <point x="210" y="-124" type="curve"/>
      <point x="210" y="-99"/>
      <point x="210" y="-124"/>
      <point x="210" y="-99" type="curve"/>
      <point x="174" y="-99"/>
      <point x="138" y="-99"/>
      <point x="102" y="-99" type="curve"/>
      <point x="121" y="-99"/>
      <point x="102" y="-99"/>
      <point x="121" y="-99" type="curve"/>
      <point x="121" y="-119"/>
      <point x="121" y="-99"/>
      <point x="121" y="-119" type="curve"/>
      <point x="121" y="175"/>
      <point x="121" y="470"/>
      <point x="121" y="764" type="curve"/>
      <point x="121" y="746"/>
      <point x="121" y="764"/>
      <point x="121" y="746" type="curve"/>
      <point x="103" y="746"/>
      <point x="121" y="746"/>
      <point x="103" y="746" type="curve"/>
      <point x="139" y="746"/>
      <point x="175" y="746"/>
      <point x="210" y="746" type="curve"/>
      <point x="210" y="771"/>
      <point x="210" y="746"/>
    </contour>
  </outline>
</glyph>
<glyph name="backslash" format="1">
  <advance width="367"/>
  <unicode hex="005C"/>
  <outline>
    <contour>
      <point x="334" y="-68" type="curve"/>
      <point x="243" y="236"/>
      <point x="151" y="540"/>
      <point x="60" y="844" type="curve"/>
      <point x="33" y="844"/>
      <point x="60" y="844"/>
      <point x="33" y="844" type="curve"/>
      <point x="125" y="540"/>
      <point x="216" y="236"/>
      <point x="308" y="-68" type="curve"/>
      <point x="334" y="-68"/>
      <point x="308" y="-68"/>
    </contour>
  </outline>
</glyph>
<glyph name="bracketright" format="1">
  <advance width="238"/>
  <unicode hex="005D"/>
  <outline>
    <contour>
      <point x="27" y="746" type="curve"/>
      <point x="63" y="746"/>
      <point x="99" y="746"/>
      <point x="135" y="746" type="curve"/>
      <point x="132" y="749"/>
      <point x="128" y="751"/>
      <point x="126" y="755" type="curve"/>
      <point x="123" y="758"/>
      <point x="120" y="761"/>
      <point x="118" y="764" type="curve"/>
      <point x="118" y="470"/>
      <point x="117" y="175"/>
      <point x="118" y="-119" type="curve"/>
      <point x="120" y="-115"/>
      <point x="124" y="-112"/>
      <point x="127" y="-108" type="curve"/>
      <point x="129" y="-105"/>
      <point x="133" y="-103"/>
      <point x="135" y="-99" type="curve"/>
      <point x="99" y="-99"/>
      <point x="63" y="-99"/>
      <point x="27" y="-99" type="curve"/>
      <point x="27" y="-124"/>
      <point x="27" y="-99"/>
      <point x="27" y="-124" type="curve"/>
      <point x="63" y="-124"/>
      <point x="99" y="-124"/>
      <point x="135" y="-124" type="curve"/>
      <point x="143" y="-124"/>
      <point x="135" y="-124"/>
      <point x="143" y="-124" type="curve"/>
      <point x="143" y="-119"/>
      <point x="143" y="-124"/>
      <point x="143" y="-119" type="curve"/>
      <point x="143" y="175"/>
      <point x="143" y="470"/>
      <point x="143" y="764" type="curve"/>
      <point x="143" y="771"/>
      <point x="143" y="764"/>
      <point x="143" y="771" type="curve"/>
      <point x="135" y="771"/>
      <point x="143" y="771"/>
      <point x="135" y="771" type="curve"/>
      <point x="99" y="771"/>
      <point x="63" y="771"/>
      <point x="27" y="771" type="curve"/>
      <point x="27" y="746"/>
      <point x="27" y="771"/>
    </contour>
  </outline>
</glyph>
<glyph name="asciicircum" format="1">
  <advance width="395"/>
  <unicode hex="005E"/>
  <outline>
    <contour>
      <point x="87" y="466" type="curve"/>
      <point x="128" y="581"/>
      <point x="169" y="695"/>
      <point x="209" y="809" type="curve"/>
      <point x="184" y="809"/>
      <point x="209" y="809"/>
      <point x="184" y="809" type="curve"/>
      <point x="143" y="695"/>
      <point x="103" y="581"/>
      <point x="62" y="466" type="curve"/>
      <point x="87" y="466"/>
      <point x="62" y="466"/>
    </contour>
    <contour>
      <point x="333" y="466" type="curve"/>
      <point x="293" y="577"/>
      <point x="249" y="699"/>
      <point x="209" y="809" type="curve"/>
      <point x="184" y="809"/>
      <point x="209" y="809"/>
      <point x="184" y="809" type="curve"/>
      <point x="224" y="699"/>
      <point x="268" y="577"/>
      <point x="308" y="466" type="curve"/>
      <point x="333" y="466"/>
      <point x="308" y="466"/>
    </contour>
  </outline>
</glyph>
<glyph name="underscore" format="1">
  <advance width="478"/>
  <unicode hex="005F"/>
  <outline>
    <contour>
      <point x="0" y="-210" type="curve"/>
      <point x="159" y="-210"/>
      <point x="318" y="-210"/>
      <point x="477" y="-210" type="curve"/>
      <point x="477" y="-187"/>
      <point x="477" y="-210"/>
      <point x="477" y="-187" type="curve"/>
      <point x="318" y="-187"/>
      <point x="159" y="-187"/>
      <point x="0" y="-187" type="curve"/>
      <point x="0" y="-210"/>
      <point x="0" y="-187"/>
    </contour>
  </outline>
</glyph>
<glyph name="b" format="1">
  <advance width="497"/>
  <unicode hex="0062"/>
  <outline>
    <contour>
      <point x="128" y="404" type="curve"/>
      <point x="143" y="450"/>
      <point x="195" y="515"/>
      <point x="265" y="515" type="curve"/>
      <point x="372" y="515"/>
      <point x="406" y="398"/>
      <point x="406" y="269" type="curve"/>
      <point x="406" y="144"/>
      <point x="365" y="18"/>
      <point x="265" y="18" type="curve"/>
      <point x="205" y="18"/>
      <point x="155" y="71"/>
      <point x="129" y="136" type="curve"/>
      <point x="112" y="122"/>
      <point x="132" y="131"/>
      <point x="115" y="117" type="curve"/>
      <point x="144" y="49"/>
      <point x="194" y="-5"/>
      <point x="265" y="-5" type="curve"/>
      <point x="391" y="-5"/>
      <point x="431" y="122"/>
      <point x="431" y="270" type="curve"/>
      <point x="431" y="412"/>
      <point x="393" y="538"/>
      <point x="265" y="538" type="curve"/>
      <point x="186" y="538"/>
      <point x="132" y="479"/>
      <point x="116" y="429" type="curve"/>
      <point x="128" y="411"/>
      <point x="116" y="422"/>
    </contour>
    <contour>
      <point x="134" y="0" type="curve"/>
      <point x="134" y="267"/>
      <point x="134" y="533"/>
      <point x="134" y="800" type="curve"/>
      <point x="108" y="800"/>
      <point x="134" y="800"/>
      <point x="108" y="800" type="curve"/>
      <point x="108" y="533"/>
      <point x="108" y="267"/>
      <point x="108" y="0" type="curve"/>
      <point x="134" y="0"/>
      <point x="108" y="0"/>
    </contour>
  </outline>
</glyph>
<glyph name="c" format="1">
  <advance width="404"/>
  <unicode hex="0063"/>
  <outline>
    <contour>
      <point x="352" y="473" type="curve"/>
      <point x="323" y="507"/>
      <point x="282" y="538"/>
      <point x="236" y="538" type="curve"/>
      <point x="102" y="538"/>
      <point x="67" y="422"/>
      <point x="67" y="267" type="curve"/>
      <point x="67" y="112"/>
      <point x="100" y="-5"/>
      <point x="234" y="-5" type="curve"/>
      <point x="288" y="-5"/>
      <point x="333" y="35"/>
      <point x="360" y="88" type="curve"/>
      <point x="341" y="100"/>
      <point x="360" y="88"/>
      <point x="341" y="100" type="curve"/>
      <point x="321" y="63"/>
      <point x="282" y="18"/>
      <point x="235" y="18" type="curve"/>
      <point x="118" y="18"/>
      <point x="92" y="128"/>
      <point x="92" y="267" type="curve"/>
      <point x="92" y="406"/>
      <point x="122" y="515"/>
      <point x="235" y="515" type="curve"/>
      <point x="275" y="515"/>
      <point x="311" y="486"/>
      <point x="337" y="457" type="curve"/>
      <point x="352" y="473"/>
      <point x="337" y="457"/>
    </contour>
    <contour>
      <point x="233" y="670" type="move" name="top"/>
    </contour>
    <contour>
      <point x="235" y="-5" type="move" name="bottom"/>
    </contour>
  </outline>
</glyph>
<glyph name="f" format="1">
  <advance width="313"/>
  <unicode hex="0066"/>
  <outline>
    <contour>
      <point x="22" y="510" type="curve"/>
      <point x="288" y="510" type="line"/>
      <point x="288" y="533"/>
      <point x="288" y="510"/>
      <point x="288" y="533" type="curve"/>
      <point x="22" y="533" type="line"/>
      <point x="22" y="510"/>
      <point x="22" y="533"/>
    </contour>
    <contour>
      <point x="165" y="0" type="curve"/>
      <point x="165" y="640" type="line"/>
      <point x="165" y="717"/>
      <point x="184" y="783"/>
      <point x="248" y="783" type="curve"/>
      <point x="273" y="783"/>
      <point x="295" y="773"/>
      <point x="315" y="759" type="curve"/>
      <point x="325" y="777"/>
      <point x="315" y="759"/>
      <point x="325" y="777" type="curve"/>
      <point x="302" y="793"/>
      <point x="275" y="805"/>
      <point x="248" y="805" type="curve"/>
      <point x="169" y="805"/>
      <point x="138" y="729"/>
      <point x="139" y="640" type="curve"/>
      <point x="139" y="0" type="line"/>
      <point x="165" y="0"/>
      <point x="139" y="0"/>
    </contour>
  </outline>
</glyph>
<glyph name="g" format="1">
  <advance width="368"/>
  <unicode hex="0067"/>
  <outline>
    <contour>
      <point x="254" y="499" type="curve"/>
      <point x="359" y="580" type="line"/>
      <point x="345" y="599"/>
      <point x="358" y="581"/>
      <point x="345" y="600" type="curve"/>
      <point x="240" y="517" type="line"/>
      <point x="254" y="499"/>
      <point x="240" y="517"/>
    </contour>
    <contour>
      <point x="71" y="358" type="curve"/>
      <point x="71" y="441"/>
      <point x="105" y="516"/>
      <point x="182" y="516" type="curve"/>
      <point x="258" y="516"/>
      <point x="289" y="445"/>
      <point x="289" y="361" type="curve"/>
      <point x="289" y="281"/>
      <point x="256" y="210"/>
      <point x="181" y="210" type="curve"/>
      <point x="107" y="210"/>
      <point x="71" y="277"/>
      <point x="71" y="358" type="curve"/>
      <point x="46" y="357"/>
      <point x="71" y="358"/>
      <point x="46" y="357" type="curve"/>
      <point x="46" y="263"/>
      <point x="91" y="189"/>
      <point x="179" y="189" type="curve"/>
      <point x="268" y="189"/>
      <point x="314" y="265"/>
      <point x="314" y="362" type="curve"/>
      <point x="314" y="459"/>
      <point x="271" y="538"/>
      <point x="182" y="538" type="curve"/>
      <point x="89" y="538"/>
      <point x="46" y="457"/>
      <point x="46" y="357" type="curve"/>
      <point x="71" y="358"/>
      <point x="46" y="357"/>
    </contour>
    <contour>
      <point x="102" y="228" type="curve"/>
      <point x="66" y="196"/>
      <point x="49" y="159"/>
      <point x="49" y="109" type="curve"/>
      <point x="49" y="38"/>
      <point x="102" y="-4"/>
      <point x="176" y="-13" type="curve"/>
      <point x="261" y="-23"/>
      <point x="329" y="-63"/>
      <point x="329" y="-144" type="curve"/>
      <point x="329" y="-227"/>
      <point x="266" y="-282"/>
      <point x="179" y="-282" type="curve"/>
      <point x="94" y="-282"/>
      <point x="40" y="-219"/>
      <point x="40" y="-134" type="curve"/>
      <point x="40" y="-71"/>
      <point x="62" y="-21"/>
      <point x="116" y="11" type="curve"/>
      <point x="104" y="26"/>
      <point x="116" y="11"/>
      <point x="104" y="26" type="curve"/>
      <point x="43" y="-11"/>
      <point x="15" y="-64"/>
      <point x="15" y="-135" type="curve"/>
      <point x="15" y="-234"/>
      <point x="78" y="-304"/>
      <point x="178" y="-304" type="curve"/>
      <point x="279" y="-304"/>
      <point x="353" y="-242"/>
      <point x="352" y="-142" type="curve"/>
      <point x="352" y="-50"/>
      <point x="277" y="-3"/>
      <point x="181" y="9" type="curve"/>
      <point x="118" y="15"/>
      <point x="74" y="51"/>
      <point x="74" y="112" type="curve"/>
      <point x="74" y="154"/>
      <point x="84" y="187"/>
      <point x="117" y="214" type="curve"/>
      <point x="102" y="228"/>
      <point x="117" y="214"/>
    </contour>
    <contour>
      <point x="181" y="670" type="move" name="top"/>
    </contour>
  </outline>
</glyph>
<glyph name="h" format="1">
  <advance width="495"/>
  <unicode hex="0068"/>
  <outline>
    <contour>
      <point x="127" y="352" type="curve"/>
      <point x="140" y="426"/>
      <point x="192" y="515"/>
      <point x="268" y="515" type="curve"/>
      <point x="353" y="515"/>
      <point x="370" y="437"/>
      <point x="370" y="341" type="curve"/>
      <point x="370" y="228"/>
      <point x="370" y="114"/>
      <point x="370" y="0" type="curve"/>
      <point x="395" y="0"/>
      <point x="370" y="0"/>
      <point x="395" y="0" type="curve"/>
      <point x="395" y="115"/>
      <point x="395" y="229"/>
      <point x="395" y="344" type="curve"/>
      <point x="395" y="454"/>
      <point x="369" y="538"/>
      <point x="271" y="538" type="curve"/>
      <point x="186" y="538"/>
      <point x="126" y="452"/>
      <point x="115" y="370" type="curve"/>
      <point x="130" y="355"/>
      <point x="112" y="367"/>
    </contour>
    <contour>
      <point x="134" y="0" type="curve"/>
      <point x="134" y="267"/>
      <point x="134" y="533"/>
      <point x="134" y="800" type="curve"/>
      <point x="108" y="800"/>
      <point x="134" y="800"/>
      <point x="108" y="800" type="curve"/>
      <point x="108" y="533"/>
      <point x="108" y="267"/>
      <point x="108" y="0" type="curve"/>
      <point x="134" y="0"/>
      <point x="108" y="0"/>
    </contour>
  </outline>
</glyph>
<glyph name="j" format="1">
  <advance width="210"/>
  <unicode hex="006A"/>
  <outline>
    <contour>
      <point x="-14" y="-301" type="curve"/>
      <point x="-8" y="-302"/>
      <point x="0" y="-304"/>
      <point x="8" y="-304" type="curve"/>
      <point x="85" y="-304"/>
      <point x="124" y="-227"/>
      <point x="124" y="-142" type="curve"/>
      <point x="124" y="83"/>
      <point x="124" y="308"/>
      <point x="124" y="533" type="curve"/>
      <point x="99" y="533"/>
      <point x="124" y="533"/>
      <point x="99" y="533" type="curve"/>
      <point x="99" y="308"/>
      <point x="99" y="83"/>
      <point x="99" y="-142" type="curve"/>
      <point x="99" y="-207"/>
      <point x="69" y="-277"/>
      <point x="9" y="-277" type="curve"/>
      <point x="3" y="-277"/>
      <point x="-5" y="-276"/>
      <point x="-9" y="-275" type="curve"/>
      <point x="-13" y="-297"/>
      <point x="-10" y="-279"/>
    </contour>
    <contour>
      <point x="133" y="688" type="curve"/>
      <point x="133" y="700"/>
      <point x="124" y="707"/>
      <point x="112" y="707" type="curve"/>
      <point x="100" y="707"/>
      <point x="94" y="699"/>
      <point x="94" y="688" type="curve"/>
      <point x="133" y="688"/>
      <point x="94" y="688"/>
      <point x="133" y="688" type="curve"/>
      <point x="133" y="675"/>
      <point x="124" y="669"/>
      <point x="112" y="669" type="curve"/>
      <point x="100" y="669"/>
      <point x="94" y="675"/>
      <point x="94" y="688" type="curve"/>
      <point x="133" y="688"/>
      <point x="94" y="688"/>
    </contour>
  </outline>
</glyph>
<glyph name="k" format="1">
  <advance width="396"/>
  <unicode hex="006B"/>
  <outline>
    <contour>
      <point x="134" y="0" type="curve"/>
      <point x="134" y="800" type="line"/>
      <point x="108" y="800"/>
      <point x="134" y="800"/>
      <point x="108" y="800" type="curve"/>
      <point x="108" y="533"/>
      <point x="108" y="267"/>
      <point x="108" y="0" type="curve"/>
      <point x="134" y="0"/>
      <point x="108" y="0"/>
    </contour>
    <contour>
      <point x="314" y="533" type="curve"/>
      <point x="120" y="275" type="line"/>
      <point x="157" y="275"/>
      <point x="116" y="275"/>
      <point x="153" y="275" type="curve"/>
      <point x="349" y="533" type="line"/>
      <point x="311" y="533"/>
      <point x="352" y="533"/>
    </contour>
    <contour>
      <point x="367" y="0" type="curve"/>
      <point x="153" y="275" type="line"/>
      <point x="116" y="275"/>
      <point x="157" y="275"/>
      <point x="120" y="275" type="curve"/>
      <point x="332" y="0" type="line"/>
      <point x="370" y="0"/>
      <point x="329" y="0"/>
    </contour>
    <contour>
      <point x="275" y="-79" type="move" name="bottom"/>
    </contour>
  </outline>
</glyph>
<glyph name="m" format="1">
  <advance width="700"/>
  <unicode hex="006D"/>
  <outline>
    <contour>
      <point x="361" y="353" type="curve"/>
      <point x="382" y="433"/>
      <point x="417" y="516"/>
      <point x="486" y="516" type="curve"/>
      <point x="573" y="516"/>
      <point x="574" y="442"/>
      <point x="574" y="341" type="curve"/>
      <point x="574" y="228"/>
      <point x="574" y="114"/>
      <point x="574" y="0" type="curve"/>
      <point x="599" y="0"/>
      <point x="574" y="0"/>
      <point x="599" y="0" type="curve"/>
      <point x="599" y="115"/>
      <point x="599" y="229"/>
      <point x="599" y="344" type="curve"/>
      <point x="599" y="458"/>
      <point x="590" y="538"/>
      <point x="491" y="538" type="curve"/>
      <point x="404" y="538"/>
      <point x="365" y="455"/>
      <point x="348" y="365" type="curve"/>
      <point x="361" y="353"/>
      <point x="348" y="365"/>
    </contour>
    <contour>
      <point x="128" y="353" type="curve"/>
      <point x="146" y="430"/>
      <point x="181" y="517"/>
      <point x="253" y="517" type="curve"/>
      <point x="340" y="517"/>
      <point x="342" y="442"/>
      <point x="342" y="341" type="curve"/>
      <point x="342" y="228"/>
      <point x="342" y="114"/>
      <point x="342" y="0" type="curve"/>
      <point x="367" y="0"/>
      <point x="342" y="0"/>
      <point x="367" y="0" type="curve"/>
      <point x="367" y="115"/>
      <point x="367" y="229"/>
      <point x="367" y="344" type="curve"/>
      <point x="367" y="458"/>
      <point x="358" y="539"/>
      <point x="258" y="539" type="curve"/>
      <point x="168" y="539"/>
      <point x="133" y="456"/>
      <point x="116" y="365" type="curve"/>
      <point x="128" y="353"/>
      <point x="116" y="365"/>
    </contour>
    <contour>
      <point x="134" y="0" type="curve"/>
      <point x="134" y="178"/>
      <point x="134" y="355"/>
      <point x="134" y="533" type="curve"/>
      <point x="108" y="533"/>
      <point x="134" y="533"/>
      <point x="108" y="533" type="curve"/>
      <point x="108" y="355"/>
      <point x="108" y="178"/>
      <point x="108" y="0" type="curve"/>
      <point x="134" y="0"/>
      <point x="108" y="0"/>
    </contour>
  </outline>
</glyph>
<glyph name="n" format="1">
  <advance width="494"/>
  <unicode hex="006E"/>
  <outline>
    <contour>
      <point x="127" y="339" type="curve"/>
      <point x="135" y="435"/>
      <point x="197" y="515"/>
      <point x="267" y="515" type="curve"/>
      <point x="349" y="515"/>
      <point x="369" y="437"/>
      <point x="369" y="341" type="curve"/>
      <point x="369" y="228"/>
      <point x="369" y="114"/>
      <point x="369" y="0" type="curve"/>
      <point x="394" y="0"/>
      <point x="369" y="0"/>
      <point x="394" y="0" type="curve"/>
      <point x="394" y="115"/>
      <point x="394" y="229"/>
      <point x="394" y="344" type="curve"/>
      <point x="394" y="453"/>
      <point x="369" y="538"/>
      <point x="272" y="538" type="curve"/>
      <point x="187" y="538"/>
      <point x="121" y="462"/>
      <point x="115" y="357" type="curve"/>
      <point x="128" y="343"/>
      <point x="113" y="353"/>
    </contour>
    <contour>
      <point x="134" y="0" type="curve"/>
      <point x="134" y="178"/>
      <point x="134" y="355"/>
      <point x="134" y="533" type="curve"/>
      <point x="108" y="533"/>
      <point x="134" y="533"/>
      <point x="108" y="533" type="curve"/>
      <point x="108" y="355"/>
      <point x="108" y="178"/>
      <point x="108" y="0" type="curve"/>
      <point x="134" y="0"/>
      <point x="108" y="0"/>
    </contour>
    <contour>
      <point x="265" y="670" type="move" name="top"/>
    </contour>
    <contour>
      <point x="266" y="-79" type="move" name="bottom"/>
    </contour>
  </outline>
</glyph>
<glyph name="p" format="1">
  <advance width="502"/>
  <unicode hex="0070"/>
  <outline>
    <contour>
      <point x="127" y="404" type="curve"/>
      <point x="144" y="452"/>
      <point x="200" y="516"/>
      <point x="269" y="516" type="curve"/>
      <point x="381" y="516"/>
      <point x="412" y="403"/>
      <point x="412" y="276" type="curve"/>
      <point x="414" y="139"/>
      <point x="380" y="18"/>
      <point x="268" y="18" type="curve"/>
      <point x="201" y="18"/>
      <point x="160" y="65"/>
      <point x="129" y="122" type="curve"/>
      <point x="113" y="110"/>
      <point x="129" y="122"/>
      <point x="113" y="110" type="curve"/>
      <point x="146" y="42"/>
      <point x="193" y="-5"/>
      <point x="268" y="-5" type="curve"/>
      <point x="406" y="-5"/>
      <point x="437" y="128"/>
      <point x="437" y="278" type="curve"/>
      <point x="437" y="417"/>
      <point x="400" y="538"/>
      <point x="270" y="538" type="curve"/>
      <point x="190" y="538"/>
      <point x="136" y="479"/>
      <point x="115" y="428" type="curve"/>
      <point x="131" y="407"/>
      <point x="111" y="425"/>
    </contour>
    <contour>
      <point x="134" y="-300" type="curve"/>
      <point x="134" y="-22"/>
      <point x="134" y="255"/>
      <point x="134" y="533" type="curve"/>
      <point x="108" y="533"/>
      <point x="134" y="533"/>
      <point x="108" y="533" type="curve"/>
      <point x="108" y="255"/>
      <point x="108" y="-22"/>
      <point x="108" y="-300" type="curve"/>
      <point x="134" y="-300"/>
      <point x="108" y="-300"/>
    </contour>
  </outline>
</glyph>
<glyph name="q" format="1">
  <advance width="501"/>
  <unicode hex="0071"/>
  <outline>
    <contour>
      <point x="386" y="434" type="curve"/>
      <point x="357" y="503"/>
      <point x="294" y="538"/>
      <point x="232" y="538" type="curve"/>
      <point x="101" y="538"/>
      <point x="67" y="409"/>
      <point x="67" y="264" type="curve"/>
      <point x="68" y="120"/>
      <point x="106" y="-6"/>
      <point x="236" y="-6" type="curve"/>
      <point x="306" y="-6"/>
      <point x="363" y="54"/>
      <point x="386" y="121" type="curve"/>
      <point x="372" y="135"/>
      <point x="387" y="126"/>
      <point x="373" y="139" type="curve"/>
      <point x="351" y="76"/>
      <point x="298" y="17"/>
      <point x="236" y="17" type="curve"/>
      <point x="124" y="17"/>
      <point x="93" y="135"/>
      <point x="93" y="265" type="curve"/>
      <point x="93" y="396"/>
      <point x="122" y="515"/>
      <point x="233" y="515" type="curve"/>
      <point x="290" y="515"/>
      <point x="347" y="478"/>
      <point x="375" y="413" type="curve"/>
      <point x="387" y="428"/>
      <point x="374" y="419"/>
    </contour>
    <contour>
      <point x="393" y="-300" type="curve"/>
      <point x="393" y="-22"/>
      <point x="393" y="255"/>
      <point x="393" y="533" type="curve"/>
      <point x="367" y="533"/>
      <point x="393" y="533"/>
      <point x="367" y="533" type="curve"/>
      <point x="367" y="255"/>
      <point x="367" y="-22"/>
      <point x="367" y="-300" type="curve"/>
      <point x="393" y="-300"/>
      <point x="367" y="-300"/>
    </contour>
  </outline>
</glyph>
<glyph name="r" format="1">
  <advance width="309"/>
  <unicode hex="0072"/>
  <outline>
    <contour>
      <point x="134" y="0" type="curve"/>
      <point x="134" y="178"/>
      <point x="134" y="355"/>
      <point x="134" y="533" type="curve"/>
      <point x="108" y="533"/>
      <point x="134" y="533"/>
      <point x="108" y="533" type="curve"/>
      <point x="108" y="355"/>
      <point x="108" y="178"/>
      <point x="108" y="0" type="curve"/>
      <point x="134" y="0"/>
      <point x="108" y="0"/>
    </contour>
    <contour>
      <point x="127" y="370" type="curve"/>
      <point x="144" y="455"/>
      <point x="217" y="515"/>
      <point x="296" y="515" type="curve"/>
      <point x="296" y="543"/>
      <point x="296" y="510"/>
      <point x="296" y="538" type="curve"/>
      <point x="210" y="538"/>
      <point x="136" y="483"/>
      <point x="115" y="393" type="curve"/>
      <point x="128" y="380"/>
      <point x="119" y="381"/>
    </contour>
    <contour>
      <point x="123" y="670" type="move" name="top"/>
    </contour>
    <contour>
      <point x="122" y="-79" type="move" name="bottom"/>
    </contour>
  </outline>
</glyph>
<glyph name="s" format="1">
  <advance width="365"/>
  <unicode hex="0073"/>
  <outline>
    <contour>
      <point x="50" y="49" type="curve"/>
      <point x="92" y="17"/>
      <point x="137" y="-5"/>
      <point x="188" y="-5" type="curve"/>
      <point x="269" y="-5"/>
      <point x="309" y="52"/>
      <point x="309" y="131" type="curve"/>
      <point x="308" y="215"/>
      <point x="261" y="256"/>
      <point x="185" y="289" type="curve" smooth="yes"/>
      <point x="127" y="316"/>
      <point x="97" y="354"/>
      <point x="97" y="421" type="curve"/>
      <point x="97" y="473"/>
      <point x="124" y="515"/>
      <point x="176" y="515" type="curve"/>
      <point x="215" y="515"/>
      <point x="244" y="499"/>
      <point x="273" y="472" type="curve"/>
      <point x="278" y="480"/>
      <point x="280" y="484"/>
      <point x="285" y="492" type="curve"/>
      <point x="253" y="521"/>
      <point x="220" y="538"/>
      <point x="177" y="538" type="curve"/>
      <point x="111" y="538"/>
      <point x="74" y="487"/>
      <point x="74" y="421" type="curve"/>
      <point x="74" y="345"/>
      <point x="109" y="299"/>
      <point x="178" y="268" type="curve" smooth="yes"/>
      <point x="241" y="239"/>
      <point x="285" y="205"/>
      <point x="284" y="131" type="curve"/>
      <point x="284" y="68"/>
      <point x="252" y="18"/>
      <point x="192" y="18" type="curve"/>
      <point x="143" y="18"/>
      <point x="102" y="39"/>
      <point x="62" y="69" type="curve"/>
      <point x="50" y="49"/>
      <point x="62" y="69"/>
    </contour>
    <contour>
      <point x="183" y="670" type="move" name="top"/>
    </contour>
    <contour>
      <point x="191" y="-79" type="move" name="bottom"/>
    </contour>
  </outline>
</glyph>
<glyph name="v" format="1">
  <advance width="389"/>
  <unicode hex="0076"/>
  <outline>
    <contour>
      <point x="34" y="533" type="curve"/>
      <point x="83" y="355"/>
      <point x="132" y="178"/>
      <point x="180" y="0" type="curve"/>
      <point x="205" y="0"/>
      <point x="180" y="0"/>
      <point x="205" y="0" type="curve"/>
      <point x="157" y="178"/>
      <point x="109" y="355"/>
      <point x="62" y="533" type="curve"/>
      <point x="34" y="533"/>
      <point x="62" y="533"/>
    </contour>
    <contour>
      <point x="335" y="533" type="curve"/>
      <point x="183" y="0" type="line"/>
      <point x="209" y="0"/>
      <point x="183" y="0"/>
      <point x="209" y="0" type="curve"/>
      <point x="260" y="178"/>
      <point x="311" y="355"/>
      <point x="362" y="533" type="curve"/>
      <point x="335" y="533"/>
      <point x="362" y="533"/>
    </contour>
  </outline>
</glyph>
<glyph name="w" format="1">
  <advance width="627"/>
  <unicode hex="0077"/>
  <outline>
    <contour>
      <point x="189" y="0" type="curve"/>
      <point x="237" y="178"/>
      <point x="284" y="355"/>
      <point x="332" y="533" type="curve"/>
      <point x="304" y="533"/>
      <point x="332" y="533"/>
      <point x="304" y="533" type="curve"/>
      <point x="258" y="355"/>
      <point x="211" y="178"/>
      <point x="165" y="0" type="curve"/>
      <point x="189" y="0"/>
      <point x="165" y="0"/>
    </contour>
    <contour>
      <point x="568" y="533" type="curve"/>
      <point x="525" y="355"/>
      <point x="481" y="178"/>
      <point x="438" y="0" type="curve"/>
      <point x="462" y="0"/>
      <point x="438" y="0"/>
      <point x="462" y="0" type="curve"/>
      <point x="507" y="178"/>
      <point x="551" y="355"/>
      <point x="596" y="533" type="curve"/>
      <point x="568" y="533"/>
      <point x="596" y="533"/>
    </contour>
    <contour>
      <point x="309" y="533" type="curve"/>
      <point x="352" y="355"/>
      <point x="394" y="178"/>
      <point x="437" y="0" type="curve"/>
      <point x="461" y="0"/>
      <point x="437" y="0"/>
      <point x="461" y="0" type="curve"/>
      <point x="419" y="178"/>
      <point x="377" y="355"/>
      <point x="335" y="533" type="curve"/>
      <point x="309" y="533"/>
      <point x="335" y="533"/>
    </contour>
    <contour>
      <point x="36" y="533" type="curve"/>
      <point x="79" y="355"/>
      <point x="122" y="178"/>
      <point x="164" y="0" type="curve"/>
      <point x="188" y="0"/>
      <point x="164" y="0"/>
      <point x="188" y="0" type="curve"/>
      <point x="146" y="178"/>
      <point x="105" y="355"/>
      <point x="63" y="533" type="curve"/>
      <point x="36" y="533"/>
      <point x="63" y="533"/>
    </contour>
  </outline>
</glyph>
<glyph name="x" format="1">
  <advance width="373"/>
  <unicode hex="0078"/>
  <outline>
    <contour>
      <point x="354" y="0" type="curve"/>
      <point x="257" y="176"/>
      <point x="158" y="357"/>
      <point x="61" y="533" type="curve"/>
      <point x="33" y="533"/>
      <point x="61" y="533"/>
      <point x="33" y="533" type="curve"/>
      <point x="129" y="357"/>
      <point x="228" y="176"/>
      <point x="323" y="0" type="curve"/>
      <point x="354" y="0"/>
      <point x="323" y="0"/>
    </contour>
    <contour>
      <point x="313" y="533" type="curve"/>
      <point x="215" y="357"/>
      <point x="114" y="176"/>
      <point x="17" y="0" type="curve"/>
      <point x="48" y="0"/>
      <point x="17" y="0"/>
      <point x="48" y="0" type="curve"/>
      <point x="145" y="176"/>
      <point x="245" y="357"/>
      <point x="342" y="533" type="curve"/>
      <point x="313" y="533"/>
      <point x="342" y="533"/>
    </contour>
  </outline>
</glyph>
<glyph name="braceleft" format="1">
  <advance width="200"/>
  <unicode hex="007B"/>
  <outline>
    <contour>
      <point x="174" y="-101" type="curve"/>
      <point x="114" y="-101"/>
      <point x="105" y="-42"/>
      <point x="105" y="26" type="curve"/>
      <point x="105" y="85"/>
      <point x="105" y="144"/>
      <point x="105" y="203" type="curve"/>
      <point x="105" y="283"/>
      <point x="83" y="350"/>
      <point x="12" y="350" type="curve"/>
      <point x="12" y="327"/>
      <point x="12" y="350"/>
      <point x="12" y="327" type="curve"/>
      <point x="69" y="327"/>
      <point x="81" y="271"/>
      <point x="81" y="205" type="curve"/>
      <point x="81" y="146"/>
      <point x="81" y="86"/>
      <point x="81" y="27" type="curve"/>
      <point x="81" y="-56"/>
      <point x="102" y="-124"/>
      <point x="174" y="-124" type="curve"/>
      <point x="174" y="-101"/>
      <point x="174" y="-124"/>
    </contour>
    <contour>
      <point x="174" y="800" type="curve"/>
      <point x="102" y="800"/>
      <point x="81" y="733"/>
      <point x="81" y="650" type="curve"/>
      <point x="81" y="590"/>
      <point x="81" y="530"/>
      <point x="81" y="470" type="curve"/>
      <point x="81" y="404"/>
      <point x="69" y="350"/>
      <point x="12" y="350" type="curve"/>
      <point x="12" y="327"/>
      <point x="12" y="350"/>
      <point x="12" y="327" type="curve"/>
      <point x="83" y="327"/>
      <point x="105" y="392"/>
      <point x="105" y="473" type="curve"/>
      <point x="105" y="532"/>
      <point x="105" y="591"/>
      <point x="105" y="650" type="curve"/>
      <point x="105" y="718"/>
      <point x="114" y="777"/>
      <point x="174" y="777" type="curve"/>
      <point x="174" y="800"/>
      <point x="174" y="777"/>
    </contour>
  </outline>
</glyph>
<glyph name="asciitilde" format="1">
  <advance width="546"/>
  <unicode hex="007E"/>
  <outline>
    <contour>
      <point x="430" y="344" type="curve"/>
      <point x="419" y="299"/>
      <point x="411" y="242"/>
      <point x="361" y="242" type="curve"/>
      <point x="325" y="242"/>
      <point x="305" y="262"/>
      <point x="282" y="290" type="curve"/>
      <point x="256" y="322"/>
      <point x="233" y="345"/>
      <point x="193" y="345" type="curve"/>
      <point x="124" y="345"/>
      <point x="107" y="292"/>
      <point x="95" y="224" type="curve"/>
      <point x="115" y="219"/>
      <point x="96" y="224"/>
      <point x="116" y="219" type="curve"/>
      <point x="126" y="271"/>
      <point x="136" y="323"/>
      <point x="191" y="323" type="curve"/>
      <point x="223" y="323"/>
      <point x="240" y="304"/>
      <point x="259" y="279" type="curve"/>
      <point x="289" y="244"/>
      <point x="314" y="220"/>
      <point x="359" y="220" type="curve"/>
      <point x="425" y="220"/>
      <point x="437" y="277"/>
      <point x="451" y="340" type="curve"/>
      <point x="430" y="344"/>
      <point x="451" y="340"/>
    </contour>
  </outline>
</glyph>
<glyph name="exclamdown" format="1">
  <advance width="238"/>
  <unicode hex="00A1"/>
  <outline>
    <contour>
      <point x="106" y="295" type="line"/>
      <point x="103" y="-198" type="line"/>
      <point x="136" y="-198" type="line"/>
      <point x="133" y="295" type="line"/>
    </contour>
    <contour>
      <point x="101" y="512" type="curve"/>
      <point x="101" y="500"/>
      <point x="108" y="494"/>
      <point x="119" y="494" type="curve"/>
      <point x="130" y="494"/>
      <point x="137" y="501"/>
      <point x="137" y="512" type="curve"/>
      <point x="101" y="512"/>
      <point x="137" y="512"/>
      <point x="101" y="512" type="curve"/>
      <point x="101" y="523"/>
      <point x="108" y="529"/>
      <point x="119" y="529" type="curve"/>
      <point x="130" y="529"/>
      <point x="137" y="523"/>
      <point x="137" y="512" type="curve"/>
      <point x="101" y="512"/>
      <point x="137" y="512"/>
    </contour>
  </outline>
</glyph>
<glyph name="cent" format="1">
  <advance width="481"/>
  <unicode hex="00A2"/>
  <outline>
    <contour>
      <point x="262" y="-53" type="curve"/>
      <point x="262" y="-13"/>
      <point x="262" y="27"/>
      <point x="262" y="67" type="curve"/>
      <point x="236" y="67"/>
      <point x="262" y="67"/>
      <point x="236" y="67" type="curve"/>
      <point x="236" y="27"/>
      <point x="236" y="-13"/>
      <point x="236" y="-53" type="curve"/>
      <point x="262" y="-53"/>
      <point x="236" y="-53"/>
    </contour>
    <contour>
      <point x="251" y="778" type="curve"/>
      <point x="251" y="742"/>
      <point x="251" y="706"/>
      <point x="251" y="670" type="curve"/>
      <point x="276" y="670"/>
      <point x="251" y="670"/>
      <point x="276" y="670" type="curve"/>
      <point x="276" y="706"/>
      <point x="276" y="742"/>
      <point x="276" y="778" type="curve"/>
      <point x="251" y="778"/>
      <point x="276" y="778"/>
    </contour>
    <contour>
      <point x="419" y="603" type="curve"/>
      <point x="374" y="655"/>
      <point x="330" y="679"/>
      <point x="266" y="679" type="curve"/>
      <point x="113" y="679"/>
      <point x="61" y="540"/>
      <point x="61" y="366" type="curve"/>
      <point x="61" y="196"/>
      <point x="98" y="54"/>
      <point x="247" y="54" type="curve"/>
      <point x="321" y="54"/>
      <point x="369" y="89"/>
      <point x="419" y="149" type="curve"/>
      <point x="401" y="165"/>
      <point x="419" y="149"/>
      <point x="401" y="165" type="curve"/>
      <point x="358" y="112"/>
      <point x="317" y="77"/>
      <point x="249" y="77" type="curve"/>
      <point x="118" y="77"/>
      <point x="86" y="210"/>
      <point x="86" y="367" type="curve"/>
      <point x="86" y="526"/>
      <point x="131" y="655"/>
      <point x="264" y="655" type="curve"/>
      <point x="324" y="655"/>
      <point x="363" y="632"/>
      <point x="402" y="589" type="curve"/>
      <point x="419" y="603"/>
      <point x="402" y="589"/>
    </contour>
  </outline>
</glyph>
<glyph name="sterling" format="1">
  <advance width="396"/>
  <unicode hex="00A3"/>
  <outline>
    <contour>
      <point x="324" y="23" type="curve"/>
      <point x="227" y="23"/>
      <point x="136" y="23"/>
      <point x="41" y="23" type="curve"/>
      <point x="41" y="0"/>
      <point x="41" y="23"/>
      <point x="41" y="0" type="curve"/>
      <point x="136" y="0"/>
      <point x="230" y="0"/>
      <point x="324" y="0" type="curve"/>
      <point x="324" y="23"/>
      <point x="324" y="0"/>
    </contour>
    <contour>
      <point x="291" y="388" type="curve"/>
      <point x="216" y="388"/>
      <point x="140" y="388"/>
      <point x="66" y="388" type="curve"/>
      <point x="66" y="366"/>
      <point x="66" y="388"/>
      <point x="66" y="366" type="curve"/>
      <point x="140" y="366"/>
      <point x="216" y="366"/>
      <point x="291" y="366" type="curve"/>
      <point x="291" y="388"/>
      <point x="291" y="366"/>
    </contour>
    <contour>
      <point x="334" y="677" type="curve"/>
      <point x="304" y="708"/>
      <point x="279" y="726"/>
      <point x="238" y="726" type="curve"/>
      <point x="92" y="726"/>
      <point x="101" y="561"/>
      <point x="128" y="375" type="curve"/>
      <point x="154" y="193"/>
      <point x="183" y="23"/>
      <point x="41" y="23" type="curve"/>
      <point x="41" y="0"/>
      <point x="41" y="23"/>
      <point x="41" y="0" type="curve"/>
      <point x="206" y="0"/>
      <point x="180" y="181"/>
      <point x="153" y="379" type="curve"/>
      <point x="130" y="547"/>
      <point x="115" y="702"/>
      <point x="236" y="702" type="curve"/>
      <point x="273" y="702"/>
      <point x="295" y="685"/>
      <point x="318" y="661" type="curve"/>
      <point x="334" y="677"/>
      <point x="318" y="661"/>
    </contour>
  </outline>
</glyph>
<glyph name="currency" format="1">
  <advance width="558"/>
  <unicode hex="00A4"/>
  <outline>
    <contour>
      <point x="189" y="310" type="curve"/>
      <point x="189" y="390"/>
      <point x="209" y="457"/>
      <point x="280" y="457" type="curve"/>
      <point x="351" y="457"/>
      <point x="369" y="391"/>
      <point x="369" y="310" type="curve"/>
      <point x="369" y="227"/>
      <point x="354" y="157"/>
      <point x="282" y="157" type="curve"/>
      <point x="208" y="157"/>
      <point x="189" y="226"/>
      <point x="189" y="310" type="curve"/>
      <point x="163" y="310"/>
      <point x="189" y="310"/>
      <point x="163" y="310" type="curve"/>
      <point x="163" y="212"/>
      <point x="194" y="135"/>
      <point x="281" y="135" type="curve"/>
      <point x="367" y="135"/>
      <point x="395" y="215"/>
      <point x="395" y="311" type="curve"/>
      <point x="395" y="404"/>
      <point x="364" y="480"/>
      <point x="282" y="480" type="curve"/>
      <point x="196" y="480"/>
      <point x="163" y="405"/>
      <point x="163" y="310" type="curve"/>
      <point x="189" y="310"/>
      <point x="163" y="310"/>
    </contour>
    <contour>
      <point x="348" y="430" type="line"/>
      <point x="484" y="561" type="line"/>
      <point x="462" y="583" type="line"/>
      <point x="331" y="448" type="line"/>
    </contour>
    <contour>
      <point x="333" y="172" type="line"/>
      <point x="464" y="37" type="line"/>
      <point x="486" y="59" type="line"/>
      <point x="350" y="190" type="line"/>
    </contour>
    <contour>
      <point x="207" y="191" type="line"/>
      <point x="72" y="60" type="line"/>
      <point x="93" y="38" type="line"/>
      <point x="225" y="173" type="line"/>
    </contour>
    <contour>
      <point x="229" y="449" type="line"/>
      <point x="97" y="584" type="line"/>
      <point x="76" y="562" type="line"/>
      <point x="211" y="431" type="line"/>
    </contour>
  </outline>
</glyph>
<glyph name="yen" format="1">
  <advance width="465"/>
  <unicode hex="00A5"/>
  <outline>
    <contour>
      <point x="394" y="371" type="curve"/>
      <point x="344" y="371"/>
      <point x="295" y="371"/>
      <point x="246" y="371" type="curve"/>
      <point x="246" y="347"/>
      <point x="246" y="371"/>
      <point x="246" y="347" type="curve"/>
      <point x="295" y="347"/>
      <point x="344" y="347"/>
      <point x="394" y="347" type="curve"/>
      <point x="394" y="371"/>
      <point x="394" y="347"/>
    </contour>
    <contour>
      <point x="226" y="371" type="curve"/>
      <point x="177" y="371"/>
      <point x="129" y="371"/>
      <point x="81" y="371" type="curve"/>
      <point x="81" y="347"/>
      <point x="81" y="371"/>
      <point x="81" y="347" type="curve"/>
      <point x="129" y="347"/>
      <point x="177" y="347"/>
      <point x="226" y="347" type="curve"/>
      <point x="226" y="371"/>
      <point x="226" y="347"/>
    </contour>
    <contour>
      <point x="394" y="252" type="curve"/>
      <point x="289" y="252"/>
      <point x="185" y="252"/>
      <point x="81" y="252" type="curve"/>
      <point x="81" y="227"/>
      <point x="81" y="252"/>
      <point x="81" y="227" type="curve"/>
      <point x="185" y="227"/>
      <point x="289" y="227"/>
      <point x="394" y="227" type="curve"/>
      <point x="394" y="252"/>
      <point x="394" y="227"/>
    </contour>
    <contour>
      <point x="53" y="722" type="curve"/>
      <point x="108" y="594"/>
      <point x="163" y="465"/>
      <point x="218" y="337" type="curve"/>
      <point x="245" y="337"/>
      <point x="218" y="337"/>
      <point x="245" y="337" type="curve"/>
      <point x="190" y="465"/>
      <point x="135" y="594"/>
      <point x="81" y="722" type="curve"/>
      <point x="53" y="722"/>
      <point x="81" y="722"/>
    </contour>
    <contour>
      <point x="391" y="722" type="curve"/>
      <point x="334" y="594"/>
      <point x="276" y="465"/>
      <point x="218" y="337" type="curve"/>
      <point x="245" y="337"/>
      <point x="218" y="337"/>
      <point x="245" y="337" type="curve"/>
      <point x="303" y="465"/>
      <point x="361" y="594"/>
      <point x="419" y="722" type="curve"/>
      <point x="391" y="722"/>
      <point x="419" y="722"/>
    </contour>
    <contour>
      <point x="245" y="0" type="curve"/>
      <point x="245" y="115"/>
      <point x="245" y="231"/>
      <point x="245" y="346" type="curve"/>
      <point x="218" y="346"/>
      <point x="245" y="346"/>
      <point x="218" y="346" type="curve"/>
      <point x="218" y="231"/>
      <point x="218" y="115"/>
      <point x="218" y="0" type="curve"/>
      <point x="245" y="0"/>
      <point x="218" y="0"/>
    </contour>
  </outline>
</glyph>
<glyph name="dieresis" format="1">
  <advance width="380"/>
  <unicode hex="00A8"/>
  <outline>
    <contour>
      <point x="145" y="669" type="curve"/>
      <point x="145" y="680"/>
      <point x="138" y="687"/>
      <point x="127" y="687" type="curve"/>
      <point x="115" y="687"/>
      <point x="109" y="679"/>
      <point x="109" y="669" type="curve"/>
      <point x="145" y="669"/>
      <point x="109" y="669"/>
      <point x="145" y="669" type="curve"/>
      <point x="145" y="658"/>
      <point x="138" y="651"/>
      <point x="127" y="651" type="curve"/>
      <point x="115" y="651"/>
      <point x="109" y="658"/>
      <point x="109" y="669" type="curve"/>
      <point x="145" y="669"/>
      <point x="109" y="669"/>
    </contour>
    <contour>
      <point x="230" y="669" type="curve"/>
      <point x="230" y="680"/>
      <point x="223" y="687"/>
      <point x="212" y="687" type="curve"/>
      <point x="200" y="687"/>
      <point x="194" y="679"/>
      <point x="194" y="669" type="curve"/>
      <point x="230" y="669"/>
      <point x="194" y="669"/>
      <point x="230" y="669" type="curve"/>
      <point x="230" y="658"/>
      <point x="223" y="651"/>
      <point x="212" y="651" type="curve"/>
      <point x="200" y="651"/>
      <point x="194" y="658"/>
      <point x="194" y="669" type="curve"/>
      <point x="230" y="669"/>
      <point x="194" y="669"/>
    </contour>
    <contour>
      <point x="170" y="655" type="move" name="_top"/>
    </contour>
  </outline>
</glyph>
<glyph name="copyright" format="1">
  <advance width="596"/>
  <unicode hex="00A9"/>
  <outline>
    <contour>
      <point x="99" y="319" type="curve"/>
      <point x="99" y="483"/>
      <point x="155" y="624"/>
      <point x="301" y="624" type="curve"/>
      <point x="444" y="624"/>
      <point x="498" y="482"/>
      <point x="498" y="318" type="curve"/>
      <point x="498" y="158"/>
      <point x="446" y="18"/>
      <point x="305" y="18" type="curve"/>
      <point x="161" y="18"/>
      <point x="99" y="155"/>
      <point x="99" y="319" type="curve"/>
      <point x="73" y="319"/>
      <point x="99" y="319"/>
      <point x="73" y="319" type="curve"/>
      <point x="73" y="144"/>
      <point x="146" y="-5"/>
      <point x="304" y="-5" type="curve"/>
      <point x="459" y="-5"/>
      <point x="523" y="145"/>
      <point x="523" y="319" type="curve"/>
      <point x="523" y="495"/>
      <point x="457" y="646"/>
      <point x="301" y="646" type="curve"/>
      <point x="143" y="646"/>
      <point x="73" y="496"/>
      <point x="73" y="319" type="curve"/>
      <point x="99" y="319"/>
      <point x="73" y="319"/>
    </contour>
    <contour>
      <point x="387" y="464" type="curve"/>
      <point x="362" y="486"/>
      <point x="339" y="496"/>
      <point x="305" y="496" type="curve"/>
      <point x="218" y="496"/>
      <point x="185" y="417"/>
      <point x="185" y="319" type="curve"/>
      <point x="185" y="223"/>
      <point x="212" y="146"/>
      <point x="296" y="146" type="curve"/>
      <point x="338" y="146"/>
      <point x="367" y="160"/>
      <point x="395" y="193" type="curve"/>
      <point x="379" y="208"/>
      <point x="395" y="193"/>
      <point x="379" y="208" type="curve"/>
      <point x="357" y="183"/>
      <point x="333" y="169"/>
      <point x="297" y="169" type="curve"/>
      <point x="226" y="169"/>
      <point x="211" y="238"/>
      <point x="211" y="320" type="curve"/>
      <point x="211" y="404"/>
      <point x="230" y="474"/>
      <point x="304" y="474" type="curve"/>
      <point x="331" y="474"/>
      <point x="352" y="466"/>
      <point x="374" y="447" type="curve"/>
      <point x="387" y="464"/>
      <point x="374" y="446"/>
    </contour>
  </outline>
</glyph>
<glyph name="ordfeminine" format="1">
  <advance width="345"/>
  <unicode hex="00AA"/>
  <outline>
    <contour>
      <point x="252" y="430" type="curve"/>
      <point x="252" y="523"/>
      <point x="252" y="589"/>
      <point x="252" y="682" type="curve"/>
      <point x="252" y="733"/>
      <point x="220" y="766"/>
      <point x="169" y="766" type="curve"/>
      <point x="131" y="766"/>
      <point x="108" y="747"/>
      <point x="84" y="718" type="curve"/>
      <point x="89" y="711"/>
      <point x="93" y="707"/>
      <point x="99" y="700" type="curve"/>
      <point x="115" y="721"/>
      <point x="133" y="744"/>
      <point x="166" y="744" type="curve"/>
      <point x="205" y="744"/>
      <point x="228" y="716"/>
      <point x="228" y="675" type="curve"/>
      <point x="228" y="584"/>
      <point x="228" y="521"/>
      <point x="228" y="430" type="curve"/>
      <point x="238" y="430"/>
      <point x="243" y="430"/>
    </contour>
    <contour>
      <point x="239" y="632" type="curve"/>
      <point x="208" y="626"/>
      <point x="187" y="623"/>
      <point x="156" y="617" type="curve"/>
      <point x="105" y="606"/>
      <point x="71" y="574"/>
      <point x="71" y="520" type="curve"/>
      <point x="71" y="467"/>
      <point x="100" y="429"/>
      <point x="154" y="429" type="curve"/>
      <point x="202" y="429"/>
      <point x="224" y="464"/>
      <point x="246" y="508" type="curve"/>
      <point x="242" y="513"/>
      <point x="238" y="516"/>
      <point x="234" y="520" type="curve"/>
      <point x="215" y="483"/>
      <point x="199" y="451"/>
      <point x="159" y="451" type="curve"/>
      <point x="117" y="451"/>
      <point x="95" y="481"/>
      <point x="95" y="522" type="curve"/>
      <point x="95" y="563"/>
      <point x="118" y="589"/>
      <point x="155" y="597" type="curve"/>
      <point x="186" y="603"/>
      <point x="209" y="607"/>
      <point x="240" y="613" type="curve"/>
      <point x="240" y="620"/>
      <point x="239" y="625"/>
    </contour>
  </outline>
</glyph>
<glyph name="guillemotleft" format="1">
  <advance width="478"/>
  <unicode hex="00AB"/>
  <outline>
    <contour>
      <point x="234" y="401" type="curve"/>
      <point x="234" y="401"/>
      <point x="52" y="289"/>
      <point x="51" y="289" type="curve"/>
      <point x="51" y="264"/>
      <point x="51" y="289"/>
      <point x="51" y="264" type="curve"/>
      <point x="52" y="264"/>
      <point x="234" y="375"/>
      <point x="234" y="376" type="curve"/>
      <point x="234" y="401"/>
      <point x="234" y="376"/>
    </contour>
    <contour>
      <point x="235" y="176" type="curve"/>
      <point x="235" y="177"/>
      <point x="52" y="288"/>
      <point x="51" y="289" type="curve"/>
      <point x="51" y="264"/>
      <point x="51" y="289"/>
      <point x="51" y="264" type="curve"/>
      <point x="52" y="263"/>
      <point x="235" y="153"/>
      <point x="235" y="152" type="curve"/>
      <point x="235" y="176"/>
      <point x="235" y="152"/>
    </contour>
    <contour>
      <point x="393" y="401" type="curve"/>
      <point x="211" y="289" type="line"/>
      <point x="211" y="264"/>
      <point x="211" y="289"/>
      <point x="211" y="264" type="curve"/>
      <point x="211" y="264"/>
      <point x="393" y="375"/>
      <point x="393" y="376" type="curve"/>
      <point x="393" y="401"/>
      <point x="393" y="376"/>
    </contour>
    <contour>
      <point x="394" y="176" type="curve"/>
      <point x="394" y="177"/>
      <point x="211" y="288"/>
      <point x="211" y="289" type="curve"/>
      <point x="211" y="264"/>
      <point x="211" y="289"/>
      <point x="211" y="264" type="curve"/>
      <point x="211" y="263"/>
      <point x="394" y="153"/>
      <point x="394" y="152" type="curve"/>
      <point x="394" y="176"/>
      <point x="394" y="152"/>
    </contour>
  </outline>
</glyph>
<glyph name="registered" format="1">
  <advance width="597"/>
  <unicode hex="00AE"/>
  <outline>
    <contour>
      <point x="99" y="319" type="curve"/>
      <point x="99" y="483"/>
      <point x="155" y="624"/>
      <point x="301" y="624" type="curve"/>
      <point x="444" y="624"/>
      <point x="498" y="482"/>
      <point x="498" y="318" type="curve"/>
      <point x="498" y="158"/>
      <point x="446" y="18"/>
      <point x="305" y="18" type="curve"/>
      <point x="161" y="18"/>
      <point x="99" y="155"/>
      <point x="99" y="319" type="curve"/>
      <point x="74" y="319"/>
      <point x="99" y="319"/>
      <point x="74" y="319" type="curve"/>
      <point x="74" y="144"/>
      <point x="146" y="-5"/>
      <point x="304" y="-5" type="curve"/>
      <point x="460" y="-5"/>
      <point x="523" y="145"/>
      <point x="523" y="319" type="curve"/>
      <point x="523" y="495"/>
      <point x="458" y="646"/>
      <point x="301" y="646" type="curve"/>
      <point x="143" y="646"/>
      <point x="74" y="496"/>
      <point x="74" y="319" type="curve"/>
      <point x="99" y="319"/>
      <point x="74" y="319"/>
    </contour>
    <contour>
      <point x="302" y="309" type="curve"/>
      <point x="323" y="256"/>
      <point x="345" y="201"/>
      <point x="366" y="149" type="curve"/>
      <point x="381" y="149"/>
      <point x="375" y="149"/>
      <point x="393" y="149" type="curve"/>
      <point x="372" y="200"/>
      <point x="350" y="256"/>
      <point x="329" y="310" type="curve"/>
      <point x="302" y="309"/>
      <point x="329" y="310"/>
    </contour>
    <contour>
      <point x="261" y="149" type="curve"/>
      <point x="261" y="263"/>
      <point x="261" y="377"/>
      <point x="261" y="491" type="curve"/>
      <point x="243" y="491"/>
      <point x="251" y="491"/>
      <point x="235" y="491" type="curve"/>
      <point x="235" y="377"/>
      <point x="235" y="262"/>
      <point x="235" y="149" type="curve"/>
      <point x="253" y="149"/>
      <point x="241" y="149"/>
    </contour>
    <contour>
      <point x="249" y="295" type="curve"/>
      <point x="263" y="295"/>
      <point x="278" y="295"/>
      <point x="292" y="295" type="curve"/>
      <point x="349" y="295"/>
      <point x="378" y="331"/>
      <point x="378" y="392" type="curve"/>
      <point x="378" y="449"/>
      <point x="352" y="491"/>
      <point x="299" y="491" type="curve"/>
      <point x="287" y="491"/>
      <point x="273" y="491"/>
      <point x="260" y="491" type="curve"/>
      <point x="235" y="469"/>
      <point x="261" y="491"/>
      <point x="235" y="469" type="curve"/>
      <point x="255" y="469"/>
      <point x="275" y="469"/>
      <point x="295" y="469" type="curve"/>
      <point x="335" y="469"/>
      <point x="353" y="435"/>
      <point x="353" y="390" type="curve"/>
      <point x="353" y="345"/>
      <point x="335" y="317"/>
      <point x="296" y="317" type="curve"/>
      <point x="280" y="317"/>
      <point x="264" y="317"/>
      <point x="249" y="317" type="curve"/>
      <point x="249" y="295"/>
      <point x="249" y="317"/>
    </contour>
  </outline>
</glyph>
<glyph name="macron" format="1">
  <advance width="259"/>
  <unicode hex="00AF"/>
  <outline>
    <contour>
      <point x="199" y="680" type="curve"/>
      <point x="147" y="680"/>
      <point x="94" y="680"/>
      <point x="42" y="680" type="curve"/>
      <point x="42" y="658"/>
      <point x="42" y="680"/>
      <point x="42" y="658" type="curve"/>
      <point x="94" y="658"/>
      <point x="147" y="658"/>
      <point x="199" y="658" type="curve"/>
      <point x="199" y="680"/>
      <point x="199" y="658"/>
    </contour>
    <contour>
      <point x="122" y="658" type="move" name="_top"/>
    </contour>
  </outline>
</glyph>
<glyph name="degree" format="1">
  <advance width="387"/>
  <unicode hex="00B0"/>
  <outline>
    <contour>
      <point x="313" y="433" type="curve"/>
      <point x="313" y="545"/>
      <point x="291" y="640"/>
      <point x="194" y="640" type="curve"/>
      <point x="97" y="640"/>
      <point x="76" y="546"/>
      <point x="76" y="435" type="curve"/>
      <point x="99" y="435"/>
      <point x="76" y="435"/>
      <point x="100" y="435" type="curve"/>
      <point x="100" y="531"/>
      <point x="108" y="618"/>
      <point x="191" y="618" type="curve"/>
      <point x="276" y="618"/>
      <point x="289" y="531"/>
      <point x="289" y="433" type="curve"/>
      <point x="289" y="331"/>
      <point x="281" y="241"/>
      <point x="194" y="241" type="curve"/>
      <point x="107" y="241"/>
      <point x="100" y="333"/>
      <point x="100" y="435" type="curve"/>
      <point x="76" y="435"/>
      <point x="99" y="435"/>
      <point x="76" y="435" type="curve"/>
      <point x="76" y="318"/>
      <point x="93" y="219"/>
      <point x="193" y="219" type="curve"/>
      <point x="293" y="219"/>
      <point x="313" y="317"/>
    </contour>
  </outline>
</glyph>
<glyph name="twosuperior" format="1">
  <advance width="372"/>
  <unicode hex="00B2"/>
  <outline>
    <contour>
      <point x="68" y="280" type="curve"/>
      <point x="144" y="280"/>
      <point x="219" y="280"/>
      <point x="294" y="280" type="curve"/>
      <point x="294" y="292"/>
      <point x="294" y="294"/>
      <point x="294" y="303" type="curve"/>
      <point x="218" y="303"/>
      <point x="143" y="303"/>
      <point x="68" y="303" type="curve"/>
      <point x="68" y="280"/>
      <point x="68" y="303"/>
    </contour>
    <contour>
      <point x="110" y="598" type="curve"/>
      <point x="126" y="639"/>
      <point x="143" y="673"/>
      <point x="187" y="673" type="curve"/>
      <point x="237" y="673"/>
      <point x="258" y="630"/>
      <point x="258" y="575" type="curve"/>
      <point x="258" y="525"/>
      <point x="235" y="494"/>
      <point x="204" y="456" type="curve"/>
      <point x="159" y="405"/>
      <point x="113" y="354"/>
      <point x="68" y="303" type="curve"/>
      <point x="79" y="280"/>
      <point x="68" y="303"/>
      <point x="79" y="280" type="curve"/>
      <point x="126" y="333"/>
      <point x="173" y="385"/>
      <point x="220" y="438" type="curve"/>
      <point x="255" y="483"/>
      <point x="281" y="518"/>
      <point x="281" y="576" type="curve"/>
      <point x="281" y="644"/>
      <point x="250" y="695"/>
      <point x="188" y="695" type="curve"/>
      <point x="136" y="695"/>
      <point x="108" y="661"/>
      <point x="90" y="607" type="curve"/>
      <point x="110" y="598"/>
      <point x="90" y="607"/>
    </contour>
    <contour>
      <point x="200" y="695" type="move" name="_top"/>
    </contour>
    <contour>
      <point x="173" y="279" type="move" name="_bottom"/>
    </contour>
  </outline>
</glyph>
<glyph name="threesuperior" format="1">
  <advance width="337"/>
  <unicode hex="00B3"/>
  <outline>
    <contour>
      <point x="94" y="630" type="curve"/>
      <point x="109" y="652"/>
      <point x="129" y="674"/>
      <point x="158" y="674" type="curve"/>
      <point x="206" y="674"/>
      <point x="230" y="639"/>
      <point x="230" y="588" type="curve"/>
      <point x="230" y="536"/>
      <point x="185" y="505"/>
      <point x="128" y="500" type="curve"/>
      <point x="128" y="480"/>
      <point x="128" y="500"/>
      <point x="128" y="480" type="curve"/>
      <point x="201" y="483"/>
      <point x="255" y="521"/>
      <point x="255" y="590" type="curve"/>
      <point x="255" y="653"/>
      <point x="222" y="695"/>
      <point x="161" y="695" type="curve"/>
      <point x="125" y="695"/>
      <point x="95" y="671"/>
      <point x="77" y="642" type="curve"/>
      <point x="94" y="630"/>
      <point x="77" y="642"/>
    </contour>
    <contour>
      <point x="73" y="309" type="curve"/>
      <point x="96" y="288"/>
      <point x="122" y="276"/>
      <point x="153" y="276" type="curve"/>
      <point x="223" y="272"/>
      <point x="267" y="317"/>
      <point x="266" y="388" type="curve"/>
      <point x="266" y="460"/>
      <point x="205" y="489"/>
      <point x="128" y="493" type="curve"/>
      <point x="128" y="476"/>
      <point x="128" y="493"/>
      <point x="128" y="476" type="curve"/>
      <point x="194" y="471"/>
      <point x="241" y="441"/>
      <point x="241" y="387" type="curve"/>
      <point x="240" y="333"/>
      <point x="210" y="296"/>
      <point x="156" y="298" type="curve"/>
      <point x="129" y="298"/>
      <point x="106" y="309"/>
      <point x="85" y="326" type="curve"/>
      <point x="73" y="309"/>
      <point x="85" y="326"/>
    </contour>
    <contour>
      <point x="184" y="695" type="move" name="_top"/>
    </contour>
    <contour>
      <point x="166" y="276" type="move" name="_bottom"/>
    </contour>
  </outline>
</glyph>
<glyph name="paragraph" format="1">
  <advance width="554"/>
  <unicode hex="00B6"/>
  <outline>
    <contour>
      <point x="314" y="699" type="curve"/>
      <point x="446" y="699"/>
      <point x="314" y="699"/>
      <point x="446" y="699" type="curve"/>
      <point x="446" y="722"/>
      <point x="446" y="699"/>
      <point x="446" y="722" type="curve"/>
      <point x="402" y="722"/>
      <point x="358" y="722"/>
      <point x="314" y="722" type="curve"/>
      <point x="314" y="699"/>
      <point x="314" y="722"/>
    </contour>
    <contour>
      <point x="308" y="346" type="curve"/>
      <point x="274" y="320"/>
      <point x="247" y="304"/>
      <point x="204" y="304" type="curve"/>
      <point x="112" y="304"/>
      <point x="73" y="388"/>
      <point x="73" y="493" type="curve"/>
      <point x="73" y="607"/>
      <point x="120" y="699"/>
      <point x="225" y="699" type="curve"/>
      <point x="254" y="699"/>
      <point x="283" y="699"/>
      <point x="312" y="699" type="curve"/>
      <point x="312" y="722"/>
      <point x="312" y="699"/>
      <point x="312" y="722" type="curve"/>
      <point x="282" y="722"/>
      <point x="251" y="722"/>
      <point x="221" y="722" type="curve"/>
      <point x="104" y="722"/>
      <point x="48" y="621"/>
      <point x="48" y="494" type="curve"/>
      <point x="48" y="369"/>
      <point x="97" y="282"/>
      <point x="206" y="280" type="curve"/>
      <point x="249" y="280"/>
      <point x="285" y="300"/>
      <point x="317" y="325" type="curve"/>
      <point x="308" y="345"/>
      <point x="317" y="326"/>
    </contour>
    <contour>
      <point x="327" y="0" type="curve"/>
      <point x="327" y="241"/>
      <point x="327" y="481"/>
      <point x="327" y="722" type="curve"/>
      <point x="302" y="722"/>
      <point x="327" y="722"/>
      <point x="302" y="722" type="curve"/>
      <point x="302" y="481"/>
      <point x="302" y="241"/>
      <point x="302" y="0" type="curve"/>
      <point x="327" y="0"/>
      <point x="302" y="0"/>
    </contour>
    <contour>
      <point x="454" y="0" type="curve"/>
      <point x="454" y="241"/>
      <point x="454" y="481"/>
      <point x="454" y="722" type="curve"/>
      <point x="429" y="722"/>
      <point x="454" y="722"/>
      <point x="429" y="722" type="curve"/>
      <point x="429" y="481"/>
      <point x="429" y="241"/>
      <point x="429" y="0" type="curve"/>
      <point x="454" y="0"/>
      <point x="429" y="0"/>
    </contour>
  </outline>
</glyph>
<glyph name="cedilla" format="1">
  <advance width="265"/>
  <unicode hex="00B8"/>
  <outline>
    <contour>
      <point x="153" y="18" type="curve"/>
      <point x="142" y="-8"/>
      <point x="132" y="-36"/>
      <point x="122" y="-62" type="curve"/>
      <point x="140" y="-81"/>
      <point x="122" y="-62"/>
      <point x="140" y="-81" type="curve"/>
      <point x="150" y="-53"/>
      <point x="162" y="-24"/>
      <point x="172" y="3" type="curve"/>
      <point x="153" y="18"/>
      <point x="172" y="3"/>
    </contour>
    <contour>
      <point x="140" y="-81" type="curve"/>
      <point x="149" y="-72"/>
      <point x="156" y="-68"/>
      <point x="169" y="-68" type="curve"/>
      <point x="196" y="-68"/>
      <point x="202" y="-94"/>
      <point x="202" y="-124" type="curve"/>
      <point x="202" y="-156"/>
      <point x="189" y="-179"/>
      <point x="160" y="-179" type="curve"/>
      <point x="141" y="-179"/>
      <point x="127" y="-175"/>
      <point x="113" y="-162" type="curve"/>
      <point x="102" y="-180"/>
      <point x="113" y="-162"/>
      <point x="102" y="-180" type="curve"/>
      <point x="119" y="-195"/>
      <point x="136" y="-202"/>
      <point x="159" y="-202" type="curve"/>
      <point x="203" y="-202"/>
      <point x="227" y="-170"/>
      <point x="227" y="-124" type="curve"/>
      <point x="227" y="-80"/>
      <point x="210" y="-45"/>
      <point x="171" y="-45" type="curve"/>
      <point x="151" y="-45"/>
      <point x="138" y="-51"/>
      <point x="122" y="-62" type="curve"/>
      <point x="140" y="-81"/>
      <point x="122" y="-62"/>
    </contour>
    <contour>
      <point x="172" y="3" type="move" name="_bottom"/>
    </contour>
  </outline>
</glyph>
<glyph name="onesuperior" format="1">
  <advance width="251"/>
  <unicode hex="00B9"/>
  <outline>
    <contour>
      <point x="52" y="558" type="line"/>
      <point x="152" y="677" type="line"/>
      <point x="129" y="686" type="line"/>
      <point x="34" y="574" type="line"/>
    </contour>
    <contour>
      <point x="154" y="280" type="curve"/>
      <point x="154" y="686" type="line"/>
      <point x="129" y="686" type="line"/>
      <point x="129" y="280" type="line"/>
      <point x="145" y="280"/>
      <point x="143" y="280"/>
    </contour>
    <contour>
      <point x="142" y="683" type="move" name="_top"/>
    </contour>
    <contour>
      <point x="143" y="285" type="move" name="_bottom"/>
    </contour>
  </outline>
</glyph>
<glyph name="ordmasculine" format="1">
  <advance width="329"/>
  <unicode hex="00BA"/>
  <outline>
    <contour>
      <point x="88" y="606" type="curve"/>
      <point x="88" y="683"/>
      <point x="103" y="744"/>
      <point x="167" y="744" type="curve"/>
      <point x="228" y="744"/>
      <point x="241" y="681"/>
      <point x="241" y="604" type="curve"/>
      <point x="241" y="518"/>
      <point x="228" y="447"/>
      <point x="170" y="447" type="curve"/>
      <point x="100" y="447"/>
      <point x="88" y="520"/>
      <point x="88" y="606" type="curve"/>
      <point x="65" y="606"/>
      <point x="87" y="606"/>
      <point x="64" y="606" type="curve"/>
      <point x="64" y="506"/>
      <point x="84" y="425"/>
      <point x="169" y="425" type="curve"/>
      <point x="246" y="425"/>
      <point x="266" y="505"/>
      <point x="266" y="604" type="curve"/>
      <point x="266" y="694"/>
      <point x="246" y="765"/>
      <point x="168" y="765" type="curve"/>
      <point x="85" y="765"/>
      <point x="64" y="694"/>
      <point x="64" y="606" type="curve"/>
      <point x="87" y="606"/>
      <point x="65" y="606"/>
    </contour>
  </outline>
</glyph>
<glyph name="onequarter" format="1">
  <advance width="671"/>
  <unicode hex="00BC"/>
  <outline>
    <contour>
      <point x="189" y="-92" type="line"/>
      <point x="489" y="757" type="line"/>
      <point x="460" y="757" type="line"/>
      <point x="161" y="-92" type="line"/>
    </contour>
    <contour>
      <point x="53" y="634" type="line"/>
      <point x="153" y="754" type="line"/>
      <point x="130" y="762" type="line"/>
      <point x="35" y="650" type="line"/>
    </contour>
    <contour>
      <point x="155" y="356" type="curve"/>
      <point x="155" y="762" type="line"/>
      <point x="130" y="762" type="line"/>
      <point x="130" y="356" type="line"/>
      <point x="146" y="356"/>
      <point x="144" y="356"/>
    </contour>
    <contour>
      <point x="633" y="46" type="line"/>
      <point x="353" y="46" type="line"/>
      <point x="353" y="26" type="line"/>
      <point x="633" y="26" type="line"/>
    </contour>
    <contour>
      <point x="367" y="26" type="line"/>
      <point x="545" y="332" type="line"/>
      <point x="521" y="341" type="line"/>
      <point x="353" y="46" type="line"/>
    </contour>
    <contour>
      <point x="545" y="-91" type="line"/>
      <point x="545" y="341" type="line"/>
      <point x="521" y="341" type="line"/>
      <point x="521" y="-91" type="line"/>
    </contour>
  </outline>
</glyph>
<glyph name="onehalf" format="1">
  <advance width="692"/>
  <unicode hex="00BD"/>
  <outline>
    <contour>
      <point x="202" y="-92" type="line"/>
      <point x="501" y="757" type="line"/>
      <point x="472" y="757" type="line"/>
      <point x="174" y="-92" type="line"/>
    </contour>
    <contour>
      <point x="53" y="634" type="line"/>
      <point x="153" y="754" type="line"/>
      <point x="130" y="762" type="line"/>
      <point x="35" y="650" type="line"/>
    </contour>
    <contour>
      <point x="155" y="356" type="curve"/>
      <point x="155" y="762" type="line"/>
      <point x="130" y="762" type="line"/>
      <point x="130" y="356" type="line"/>
      <point x="146" y="356"/>
      <point x="144" y="356"/>
    </contour>
    <contour>
      <point x="419" y="-91" type="curve"/>
      <point x="495" y="-91"/>
      <point x="571" y="-91"/>
      <point x="646" y="-91" type="curve"/>
      <point x="646" y="-80"/>
      <point x="646" y="-77"/>
      <point x="646" y="-69" type="curve"/>
      <point x="570" y="-69"/>
      <point x="494" y="-69"/>
      <point x="419" y="-69" type="curve"/>
      <point x="419" y="-91"/>
      <point x="419" y="-69"/>
    </contour>
    <contour>
      <point x="462" y="226" type="curve"/>
      <point x="477" y="267"/>
      <point x="494" y="301"/>
      <point x="538" y="301" type="curve"/>
      <point x="588" y="301"/>
      <point x="609" y="258"/>
      <point x="609" y="204" type="curve"/>
      <point x="609" y="154"/>
      <point x="586" y="123"/>
      <point x="555" y="84" type="curve"/>
      <point x="510" y="33"/>
      <point x="464" y="-18"/>
      <point x="419" y="-69" type="curve"/>
      <point x="430" y="-91"/>
      <point x="419" y="-69"/>
      <point x="430" y="-91" type="curve"/>
      <point x="477" y="-38"/>
      <point x="524" y="14"/>
      <point x="572" y="66" type="curve"/>
      <point x="607" y="112"/>
      <point x="633" y="147"/>
      <point x="633" y="205" type="curve"/>
      <point x="633" y="273"/>
      <point x="601" y="324"/>
      <point x="539" y="324" type="curve"/>
      <point x="487" y="324"/>
      <point x="459" y="290"/>
      <point x="441" y="236" type="curve"/>
      <point x="462" y="226"/>
      <point x="441" y="236"/>
    </contour>
  </outline>
</glyph>
<glyph name="threequarters" format="1">
  <advance width="704"/>
  <unicode hex="00BE"/>
  <outline>
    <contour>
      <point x="224" y="-92" type="line"/>
      <point x="523" y="757" type="line"/>
      <point x="494" y="757" type="line"/>
      <point x="195" y="-92" type="line"/>
    </contour>
    <contour>
      <point x="76" y="694" type="curve"/>
      <point x="91" y="716"/>
      <point x="111" y="738"/>
      <point x="140" y="738" type="curve"/>
      <point x="188" y="738"/>
      <point x="213" y="703"/>
      <point x="213" y="652" type="curve"/>
      <point x="213" y="600"/>
      <point x="167" y="569"/>
      <point x="110" y="564" type="curve"/>
      <point x="110" y="544"/>
      <point x="110" y="564"/>
      <point x="110" y="544" type="curve"/>
      <point x="183" y="547"/>
      <point x="238" y="585"/>
      <point x="238" y="654" type="curve"/>
      <point x="238" y="717"/>
      <point x="204" y="759"/>
      <point x="143" y="759" type="curve"/>
      <point x="107" y="759"/>
      <point x="77" y="735"/>
      <point x="59" y="706" type="curve"/>
      <point x="76" y="694"/>
      <point x="59" y="706"/>
    </contour>
    <contour>
      <point x="55" y="373" type="curve"/>
      <point x="78" y="352"/>
      <point x="104" y="340"/>
      <point x="135" y="340" type="curve"/>
      <point x="205" y="336"/>
      <point x="250" y="381"/>
      <point x="249" y="453" type="curve"/>
      <point x="249" y="524"/>
      <point x="187" y="554"/>
      <point x="110" y="557" type="curve"/>
      <point x="110" y="540"/>
      <point x="110" y="557"/>
      <point x="110" y="540" type="curve"/>
      <point x="176" y="535"/>
      <point x="224" y="505"/>
      <point x="224" y="451" type="curve"/>
      <point x="223" y="397"/>
      <point x="192" y="360"/>
      <point x="138" y="362" type="curve"/>
      <point x="111" y="362"/>
      <point x="88" y="373"/>
      <point x="67" y="390" type="curve"/>
      <point x="55" y="373"/>
      <point x="67" y="390"/>
    </contour>
    <contour>
      <point x="667" y="46" type="line"/>
      <point x="387" y="46" type="line"/>
      <point x="387" y="26" type="line"/>
      <point x="667" y="26" type="line"/>
    </contour>
    <contour>
      <point x="401" y="26" type="line"/>
      <point x="579" y="332" type="line"/>
      <point x="555" y="341" type="line"/>
      <point x="387" y="46" type="line"/>
    </contour>
    <contour>
      <point x="579" y="-91" type="line"/>
      <point x="579" y="341" type="line"/>
      <point x="555" y="341" type="line"/>
      <point x="555" y="-91" type="line"/>
    </contour>
  </outline>
</glyph>
<glyph name="Aacute" format="1">
  <advance width="458"/>
  <unicode hex="00C1"/>
  <outline>
    <contour>
      <point x="347" y="277" type="curve"/>
      <point x="266" y="277"/>
      <point x="186" y="277"/>
      <point x="105" y="277" type="curve"/>
      <point x="94" y="253"/>
      <point x="105" y="277"/>
      <point x="94" y="253" type="curve"/>
      <point x="182" y="253"/>
      <point x="268" y="253"/>
      <point x="355" y="253" type="curve"/>
      <point x="347" y="277"/>
      <point x="355" y="253"/>
    </contour>
    <contour>
      <point x="432" y="0" type="curve"/>
      <point x="369" y="241"/>
      <point x="306" y="481"/>
      <point x="243" y="722" type="curve"/>
      <point x="220" y="722"/>
      <point x="243" y="722"/>
      <point x="220" y="722" type="curve"/>
      <point x="282" y="481"/>
      <point x="344" y="241"/>
      <point x="406" y="0" type="curve"/>
      <point x="432" y="0"/>
      <point x="406" y="0"/>
    </contour>
    <contour>
      <point x="34" y="0" type="curve"/>
      <point x="103" y="241"/>
      <point x="172" y="481"/>
      <point x="241" y="722" type="curve"/>
      <point x="218" y="722"/>
      <point x="241" y="722"/>
      <point x="218" y="722" type="curve"/>
      <point x="148" y="481"/>
      <point x="77" y="241"/>
      <point x="6" y="0" type="curve"/>
      <point x="34" y="0"/>
      <point x="6" y="0"/>
    </contour>
    <contour>
      <point x="242" y="825" type="line"/>
      <point x="316" y="991" type="line"/>
      <point x="283" y="991" type="line"/>
      <point x="217" y="825" type="line"/>
    </contour>
  </outline>
</glyph>
<glyph name="Acircumflex" format="1">
  <advance width="458"/>
  <unicode hex="00C2"/>
  <outline>
    <contour>
      <point x="347" y="277" type="curve"/>
      <point x="266" y="277"/>
      <point x="186" y="277"/>
      <point x="105" y="277" type="curve"/>
      <point x="94" y="253"/>
      <point x="105" y="277"/>
      <point x="94" y="253" type="curve"/>
      <point x="182" y="253"/>
      <point x="268" y="253"/>
      <point x="355" y="253" type="curve"/>
      <point x="347" y="277"/>
      <point x="355" y="253"/>
    </contour>
    <contour>
      <point x="432" y="0" type="curve"/>
      <point x="369" y="241"/>
      <point x="306" y="481"/>
      <point x="243" y="722" type="curve"/>
      <point x="220" y="722"/>
      <point x="243" y="722"/>
      <point x="220" y="722" type="curve"/>
      <point x="282" y="481"/>
      <point x="344" y="241"/>
      <point x="406" y="0" type="curve"/>
      <point x="432" y="0"/>
      <point x="406" y="0"/>
    </contour>
    <contour>
      <point x="34" y="0" type="curve"/>
      <point x="103" y="241"/>
      <point x="172" y="481"/>
      <point x="241" y="722" type="curve"/>
      <point x="218" y="722"/>
      <point x="241" y="722"/>
      <point x="218" y="722" type="curve"/>
      <point x="148" y="481"/>
      <point x="77" y="241"/>
      <point x="6" y="0" type="curve"/>
      <point x="34" y="0"/>
      <point x="6" y="0"/>
    </contour>
    <contour>
      <point x="168" y="825" type="line"/>
      <point x="241" y="991" type="line"/>
      <point x="209" y="991" type="line"/>
      <point x="143" y="825" type="line"/>
    </contour>
    <contour>
      <point x="318" y="825" type="line"/>
      <point x="252" y="991" type="line"/>
      <point x="219" y="991" type="line"/>
      <point x="293" y="825" type="line"/>
    </contour>
  </outline>
</glyph>
<glyph name="Atilde" format="1">
  <advance width="458"/>
  <unicode hex="00C3"/>
  <outline>
    <contour>
      <point x="347" y="277" type="curve"/>
      <point x="266" y="277"/>
      <point x="186" y="277"/>
      <point x="105" y="277" type="curve"/>
      <point x="94" y="253"/>
      <point x="105" y="277"/>
      <point x="94" y="253" type="curve"/>
      <point x="182" y="253"/>
      <point x="268" y="253"/>
      <point x="355" y="253" type="curve"/>
      <point x="347" y="277"/>
      <point x="355" y="253"/>
    </contour>
    <contour>
      <point x="432" y="0" type="curve"/>
      <point x="369" y="241"/>
      <point x="306" y="481"/>
      <point x="243" y="722" type="curve"/>
      <point x="220" y="722"/>
      <point x="243" y="722"/>
      <point x="220" y="722" type="curve"/>
      <point x="282" y="481"/>
      <point x="344" y="241"/>
      <point x="406" y="0" type="curve"/>
      <point x="432" y="0"/>
      <point x="406" y="0"/>
    </contour>
    <contour>
      <point x="34" y="0" type="curve"/>
      <point x="103" y="241"/>
      <point x="172" y="481"/>
      <point x="241" y="722" type="curve"/>
      <point x="218" y="722"/>
      <point x="241" y="722"/>
      <point x="218" y="722" type="curve"/>
      <point x="148" y="481"/>
      <point x="77" y="241"/>
      <point x="6" y="0" type="curve"/>
      <point x="34" y="0"/>
      <point x="6" y="0"/>
    </contour>
    <contour>
      <point x="346" y="949" type="curve"/>
      <point x="337" y="899"/>
      <point x="332" y="847"/>
      <point x="298" y="847" type="curve"/>
      <point x="269" y="847"/>
      <point x="256" y="869"/>
      <point x="240" y="896" type="curve"/>
      <point x="220" y="925"/>
      <point x="205" y="950"/>
      <point x="171" y="950" type="curve"/>
      <point x="113" y="950"/>
      <point x="105" y="894"/>
      <point x="96" y="831" type="curve"/>
      <point x="117" y="825"/>
      <point x="96" y="831"/>
      <point x="117" y="825" type="curve"/>
      <point x="125" y="877"/>
      <point x="129" y="927"/>
      <point x="171" y="927" type="curve"/>
      <point x="199" y="927"/>
      <point x="208" y="904"/>
      <point x="222" y="880" type="curve"/>
      <point x="242" y="848"/>
      <point x="260" y="825"/>
      <point x="297" y="825" type="curve"/>
      <point x="354" y="825"/>
      <point x="357" y="884"/>
      <point x="368" y="945" type="curve"/>
      <point x="346" y="949"/>
      <point x="368" y="945"/>
    </contour>
  </outline>
</glyph>
<glyph name="Aring" format="1">
  <advance width="458"/>
  <unicode hex="00C5"/>
  <outline>
    <contour>
      <point x="347" y="277" type="curve"/>
      <point x="266" y="277"/>
      <point x="186" y="277"/>
      <point x="105" y="277" type="curve"/>
      <point x="94" y="253"/>
      <point x="105" y="277"/>
      <point x="94" y="253" type="curve"/>
      <point x="182" y="253"/>
      <point x="268" y="253"/>
      <point x="355" y="253" type="curve"/>
      <point x="347" y="277"/>
      <point x="355" y="253"/>
    </contour>
    <contour>
      <point x="432" y="0" type="curve"/>
      <point x="369" y="241"/>
      <point x="306" y="481"/>
      <point x="243" y="722" type="curve"/>
      <point x="220" y="722"/>
      <point x="243" y="722"/>
      <point x="220" y="722" type="curve"/>
      <point x="282" y="481"/>
      <point x="344" y="241"/>
      <point x="406" y="0" type="curve"/>
      <point x="432" y="0"/>
      <point x="406" y="0"/>
    </contour>
    <contour>
      <point x="34" y="0" type="curve"/>
      <point x="103" y="241"/>
      <point x="172" y="481"/>
      <point x="241" y="722" type="curve"/>
      <point x="218" y="722"/>
      <point x="241" y="722"/>
      <point x="218" y="722" type="curve"/>
      <point x="148" y="481"/>
      <point x="77" y="241"/>
      <point x="6" y="0" type="curve"/>
      <point x="34" y="0"/>
      <point x="6" y="0"/>
    </contour>
    <contour>
      <point x="147" y="940" type="curve"/>
      <point x="147" y="875"/>
      <point x="171" y="824"/>
      <point x="231" y="824" type="curve"/>
      <point x="291" y="824"/>
      <point x="316" y="874"/>
      <point x="316" y="940" type="curve"/>
      <point x="316" y="1006"/>
      <point x="290" y="1057"/>
      <point x="229" y="1057" type="curve"/>
      <point x="170" y="1057"/>
      <point x="147" y="1006"/>
      <point x="147" y="940" type="curve"/>
      <point x="171" y="940"/>
      <point x="147" y="940"/>
      <point x="171" y="940" type="curve"/>
      <point x="171" y="992"/>
      <point x="184" y="1034"/>
      <point x="229" y="1034" type="curve"/>
      <point x="275" y="1034"/>
      <point x="291" y="993"/>
      <point x="291" y="940" type="curve"/>
      <point x="291" y="888"/>
      <point x="276" y="845"/>
      <point x="231" y="845" type="curve"/>
      <point x="185" y="845"/>
      <point x="171" y="888"/>
      <point x="171" y="940" type="curve"/>
      <point x="147" y="940"/>
      <point x="171" y="940"/>
    </contour>
  </outline>
</glyph>
<glyph name="AE" format="1">
  <advance width="650"/>
  <unicode hex="00C6"/>
  <outline>
    <contour>
      <point x="322" y="277" type="curve"/>
      <point x="241" y="277"/>
      <point x="211" y="277"/>
      <point x="130" y="277" type="curve"/>
      <point x="120" y="253"/>
      <point x="130" y="277"/>
      <point x="120" y="253" type="curve"/>
      <point x="207" y="253"/>
      <point x="243" y="253"/>
      <point x="330" y="253" type="curve"/>
      <point x="322" y="277"/>
      <point x="330" y="253"/>
    </contour>
    <contour>
      <point x="26" y="0" type="curve"/>
      <point x="334" y="722" type="line"/>
      <point x="311" y="722"/>
      <point x="334" y="722"/>
      <point x="311" y="722" type="curve"/>
      <point x="-2" y="0" type="line"/>
      <point x="26" y="0"/>
      <point x="-2" y="0"/>
    </contour>
    <contour>
      <point x="327" y="363" type="curve"/>
      <point x="404" y="363"/>
      <point x="480" y="363"/>
      <point x="557" y="363" type="curve"/>
      <point x="557" y="385"/>
      <point x="557" y="363"/>
      <point x="557" y="385" type="curve"/>
      <point x="480" y="385"/>
      <point x="404" y="385"/>
      <point x="327" y="385" type="curve"/>
      <point x="327" y="363"/>
      <point x="327" y="385"/>
    </contour>
    <contour>
      <point x="317" y="699" type="curve"/>
      <point x="412" y="699"/>
      <point x="506" y="699"/>
      <point x="601" y="699" type="curve"/>
      <point x="601" y="722"/>
      <point x="601" y="699"/>
      <point x="601" y="722" type="curve"/>
      <point x="506" y="722"/>
      <point x="412" y="722"/>
      <point x="317" y="722" type="curve"/>
      <point x="317" y="699"/>
      <point x="317" y="722"/>
    </contour>
    <contour>
      <point x="337" y="0" type="curve"/>
      <point x="337" y="722" type="line"/>
      <point x="312" y="722"/>
      <point x="337" y="722"/>
      <point x="312" y="722" type="curve"/>
      <point x="312" y="481"/>
      <point x="312" y="241"/>
      <point x="312" y="0" type="curve"/>
      <point x="337" y="0"/>
      <point x="312" y="0"/>
    </contour>
    <contour>
      <point x="317" y="0" type="curve"/>
      <point x="420" y="0"/>
      <point x="522" y="0"/>
      <point x="625" y="0" type="curve"/>
      <point x="625" y="23"/>
      <point x="625" y="0"/>
      <point x="625" y="23" type="curve"/>
      <point x="522" y="23"/>
      <point x="420" y="23"/>
      <point x="317" y="23" type="curve"/>
      <point x="317" y="0"/>
      <point x="317" y="23"/>
    </contour>
  </outline>
</glyph>
<glyph name="Ccedilla" format="1">
  <advance width="512"/>
  <unicode hex="00C7"/>
  <outline>
    <contour>
      <point x="462" y="655" type="curve"/>
      <point x="418" y="694"/>
      <point x="366" y="727"/>
      <point x="301" y="727" type="curve"/>
      <point x="117" y="727"/>
      <point x="72" y="558"/>
      <point x="72" y="344" type="curve"/>
      <point x="72" y="149"/>
      <point x="116" y="-5"/>
      <point x="286" y="-5" type="curve"/>
      <point x="372" y="-5"/>
      <point x="422" y="34"/>
      <point x="476" y="96" type="curve"/>
      <point x="459" y="114"/>
      <point x="475" y="96"/>
      <point x="458" y="114" type="curve"/>
      <point x="410" y="58"/>
      <point x="364" y="22"/>
      <point x="287" y="22" type="curve"/>
      <point x="133" y="22"/>
      <point x="97" y="166"/>
      <point x="97" y="345" type="curve"/>
      <point x="97" y="542"/>
      <point x="136" y="702"/>
      <point x="300" y="702" type="curve"/>
      <point x="359" y="702"/>
      <point x="408" y="673"/>
      <point x="448" y="637" type="curve"/>
      <point x="462" y="655"/>
      <point x="448" y="637"/>
    </contour>
    <contour>
      <point x="268" y="11" type="curve"/>
      <point x="257" y="-16"/>
      <point x="247" y="-44"/>
      <point x="237" y="-70" type="curve"/>
      <point x="254" y="-89"/>
      <point x="237" y="-70"/>
      <point x="254" y="-89" type="curve"/>
      <point x="264" y="-61"/>
      <point x="277" y="-32"/>
      <point x="287" y="-5" type="curve"/>
      <point x="268" y="11"/>
      <point x="287" y="-5"/>
    </contour>
    <contour>
      <point x="254" y="-89" type="curve"/>
      <point x="263" y="-80"/>
      <point x="270" y="-76"/>
      <point x="283" y="-76" type="curve"/>
      <point x="310" y="-76"/>
      <point x="316" y="-101"/>
      <point x="316" y="-132" type="curve"/>
      <point x="316" y="-164"/>
      <point x="303" y="-187"/>
      <point x="274" y="-187" type="curve"/>
      <point x="255" y="-187"/>
      <point x="241" y="-183"/>
      <point x="227" y="-170" type="curve"/>
      <point x="217" y="-187"/>
      <point x="227" y="-170"/>
      <point x="217" y="-187" type="curve"/>
      <point x="234" y="-203"/>
      <point x="250" y="-210"/>
      <point x="273" y="-210" type="curve"/>
      <point x="317" y="-210"/>
      <point x="342" y="-177"/>
      <point x="342" y="-132" type="curve"/>
      <point x="342" y="-88"/>
      <point x="324" y="-53"/>
      <point x="285" y="-53" type="curve"/>
      <point x="266" y="-53"/>
      <point x="253" y="-59"/>
      <point x="237" y="-70" type="curve"/>
      <point x="254" y="-89"/>
      <point x="237" y="-70"/>
    </contour>
  </outline>
</glyph>
<glyph name="Egrave" format="1">
  <advance width="466"/>
  <unicode hex="00C8"/>
  <outline>
    <contour>
      <point x="143" y="363" type="curve"/>
      <point x="220" y="363"/>
      <point x="296" y="363"/>
      <point x="373" y="363" type="curve"/>
      <point x="373" y="385"/>
      <point x="373" y="363"/>
      <point x="373" y="385" type="curve"/>
      <point x="296" y="385"/>
      <point x="220" y="385"/>
      <point x="143" y="385" type="curve"/>
      <point x="143" y="363"/>
      <point x="143" y="385"/>
    </contour>
    <contour>
      <point x="133" y="699" type="curve"/>
      <point x="228" y="699"/>
      <point x="322" y="699"/>
      <point x="417" y="699" type="curve"/>
      <point x="417" y="722"/>
      <point x="417" y="699"/>
      <point x="417" y="722" type="curve"/>
      <point x="322" y="722"/>
      <point x="228" y="722"/>
      <point x="133" y="722" type="curve"/>
      <point x="133" y="699"/>
      <point x="133" y="722"/>
    </contour>
    <contour>
      <point x="153" y="0" type="curve"/>
      <point x="153" y="722" type="line"/>
      <point x="128" y="722"/>
      <point x="153" y="722"/>
      <point x="128" y="722" type="curve"/>
      <point x="128" y="481"/>
      <point x="128" y="241"/>
      <point x="128" y="0" type="curve"/>
      <point x="153" y="0"/>
      <point x="128" y="0"/>
    </contour>
    <contour>
      <point x="133" y="0" type="curve"/>
      <point x="236" y="0"/>
      <point x="338" y="0"/>
      <point x="441" y="0" type="curve"/>
      <point x="441" y="23"/>
      <point x="441" y="0"/>
      <point x="441" y="23" type="curve"/>
      <point x="338" y="23"/>
      <point x="236" y="23"/>
      <point x="133" y="23" type="curve"/>
      <point x="133" y="0"/>
      <point x="133" y="23"/>
    </contour>
    <contour>
      <point x="256" y="825" type="line"/>
      <point x="190" y="991" type="line"/>
      <point x="157" y="991" type="line"/>
      <point x="231" y="825" type="line"/>
    </contour>
  </outline>
</glyph>
<glyph name="Edieresis" format="1">
  <advance width="466"/>
  <unicode hex="00CB"/>
  <outline>
    <contour>
      <point x="143" y="363" type="curve"/>
      <point x="220" y="363"/>
      <point x="296" y="363"/>
      <point x="373" y="363" type="curve"/>
      <point x="373" y="385"/>
      <point x="373" y="363"/>
      <point x="373" y="385" type="curve"/>
      <point x="296" y="385"/>
      <point x="220" y="385"/>
      <point x="143" y="385" type="curve"/>
      <point x="143" y="363"/>
      <point x="143" y="385"/>
    </contour>
    <contour>
      <point x="133" y="699" type="curve"/>
      <point x="228" y="699"/>
      <point x="322" y="699"/>
      <point x="417" y="699" type="curve"/>
      <point x="417" y="722"/>
      <point x="417" y="699"/>
      <point x="417" y="722" type="curve"/>
      <point x="322" y="722"/>
      <point x="228" y="722"/>
      <point x="133" y="722" type="curve"/>
      <point x="133" y="699"/>
      <point x="133" y="722"/>
    </contour>
    <contour>
      <point x="153" y="0" type="curve"/>
      <point x="153" y="722" type="line"/>
      <point x="127" y="722"/>
      <point x="153" y="722"/>
      <point x="127" y="722" type="curve"/>
      <point x="127" y="481"/>
      <point x="127" y="241"/>
      <point x="127" y="0" type="curve"/>
      <point x="153" y="0"/>
      <point x="127" y="0"/>
    </contour>
    <contour>
      <point x="133" y="0" type="curve"/>
      <point x="236" y="0"/>
      <point x="338" y="0"/>
      <point x="441" y="0" type="curve"/>
      <point x="441" y="23"/>
      <point x="441" y="0"/>
      <point x="441" y="23" type="curve"/>
      <point x="338" y="23"/>
      <point x="236" y="23"/>
      <point x="133" y="23" type="curve"/>
      <point x="133" y="0"/>
      <point x="133" y="23"/>
    </contour>
    <contour>
      <point x="216" y="839" type="curve"/>
      <point x="216" y="850"/>
      <point x="209" y="857"/>
      <point x="197" y="857" type="curve"/>
      <point x="186" y="857"/>
      <point x="180" y="849"/>
      <point x="180" y="839" type="curve"/>
      <point x="216" y="839"/>
      <point x="180" y="839"/>
      <point x="216" y="839" type="curve"/>
      <point x="216" y="828"/>
      <point x="209" y="822"/>
      <point x="197" y="822" type="curve"/>
      <point x="186" y="822"/>
      <point x="180" y="828"/>
      <point x="180" y="839" type="curve"/>
      <point x="216" y="839"/>
      <point x="180" y="839"/>
    </contour>
    <contour>
      <point x="301" y="839" type="curve"/>
      <point x="301" y="850"/>
      <point x="294" y="857"/>
      <point x="283" y="857" type="curve"/>
      <point x="271" y="857"/>
      <point x="265" y="849"/>
      <point x="265" y="839" type="curve"/>
      <point x="301" y="839"/>
      <point x="265" y="839"/>
      <point x="301" y="839" type="curve"/>
      <point x="301" y="828"/>
      <point x="294" y="822"/>
      <point x="283" y="822" type="curve"/>
      <point x="271" y="822"/>
      <point x="265" y="828"/>
      <point x="265" y="839" type="curve"/>
      <point x="301" y="839"/>
      <point x="265" y="839"/>
    </contour>
  </outline>
</glyph>
<glyph name="Igrave" format="1">
  <advance width="283"/>
  <unicode hex="00CC"/>
  <outline>
    <contour>
      <point x="156" y="0" type="curve"/>
      <point x="156" y="241"/>
      <point x="156" y="481"/>
      <point x="156" y="722" type="curve"/>
      <point x="130" y="722"/>
      <point x="156" y="722"/>
      <point x="130" y="722" type="curve"/>
      <point x="130" y="481"/>
      <point x="130" y="241"/>
      <point x="130" y="0" type="curve"/>
      <point x="156" y="0"/>
      <point x="130" y="0"/>
    </contour>
    <contour>
      <point x="159" y="825" type="line"/>
      <point x="92" y="991" type="line"/>
      <point x="60" y="991" type="line"/>
      <point x="133" y="825" type="line"/>
    </contour>
  </outline>
</glyph>
<glyph name="Iacute" format="1">
  <advance width="280"/>
  <unicode hex="00CD"/>
  <outline>
    <contour>
      <point x="150" y="0" type="curve"/>
      <point x="150" y="241"/>
      <point x="150" y="481"/>
      <point x="150" y="722" type="curve"/>
      <point x="124" y="722"/>
      <point x="150" y="722"/>
      <point x="124" y="722" type="curve"/>
      <point x="124" y="481"/>
      <point x="124" y="241"/>
      <point x="124" y="0" type="curve"/>
      <point x="150" y="0"/>
      <point x="124" y="0"/>
    </contour>
    <contour>
      <point x="150" y="825" type="line"/>
      <point x="223" y="991" type="line"/>
      <point x="191" y="991" type="line"/>
      <point x="124" y="825" type="line"/>
    </contour>
  </outline>
</glyph>
<glyph name="Icircumflex" format="1">
  <advance width="263"/>
  <unicode hex="00CE"/>
  <outline>
    <contour>
      <point x="147" y="0" type="curve"/>
      <point x="147" y="241"/>
      <point x="147" y="481"/>
      <point x="147" y="722" type="curve"/>
      <point x="122" y="722"/>
      <point x="147" y="722"/>
      <point x="122" y="722" type="curve"/>
      <point x="122" y="481"/>
      <point x="122" y="241"/>
      <point x="122" y="0" type="curve"/>
      <point x="147" y="0"/>
      <point x="122" y="0"/>
    </contour>
    <contour>
      <point x="72" y="825" type="line"/>
      <point x="146" y="991" type="line"/>
      <point x="113" y="991" type="line"/>
      <point x="47" y="825" type="line"/>
    </contour>
    <contour>
      <point x="222" y="825" type="line"/>
      <point x="156" y="991" type="line"/>
      <point x="124" y="991" type="line"/>
      <point x="197" y="825" type="line"/>
    </contour>
  </outline>
</glyph>
<glyph name="Idieresis" format="1">
  <advance width="200"/>
  <unicode hex="00CF"/>
  <outline>
    <contour>
      <point x="114" y="0" type="curve"/>
      <point x="114" y="241"/>
      <point x="114" y="481"/>
      <point x="114" y="722" type="curve"/>
      <point x="89" y="722"/>
      <point x="114" y="722"/>
      <point x="89" y="722" type="curve"/>
      <point x="89" y="481"/>
      <point x="89" y="241"/>
      <point x="89" y="0" type="curve"/>
      <point x="114" y="0"/>
      <point x="89" y="0"/>
    </contour>
    <contour>
      <point x="77" y="839" type="curve"/>
      <point x="77" y="850"/>
      <point x="70" y="857"/>
      <point x="59" y="857" type="curve"/>
      <point x="48" y="857"/>
      <point x="41" y="849"/>
      <point x="41" y="839" type="curve"/>
      <point x="77" y="839"/>
      <point x="41" y="839"/>
      <point x="77" y="839" type="curve"/>
      <point x="77" y="828"/>
      <point x="70" y="822"/>
      <point x="59" y="822" type="curve"/>
      <point x="48" y="822"/>
      <point x="41" y="828"/>
      <point x="41" y="839" type="curve"/>
      <point x="77" y="839"/>
      <point x="41" y="839"/>
    </contour>
    <contour>
      <point x="163" y="839" type="curve"/>
      <point x="163" y="850"/>
      <point x="155" y="857"/>
      <point x="144" y="857" type="curve"/>
      <point x="133" y="857"/>
      <point x="126" y="849"/>
      <point x="126" y="839" type="curve"/>
      <point x="163" y="839"/>
      <point x="126" y="839"/>
      <point x="163" y="839" type="curve"/>
      <point x="163" y="828"/>
      <point x="155" y="822"/>
      <point x="144" y="822" type="curve"/>
      <point x="133" y="822"/>
      <point x="126" y="828"/>
      <point x="126" y="839" type="curve"/>
      <point x="163" y="839"/>
      <point x="126" y="839"/>
    </contour>
  </outline>
</glyph>
<glyph name="Ntilde" format="1">
  <advance width="659"/>
  <unicode hex="00D1"/>
  <outline>
    <contour>
      <point x="532" y="0" type="curve"/>
      <point x="407" y="241"/>
      <point x="282" y="481"/>
      <point x="157" y="722" type="curve"/>
      <point x="126" y="722"/>
      <point x="158" y="722"/>
      <point x="127" y="722" type="curve"/>
      <point x="252" y="481"/>
      <point x="378" y="241"/>
      <point x="503" y="0" type="curve"/>
      <point x="533" y="0"/>
      <point x="502" y="0"/>
    </contour>
    <contour>
      <point x="507" y="722" type="curve"/>
      <point x="507" y="481"/>
      <point x="507" y="241"/>
      <point x="507" y="0" type="curve"/>
      <point x="532" y="0"/>
      <point x="507" y="0"/>
      <point x="532" y="0" type="curve"/>
      <point x="532" y="241"/>
      <point x="532" y="481"/>
      <point x="532" y="722" type="curve"/>
      <point x="507" y="722"/>
      <point x="532" y="722"/>
    </contour>
    <contour>
      <point x="154" y="0" type="curve"/>
      <point x="154" y="241"/>
      <point x="154" y="481"/>
      <point x="154" y="722" type="curve"/>
      <point x="128" y="722"/>
      <point x="154" y="722"/>
      <point x="128" y="722" type="curve"/>
      <point x="128" y="481"/>
      <point x="128" y="241"/>
      <point x="128" y="0" type="curve"/>
      <point x="154" y="0"/>
      <point x="128" y="0"/>
    </contour>
    <contour>
      <point x="454" y="949" type="curve"/>
      <point x="445" y="899"/>
      <point x="440" y="847"/>
      <point x="406" y="847" type="curve"/>
      <point x="376" y="847"/>
      <point x="363" y="869"/>
      <point x="347" y="896" type="curve"/>
      <point x="328" y="925"/>
      <point x="313" y="950"/>
      <point x="278" y="950" type="curve"/>
      <point x="221" y="950"/>
      <point x="212" y="894"/>
      <point x="203" y="831" type="curve"/>
      <point x="224" y="825"/>
      <point x="203" y="831"/>
      <point x="224" y="825" type="curve"/>
      <point x="232" y="877"/>
      <point x="236" y="927"/>
      <point x="278" y="927" type="curve"/>
      <point x="306" y="927"/>
      <point x="315" y="904"/>
      <point x="329" y="880" type="curve"/>
      <point x="349" y="848"/>
      <point x="367" y="825"/>
      <point x="404" y="825" type="curve"/>
      <point x="461" y="825"/>
      <point x="465" y="884"/>
      <point x="476" y="945" type="curve"/>
      <point x="454" y="949"/>
      <point x="476" y="945"/>
    </contour>
  </outline>
</glyph>
<glyph name="Ograve" format="1">
  <advance width="574"/>
  <unicode hex="00D2"/>
  <outline>
    <contour>
      <point x="98" y="360" type="curve" name="FullCurve"/>
      <point x="98" y="543"/>
      <point x="128" y="703"/>
      <point x="286" y="703" type="curve" name="FullCurve"/>
      <point x="443" y="703"/>
      <point x="477" y="545"/>
      <point x="477" y="363" type="curve" name="FullCurve"/>
      <point x="477" y="183"/>
      <point x="446" y="19"/>
      <point x="289" y="19" type="curve" name="FullCurve"/>
      <point x="130" y="19"/>
      <point x="98" y="177"/>
      <point x="98" y="360" type="curve" name="FullCurve"/>
      <point x="72" y="360"/>
      <point x="98" y="360"/>
      <point x="72" y="360" type="curve" name="FullCurve"/>
      <point x="72" y="162"/>
      <point x="115" y="-5"/>
      <point x="287" y="-5" type="curve" name="FullCurve"/>
      <point x="460" y="-5"/>
      <point x="502" y="164"/>
      <point x="502" y="363" type="curve" name="FullCurve"/>
      <point x="502" y="560"/>
      <point x="460" y="727"/>
      <point x="288" y="727" type="curve" name="FullCurve"/>
      <point x="114" y="727"/>
      <point x="72" y="558"/>
      <point x="72" y="360" type="curve" name="FullCurve"/>
      <point x="98" y="360"/>
      <point x="72" y="360"/>
    </contour>
    <contour>
      <point x="301" y="825" type="line"/>
      <point x="235" y="991" type="line"/>
      <point x="202" y="991" type="line"/>
      <point x="276" y="825" type="line"/>
    </contour>
  </outline>
</glyph>
<glyph name="Ocircumflex" format="1">
  <advance width="574"/>
  <unicode hex="00D4"/>
  <outline>
    <contour>
      <point x="98" y="360" type="curve" name="FullCurve"/>
      <point x="98" y="543"/>
      <point x="128" y="703"/>
      <point x="286" y="703" type="curve" name="FullCurve"/>
      <point x="443" y="703"/>
      <point x="477" y="545"/>
      <point x="477" y="363" type="curve" name="FullCurve"/>
      <point x="477" y="183"/>
      <point x="446" y="19"/>
      <point x="289" y="19" type="curve" name="FullCurve"/>
      <point x="130" y="19"/>
      <point x="98" y="177"/>
      <point x="98" y="360" type="curve" name="FullCurve"/>
      <point x="72" y="360"/>
      <point x="98" y="360"/>
      <point x="72" y="360" type="curve" name="FullCurve"/>
      <point x="72" y="162"/>
      <point x="115" y="-5"/>
      <point x="287" y="-5" type="curve" name="FullCurve"/>
      <point x="460" y="-5"/>
      <point x="502" y="164"/>
      <point x="502" y="363" type="curve" name="FullCurve"/>
      <point x="502" y="560"/>
      <point x="460" y="727"/>
      <point x="288" y="727" type="curve" name="FullCurve"/>
      <point x="114" y="727"/>
      <point x="72" y="558"/>
      <point x="72" y="360" type="curve" name="FullCurve"/>
      <point x="98" y="360"/>
      <point x="72" y="360"/>
    </contour>
    <contour>
      <point x="224" y="825" type="line"/>
      <point x="297" y="991" type="line"/>
      <point x="265" y="991" type="line"/>
      <point x="198" y="825" type="line"/>
    </contour>
    <contour>
      <point x="374" y="825" type="line"/>
      <point x="307" y="991" type="line"/>
      <point x="275" y="991" type="line"/>
      <point x="349" y="825" type="line"/>
    </contour>
  </outline>
</glyph>
<glyph name="Otilde" format="1">
  <advance width="574"/>
  <unicode hex="00D5"/>
  <outline>
    <contour>
      <point x="98" y="360" type="curve" name="FullCurve"/>
      <point x="98" y="543"/>
      <point x="128" y="703"/>
      <point x="286" y="703" type="curve" name="FullCurve"/>
      <point x="443" y="703"/>
      <point x="477" y="545"/>
      <point x="477" y="363" type="curve" name="FullCurve"/>
      <point x="477" y="183"/>
      <point x="446" y="19"/>
      <point x="289" y="19" type="curve" name="FullCurve"/>
      <point x="130" y="19"/>
      <point x="98" y="177"/>
      <point x="98" y="360" type="curve" name="FullCurve"/>
      <point x="72" y="360"/>
      <point x="98" y="360"/>
      <point x="72" y="360" type="curve" name="FullCurve"/>
      <point x="72" y="162"/>
      <point x="115" y="-5"/>
      <point x="287" y="-5" type="curve" name="FullCurve"/>
      <point x="460" y="-5"/>
      <point x="502" y="164"/>
      <point x="502" y="363" type="curve" name="FullCurve"/>
      <point x="502" y="560"/>
      <point x="460" y="727"/>
      <point x="288" y="727" type="curve" name="FullCurve"/>
      <point x="114" y="727"/>
      <point x="72" y="558"/>
      <point x="72" y="360" type="curve" name="FullCurve"/>
      <point x="98" y="360"/>
      <point x="72" y="360"/>
    </contour>
    <contour>
      <point x="402" y="949" type="curve"/>
      <point x="393" y="899"/>
      <point x="388" y="847"/>
      <point x="354" y="847" type="curve"/>
      <point x="324" y="847"/>
      <point x="311" y="869"/>
      <point x="295" y="896" type="curve"/>
      <point x="276" y="925"/>
      <point x="261" y="950"/>
      <point x="226" y="950" type="curve"/>
      <point x="169" y="950"/>
      <point x="161" y="894"/>
      <point x="152" y="831" type="curve"/>
      <point x="173" y="825"/>
      <point x="152" y="831"/>
      <point x="173" y="825" type="curve"/>
      <point x="181" y="877"/>
      <point x="185" y="927"/>
      <point x="227" y="927" type="curve"/>
      <point x="255" y="927"/>
      <point x="264" y="904"/>
      <point x="278" y="880" type="curve"/>
      <point x="298" y="848"/>
      <point x="316" y="825"/>
      <point x="353" y="825" type="curve"/>
      <point x="410" y="825"/>
      <point x="413" y="884"/>
      <point x="424" y="945" type="curve"/>
      <point x="402" y="949"/>
      <point x="424" y="945"/>
    </contour>
  </outline>
</glyph>
<glyph name="Odieresis" format="1">
  <advance width="574"/>
  <unicode hex="00D6"/>
  <outline>
    <contour>
      <point x="98" y="360" type="curve" name="FullCurve"/>
      <point x="98" y="543"/>
      <point x="128" y="703"/>
      <point x="286" y="703" type="curve" name="FullCurve"/>
      <point x="443" y="703"/>
      <point x="477" y="545"/>
      <point x="477" y="363" type="curve" name="FullCurve"/>
      <point x="477" y="183"/>
      <point x="446" y="19"/>
      <point x="289" y="19" type="curve" name="FullCurve"/>
      <point x="130" y="19"/>
      <point x="98" y="177"/>
      <point x="98" y="360" type="curve" name="FullCurve"/>
      <point x="72" y="360"/>
      <point x="98" y="360"/>
      <point x="72" y="360" type="curve" name="FullCurve"/>
      <point x="72" y="162"/>
      <point x="115" y="-5"/>
      <point x="287" y="-5" type="curve" name="FullCurve"/>
      <point x="460" y="-5"/>
      <point x="502" y="164"/>
      <point x="502" y="363" type="curve" name="FullCurve"/>
      <point x="502" y="560"/>
      <point x="460" y="727"/>
      <point x="288" y="727" type="curve" name="FullCurve"/>
      <point x="114" y="727"/>
      <point x="72" y="558"/>
      <point x="72" y="360" type="curve" name="FullCurve"/>
      <point x="98" y="360"/>
      <point x="72" y="360"/>
    </contour>
    <contour>
      <point x="262" y="839" type="curve"/>
      <point x="262" y="850"/>
      <point x="254" y="857"/>
      <point x="243" y="857" type="curve"/>
      <point x="232" y="857"/>
      <point x="225" y="849"/>
      <point x="225" y="839" type="curve"/>
      <point x="262" y="839"/>
      <point x="225" y="839"/>
      <point x="262" y="839" type="curve"/>
      <point x="262" y="828"/>
      <point x="254" y="822"/>
      <point x="243" y="822" type="curve"/>
      <point x="232" y="822"/>
      <point x="225" y="828"/>
      <point x="225" y="839" type="curve"/>
      <point x="262" y="839"/>
      <point x="225" y="839"/>
    </contour>
    <contour>
      <point x="347" y="839" type="curve"/>
      <point x="347" y="850"/>
      <point x="339" y="857"/>
      <point x="328" y="857" type="curve"/>
      <point x="317" y="857"/>
      <point x="311" y="849"/>
      <point x="311" y="839" type="curve"/>
      <point x="347" y="839"/>
      <point x="311" y="839"/>
      <point x="347" y="839" type="curve"/>
      <point x="347" y="828"/>
      <point x="339" y="822"/>
      <point x="328" y="822" type="curve"/>
      <point x="317" y="822"/>
      <point x="311" y="828"/>
      <point x="311" y="839" type="curve"/>
      <point x="347" y="839"/>
      <point x="311" y="839"/>
    </contour>
  </outline>
</glyph>
<glyph name="multiply" format="1">
  <advance width="500"/>
  <unicode hex="00D7"/>
  <outline>
    <contour>
      <point x="88" y="129" type="line"/>
      <point x="430" y="471" type="line"/>
      <point x="413" y="489" type="line"/>
      <point x="71" y="147" type="line"/>
    </contour>
    <contour>
      <point x="430" y="147" type="line"/>
      <point x="88" y="489" type="line"/>
      <point x="71" y="471" type="line"/>
      <point x="413" y="129" type="line"/>
    </contour>
  </outline>
</glyph>
<glyph name="Ucircumflex" format="1">
  <advance width="612"/>
  <unicode hex="00DB"/>
  <outline>
    <contour>
      <point x="117" y="721" type="curve"/>
      <point x="117" y="571"/>
      <point x="117" y="421"/>
      <point x="117" y="271" type="curve"/>
      <point x="117" y="106"/>
      <point x="159" y="-5"/>
      <point x="307" y="-5" type="curve"/>
      <point x="451" y="-5"/>
      <point x="495" y="103"/>
      <point x="495" y="263" type="curve"/>
      <point x="495" y="416"/>
      <point x="495" y="569"/>
      <point x="495" y="721" type="curve"/>
      <point x="472" y="721"/>
      <point x="494" y="721"/>
      <point x="471" y="721" type="curve"/>
      <point x="471" y="567"/>
      <point x="471" y="413"/>
      <point x="471" y="259" type="curve"/>
      <point x="471" y="118"/>
      <point x="432" y="20"/>
      <point x="309" y="20" type="curve"/>
      <point x="175" y="20"/>
      <point x="141" y="125"/>
      <point x="141" y="275" type="curve"/>
      <point x="141" y="424"/>
      <point x="141" y="573"/>
      <point x="141" y="721" type="curve"/>
      <point x="118" y="721"/>
      <point x="140" y="721"/>
    </contour>
    <contour>
      <point x="246" y="825" type="line"/>
      <point x="320" y="991" type="line"/>
      <point x="287" y="991" type="line"/>
      <point x="221" y="825" type="line"/>
    </contour>
    <contour>
      <point x="396" y="825" type="line"/>
      <point x="330" y="991" type="line"/>
      <point x="298" y="991" type="line"/>
      <point x="371" y="825" type="line"/>
    </contour>
  </outline>
</glyph>
<glyph name="Thorn" format="1">
  <advance width="458"/>
  <unicode hex="00DE"/>
  <outline>
    <contour>
      <point x="138" y="220" type="curve"/>
      <point x="170" y="195"/>
      <point x="206" y="175"/>
      <point x="249" y="175" type="curve"/>
      <point x="357" y="177"/>
      <point x="407" y="264"/>
      <point x="407" y="389" type="curve"/>
      <point x="407" y="516"/>
      <point x="350" y="617"/>
      <point x="233" y="617" type="curve"/>
      <point x="203" y="617"/>
      <point x="173" y="617"/>
      <point x="143" y="617" type="curve"/>
      <point x="143" y="594"/>
      <point x="143" y="617"/>
      <point x="143" y="594" type="curve"/>
      <point x="172" y="594"/>
      <point x="201" y="594"/>
      <point x="230" y="594" type="curve"/>
      <point x="335" y="594"/>
      <point x="382" y="503"/>
      <point x="382" y="388" type="curve"/>
      <point x="382" y="284"/>
      <point x="343" y="199"/>
      <point x="250" y="199" type="curve"/>
      <point x="207" y="199"/>
      <point x="180" y="216"/>
      <point x="146" y="242" type="curve"/>
      <point x="138" y="221"/>
      <point x="146" y="241"/>
    </contour>
    <contour>
      <point x="153" y="0" type="curve"/>
      <point x="153" y="241"/>
      <point x="153" y="481"/>
      <point x="153" y="722" type="curve"/>
      <point x="127" y="722"/>
      <point x="153" y="722"/>
      <point x="127" y="722" type="curve"/>
      <point x="127" y="481"/>
      <point x="127" y="241"/>
      <point x="127" y="0" type="curve"/>
      <point x="153" y="0"/>
      <point x="127" y="0"/>
    </contour>
  </outline>
</glyph>
<glyph name="germandbls" format="1">
  <advance width="454"/>
  <unicode hex="00DF"/>
  <outline>
    <contour>
      <point x="134" y="0" type="curve"/>
      <point x="134" y="207"/>
      <point x="134" y="412"/>
      <point x="134" y="619" type="curve"/>
      <point x="108" y="619"/>
      <point x="134" y="619"/>
      <point x="108" y="619" type="curve"/>
      <point x="108" y="412"/>
      <point x="108" y="207"/>
      <point x="108" y="0" type="curve"/>
      <point x="134" y="0"/>
      <point x="108" y="0"/>
    </contour>
    <contour>
      <point x="134" y="619" type="curve"/>
      <point x="134" y="708"/>
      <point x="162" y="782"/>
      <point x="239" y="782" type="curve"/>
      <point x="317" y="782"/>
      <point x="355" y="715"/>
      <point x="355" y="627" type="curve"/>
      <point x="355" y="538"/>
      <point x="309" y="471"/>
      <point x="230" y="471" type="curve"/>
      <point x="230" y="452"/>
      <point x="230" y="471"/>
      <point x="230" y="452" type="curve"/>
      <point x="326" y="452"/>
      <point x="379" y="525"/>
      <point x="379" y="628" type="curve"/>
      <point x="379" y="730"/>
      <point x="335" y="805"/>
      <point x="241" y="805" type="curve"/>
      <point x="147" y="805"/>
      <point x="108" y="723"/>
      <point x="108" y="619" type="curve"/>
      <point x="134" y="619"/>
      <point x="108" y="619"/>
    </contour>
    <contour>
      <point x="298" y="87" type="curve"/>
      <point x="375" y="113"/>
      <point x="402" y="179"/>
      <point x="402" y="273" type="curve"/>
      <point x="402" y="386"/>
      <point x="346" y="471"/>
      <point x="230" y="471" type="curve"/>
      <point x="230" y="452"/>
      <point x="230" y="471"/>
      <point x="230" y="452" type="curve"/>
      <point x="318" y="452"/>
      <point x="378" y="377"/>
      <point x="378" y="272" type="curve"/>
      <point x="378" y="192"/>
      <point x="352" y="134"/>
      <point x="291" y="109" type="curve"/>
      <point x="298" y="87"/>
      <point x="291" y="109"/>
    </contour>
  </outline>
</glyph>
<glyph name="atilde" format="1">
  <advance width="438"/>
  <unicode hex="00E3"/>
  <outline>
    <contour>
      <point x="333" y="0" type="curve"/>
      <point x="333" y="130"/>
      <point x="333" y="260"/>
      <point x="333" y="390" type="curve"/>
      <point x="333" y="485"/>
      <point x="298" y="538"/>
      <point x="212" y="538" type="curve"/>
      <point x="147" y="538"/>
      <point x="105" y="501"/>
      <point x="76" y="464" type="curve"/>
      <point x="92" y="446"/>
      <point x="76" y="464"/>
      <point x="92" y="446" type="curve"/>
      <point x="113" y="474"/>
      <point x="154" y="515"/>
      <point x="209" y="515" type="curve"/>
      <point x="282" y="515"/>
      <point x="308" y="467"/>
      <point x="308" y="383" type="curve"/>
      <point x="308" y="255"/>
      <point x="308" y="128"/>
      <point x="308" y="0" type="curve"/>
      <point x="333" y="0"/>
      <point x="308" y="0"/>
    </contour>
    <contour>
      <point x="317" y="321" type="curve"/>
      <point x="263" y="310"/>
      <point x="237" y="305"/>
      <point x="181" y="294" type="curve"/>
      <point x="105" y="278"/>
      <point x="62" y="226"/>
      <point x="62" y="141" type="curve"/>
      <point x="62" y="56"/>
      <point x="88" y="-5"/>
      <point x="169" y="-5" type="curve"/>
      <point x="262" y="-5"/>
      <point x="298" y="71"/>
      <point x="330" y="151" type="curve"/>
      <point x="314" y="165"/>
      <point x="330" y="151"/>
      <point x="314" y="165" type="curve"/>
      <point x="290" y="93"/>
      <point x="249" y="18"/>
      <point x="174" y="18" type="curve"/>
      <point x="105" y="18"/>
      <point x="87" y="71"/>
      <point x="87" y="143" type="curve"/>
      <point x="87" y="214"/>
      <point x="121" y="261"/>
      <point x="180" y="274" type="curve"/>
      <point x="237" y="285"/>
      <point x="263" y="290"/>
      <point x="320" y="301" type="curve"/>
      <point x="317" y="321"/>
      <point x="320" y="301"/>
    </contour>
    <contour>
      <point x="327" y="795" type="curve"/>
      <point x="318" y="745"/>
      <point x="313" y="693"/>
      <point x="279" y="693" type="curve"/>
      <point x="249" y="693"/>
      <point x="236" y="715"/>
      <point x="220" y="741" type="curve"/>
      <point x="201" y="771"/>
      <point x="186" y="796"/>
      <point x="151" y="796" type="curve"/>
      <point x="94" y="796"/>
      <point x="86" y="740"/>
      <point x="77" y="677" type="curve"/>
      <point x="98" y="670"/>
      <point x="77" y="677"/>
      <point x="98" y="670" type="curve"/>
      <point x="106" y="723"/>
      <point x="110" y="773"/>
      <point x="152" y="773" type="curve"/>
      <point x="179" y="773"/>
      <point x="188" y="750"/>
      <point x="202" y="726" type="curve"/>
      <point x="223" y="694"/>
      <point x="241" y="670"/>
      <point x="278" y="670" type="curve"/>
      <point x="335" y="670"/>
      <point x="338" y="729"/>
      <point x="349" y="791" type="curve"/>
      <point x="327" y="795"/>
      <point x="349" y="791"/>
    </contour>
  </outline>
</glyph>
<glyph name="ae" format="1">
  <advance width="667"/>
  <unicode hex="00E6"/>
  <outline>
    <contour>
      <point x="331" y="280" type="curve"/>
      <point x="331" y="409"/>
      <point x="331" y="261"/>
      <point x="331" y="390" type="curve"/>
      <point x="331" y="485"/>
      <point x="297" y="538"/>
      <point x="211" y="538" type="curve"/>
      <point x="146" y="538"/>
      <point x="104" y="501"/>
      <point x="75" y="464" type="curve"/>
      <point x="88" y="444"/>
      <point x="75" y="464"/>
      <point x="88" y="444" type="curve"/>
      <point x="111" y="478"/>
      <point x="148" y="515"/>
      <point x="208" y="515" type="curve"/>
      <point x="281" y="515"/>
      <point x="307" y="467"/>
      <point x="307" y="383" type="curve"/>
      <point x="307" y="256"/>
      <point x="307" y="407"/>
      <point x="307" y="280" type="curve"/>
      <point x="331" y="280"/>
      <point x="306" y="280"/>
    </contour>
    <contour>
      <point x="322" y="295" type="curve"/>
      <point x="262" y="295"/>
      <point x="235" y="297"/>
      <point x="179" y="286" type="curve"/>
      <point x="103" y="270"/>
      <point x="61" y="226"/>
      <point x="61" y="141" type="curve"/>
      <point x="61" y="56"/>
      <point x="87" y="-5"/>
      <point x="168" y="-5" type="curve"/>
      <point x="261" y="-5"/>
      <point x="302" y="66"/>
      <point x="339" y="147" type="curve"/>
      <point x="326" y="159"/>
      <point x="332" y="147"/>
      <point x="319" y="159" type="curve"/>
      <point x="285" y="85"/>
      <point x="248" y="18"/>
      <point x="173" y="18" type="curve"/>
      <point x="104" y="18"/>
      <point x="86" y="71"/>
      <point x="86" y="143" type="curve"/>
      <point x="86" y="214"/>
      <point x="123" y="252"/>
      <point x="182" y="265" type="curve"/>
      <point x="239" y="276"/>
      <point x="266" y="273"/>
      <point x="323" y="273" type="curve"/>
      <point x="322" y="292"/>
      <point x="323" y="276"/>
    </contour>
    <contour>
      <point x="319" y="273" type="curve"/>
      <point x="410" y="273"/>
      <point x="503" y="273"/>
      <point x="594" y="273" type="curve"/>
      <point x="599" y="273"/>
      <point x="594" y="273"/>
      <point x="599" y="273" type="curve"/>
      <point x="599" y="276"/>
      <point x="599" y="273"/>
      <point x="599" y="276" type="curve"/>
      <point x="599" y="285"/>
      <point x="599" y="294"/>
      <point x="599" y="303" type="curve"/>
      <point x="599" y="435"/>
      <point x="571" y="538"/>
      <point x="458" y="538" type="curve"/>
      <point x="333" y="538"/>
      <point x="306" y="425"/>
      <point x="306" y="281" type="curve"/>
      <point x="306" y="122"/>
      <point x="335" y="-5"/>
      <point x="470" y="-5" type="curve"/>
      <point x="528" y="-5"/>
      <point x="564" y="26"/>
      <point x="599" y="76" type="curve"/>
      <point x="580" y="91"/>
      <point x="599" y="76"/>
      <point x="580" y="91" type="curve"/>
      <point x="551" y="49"/>
      <point x="516" y="18"/>
      <point x="470" y="18" type="curve"/>
      <point x="355" y="18"/>
      <point x="332" y="136"/>
      <point x="332" y="281" type="curve"/>
      <point x="332" y="409"/>
      <point x="352" y="515"/>
      <point x="455" y="515" type="curve"/>
      <point x="554" y="515"/>
      <point x="575" y="422"/>
      <point x="575" y="305" type="curve"/>
      <point x="575" y="295"/>
      <point x="575" y="286"/>
      <point x="575" y="276" type="curve"/>
      <point x="578" y="279"/>
      <point x="582" y="282"/>
      <point x="584" y="285" type="curve"/>
      <point x="587" y="289"/>
      <point x="591" y="291"/>
      <point x="594" y="295" type="curve"/>
      <point x="503" y="295"/>
      <point x="410" y="295"/>
      <point x="319" y="295" type="curve"/>
      <point x="319" y="272"/>
      <point x="319" y="295"/>
    </contour>
  </outline>
</glyph>
<glyph name="ccedilla" format="1">
  <advance width="404"/>
  <unicode hex="00E7"/>
  <outline>
    <contour>
      <point x="352" y="473" type="curve"/>
      <point x="323" y="507"/>
      <point x="282" y="538"/>
      <point x="236" y="538" type="curve"/>
      <point x="102" y="538"/>
      <point x="67" y="422"/>
      <point x="67" y="267" type="curve"/>
      <point x="67" y="112"/>
      <point x="100" y="-5"/>
      <point x="234" y="-5" type="curve"/>
      <point x="288" y="-5"/>
      <point x="333" y="35"/>
      <point x="360" y="88" type="curve"/>
      <point x="341" y="100"/>
      <point x="360" y="88"/>
      <point x="341" y="100" type="curve"/>
      <point x="321" y="63"/>
      <point x="282" y="18"/>
      <point x="235" y="18" type="curve"/>
      <point x="118" y="18"/>
      <point x="92" y="128"/>
      <point x="92" y="267" type="curve"/>
      <point x="92" y="406"/>
      <point x="122" y="515"/>
      <point x="235" y="515" type="curve"/>
      <point x="275" y="515"/>
      <point x="311" y="486"/>
      <point x="337" y="457" type="curve"/>
      <point x="352" y="473"/>
      <point x="337" y="457"/>
    </contour>
    <contour>
      <point x="216" y="11" type="curve"/>
      <point x="205" y="-16"/>
      <point x="195" y="-44"/>
      <point x="185" y="-70" type="curve"/>
      <point x="202" y="-89"/>
      <point x="185" y="-70"/>
      <point x="202" y="-89" type="curve"/>
      <point x="212" y="-61"/>
      <point x="225" y="-32"/>
      <point x="235" y="-5" type="curve"/>
      <point x="216" y="11"/>
      <point x="235" y="-5"/>
    </contour>
    <contour>
      <point x="202" y="-89" type="curve"/>
      <point x="211" y="-80"/>
      <point x="218" y="-76"/>
      <point x="231" y="-76" type="curve"/>
      <point x="258" y="-76"/>
      <point x="264" y="-101"/>
      <point x="264" y="-132" type="curve"/>
      <point x="264" y="-164"/>
      <point x="251" y="-187"/>
      <point x="222" y="-187" type="curve"/>
      <point x="203" y="-187"/>
      <point x="189" y="-183"/>
      <point x="175" y="-170" type="curve"/>
      <point x="165" y="-187"/>
      <point x="175" y="-170"/>
      <point x="165" y="-187" type="curve"/>
      <point x="182" y="-202"/>
      <point x="198" y="-210"/>
      <point x="221" y="-210" type="curve"/>
      <point x="265" y="-210"/>
      <point x="290" y="-177"/>
      <point x="290" y="-132" type="curve"/>
      <point x="290" y="-88"/>
      <point x="272" y="-53"/>
      <point x="233" y="-53" type="curve"/>
      <point x="214" y="-53"/>
      <point x="201" y="-59"/>
      <point x="185" y="-70" type="curve"/>
      <point x="202" y="-89"/>
      <point x="185" y="-70"/>
    </contour>
  </outline>
</glyph>
<glyph name="ecircumflex" format="1">
  <advance width="428"/>
  <unicode hex="00EA"/>
  <outline>
    <contour>
      <point x="81" y="273" type="curve"/>
      <point x="172" y="273"/>
      <point x="264" y="273"/>
      <point x="355" y="273" type="curve"/>
      <point x="361" y="273"/>
      <point x="355" y="273"/>
      <point x="361" y="273" type="curve"/>
      <point x="361" y="276"/>
      <point x="361" y="273"/>
      <point x="361" y="276" type="curve"/>
      <point x="361" y="285"/>
      <point x="361" y="294"/>
      <point x="361" y="303" type="curve"/>
      <point x="361" y="435"/>
      <point x="333" y="538"/>
      <point x="219" y="538" type="curve"/>
      <point x="95" y="538"/>
      <point x="68" y="425"/>
      <point x="68" y="281" type="curve"/>
      <point x="68" y="122"/>
      <point x="97" y="-5"/>
      <point x="231" y="-5" type="curve"/>
      <point x="289" y="-5"/>
      <point x="326" y="26"/>
      <point x="361" y="76" type="curve"/>
      <point x="342" y="91"/>
      <point x="361" y="76"/>
      <point x="342" y="91" type="curve"/>
      <point x="313" y="49"/>
      <point x="278" y="18"/>
      <point x="231" y="18" type="curve"/>
      <point x="117" y="18"/>
      <point x="94" y="136"/>
      <point x="94" y="281" type="curve"/>
      <point x="94" y="409"/>
      <point x="114" y="515"/>
      <point x="217" y="515" type="curve"/>
      <point x="316" y="515"/>
      <point x="337" y="422"/>
      <point x="337" y="305" type="curve"/>
      <point x="337" y="295"/>
      <point x="337" y="286"/>
      <point x="337" y="276" type="curve"/>
      <point x="340" y="279"/>
      <point x="344" y="282"/>
      <point x="346" y="285" type="curve"/>
      <point x="349" y="289"/>
      <point x="352" y="291"/>
      <point x="355" y="295" type="curve"/>
      <point x="264" y="295"/>
      <point x="172" y="295"/>
      <point x="81" y="295" type="curve"/>
      <point x="81" y="272"/>
      <point x="81" y="295"/>
    </contour>
    <contour>
      <point x="154" y="670" type="line"/>
      <point x="228" y="836" type="line"/>
      <point x="195" y="836" type="line"/>
      <point x="129" y="670" type="line"/>
    </contour>
    <contour>
      <point x="304" y="670" type="line"/>
      <point x="238" y="836" type="line"/>
      <point x="206" y="836" type="line"/>
      <point x="279" y="670" type="line"/>
    </contour>
  </outline>
</glyph>
<glyph name="igrave" format="1">
  <advance width="248"/>
  <unicode hex="00EC"/>
  <outline>
    <contour>
      <point x="141" y="0" type="curve"/>
      <point x="141" y="178"/>
      <point x="141" y="355"/>
      <point x="141" y="533" type="curve"/>
      <point x="113" y="533"/>
      <point x="141" y="533"/>
      <point x="113" y="533" type="curve"/>
      <point x="113" y="355"/>
      <point x="113" y="178"/>
      <point x="113" y="0" type="curve"/>
      <point x="141" y="0"/>
      <point x="113" y="0"/>
    </contour>
    <contour>
      <point x="140" y="670" type="line"/>
      <point x="73" y="836" type="line"/>
      <point x="41" y="836" type="line"/>
      <point x="114" y="670" type="line"/>
    </contour>
  </outline>
</glyph>
<glyph name="iacute" format="1">
  <advance width="230"/>
  <unicode hex="00ED"/>
  <outline>
    <contour>
      <point x="134" y="0" type="curve"/>
      <point x="134" y="178"/>
      <point x="134" y="355"/>
      <point x="134" y="533" type="curve"/>
      <point x="106" y="533"/>
      <point x="134" y="533"/>
      <point x="106" y="533" type="curve"/>
      <point x="106" y="355"/>
      <point x="106" y="178"/>
      <point x="106" y="0" type="curve"/>
      <point x="134" y="0"/>
      <point x="106" y="0"/>
    </contour>
    <contour>
      <point x="130" y="670" type="line"/>
      <point x="203" y="836" type="line"/>
      <point x="171" y="836" type="line"/>
      <point x="104" y="670" type="line"/>
    </contour>
  </outline>
</glyph>
<glyph name="icircumflex" format="1">
  <advance width="262"/>
  <unicode hex="00EE"/>
  <outline>
    <contour>
      <point x="141" y="0" type="curve"/>
      <point x="141" y="178"/>
      <point x="141" y="355"/>
      <point x="141" y="533" type="curve"/>
      <point x="114" y="533"/>
      <point x="141" y="533"/>
      <point x="114" y="533" type="curve"/>
      <point x="114" y="355"/>
      <point x="114" y="178"/>
      <point x="114" y="0" type="curve"/>
      <point x="141" y="0"/>
      <point x="114" y="0"/>
    </contour>
    <contour>
      <point x="62" y="670" type="line"/>
      <point x="136" y="836" type="line"/>
      <point x="103" y="836" type="line"/>
      <point x="37" y="670" type="line"/>
    </contour>
    <contour>
      <point x="212" y="670" type="line"/>
      <point x="146" y="836" type="line"/>
      <point x="114" y="836" type="line"/>
      <point x="187" y="670" type="line"/>
    </contour>
  </outline>
</glyph>
<glyph name="idieresis" format="1">
  <advance width="214"/>
  <unicode hex="00EF"/>
  <outline>
    <contour>
      <point x="121" y="0" type="curve"/>
      <point x="121" y="178"/>
      <point x="121" y="355"/>
      <point x="121" y="533" type="curve"/>
      <point x="94" y="533"/>
      <point x="121" y="533"/>
      <point x="94" y="533" type="curve"/>
      <point x="94" y="355"/>
      <point x="94" y="178"/>
      <point x="94" y="0" type="curve"/>
      <point x="121" y="0"/>
      <point x="94" y="0"/>
    </contour>
    <contour>
      <point x="80" y="685" type="curve"/>
      <point x="80" y="696"/>
      <point x="73" y="702"/>
      <point x="62" y="702" type="curve"/>
      <point x="50" y="702"/>
      <point x="44" y="695"/>
      <point x="44" y="685" type="curve"/>
      <point x="80" y="685"/>
      <point x="44" y="685"/>
      <point x="80" y="685" type="curve"/>
      <point x="80" y="674"/>
      <point x="73" y="667"/>
      <point x="62" y="667" type="curve"/>
      <point x="50" y="667"/>
      <point x="44" y="674"/>
      <point x="44" y="685" type="curve"/>
      <point x="80" y="685"/>
      <point x="44" y="685"/>
    </contour>
    <contour>
      <point x="166" y="685" type="curve"/>
      <point x="166" y="696"/>
      <point x="158" y="702"/>
      <point x="147" y="702" type="curve"/>
      <point x="136" y="702"/>
      <point x="129" y="695"/>
      <point x="129" y="685" type="curve"/>
      <point x="166" y="685"/>
      <point x="129" y="685"/>
      <point x="166" y="685" type="curve"/>
      <point x="166" y="674"/>
      <point x="158" y="667"/>
      <point x="147" y="667" type="curve"/>
      <point x="136" y="667"/>
      <point x="129" y="674"/>
      <point x="129" y="685" type="curve"/>
      <point x="166" y="685"/>
      <point x="129" y="685"/>
    </contour>
  </outline>
</glyph>
<glyph name="eth" format="1">
  <advance width="421"/>
  <unicode hex="00F0"/>
  <outline>
    <contour>
      <point x="67" y="548" type="curve"/>
      <point x="128" y="610"/>
      <point x="190" y="671"/>
      <point x="251" y="732" type="curve"/>
      <point x="268" y="715"/>
      <point x="251" y="732"/>
      <point x="268" y="715" type="curve"/>
      <point x="207" y="654"/>
      <point x="146" y="592"/>
      <point x="84" y="531" type="curve"/>
      <point x="67" y="548"/>
      <point x="84" y="531"/>
    </contour>
    <contour>
      <point x="331" y="226" type="curve"/>
      <point x="310" y="295"/>
      <point x="274" y="379"/>
      <point x="188" y="379" type="curve"/>
      <point x="96" y="379"/>
      <point x="64" y="299"/>
      <point x="64" y="195" type="curve"/>
      <point x="64" y="95"/>
      <point x="96" y="12"/>
      <point x="184" y="12" type="curve"/>
      <point x="291" y="12"/>
      <point x="326" y="114"/>
      <point x="326" y="235" type="curve"/>
      <point x="326" y="457"/>
      <point x="241" y="616"/>
      <point x="36" y="706" type="curve"/>
      <point x="47" y="730"/>
      <point x="36" y="706"/>
      <point x="47" y="730" type="curve"/>
      <point x="261" y="636"/>
      <point x="352" y="473"/>
      <point x="352" y="234" type="curve"/>
      <point x="352" y="96"/>
      <point x="310" y="-12"/>
      <point x="185" y="-12" type="curve"/>
      <point x="78" y="-12"/>
      <point x="38" y="79"/>
      <point x="38" y="196" type="curve"/>
      <point x="38" y="314"/>
      <point x="79" y="403"/>
      <point x="186" y="403" type="curve"/>
      <point x="281" y="403"/>
      <point x="319" y="330"/>
      <point x="347" y="234" type="curve"/>
      <point x="331" y="226"/>
      <point x="347" y="234"/>
    </contour>
  </outline>
</glyph>
